G04 start of page 3 for group 1 idx 4 *
G04 Title: (unknown), Power_Bottom *
G04 Creator: pcb 20110918 *
G04 CreationDate: Mon 05 May 2014 07:23:21 AM GMT UTC *
G04 For: john *
G04 Format: Gerber/RS-274X *
G04 PCB-Dimensions: 295500 350000 *
G04 PCB-Coordinate-Origin: lower left *
%MOIN*%
%FSLAX25Y25*%
%LNBOTTOM*%
%ADD49C,0.0460*%
%ADD48C,0.0590*%
%ADD47C,0.0380*%
%ADD46C,0.0280*%
%ADD45C,0.0150*%
%ADD44C,0.0200*%
%ADD43C,0.2000*%
%ADD42C,0.0300*%
%ADD41C,0.0400*%
%ADD40C,0.2040*%
%ADD39R,0.0150X0.0150*%
%ADD38R,0.0512X0.0512*%
%ADD37C,0.0660*%
%ADD36C,0.0630*%
%ADD35C,0.0500*%
%ADD34C,0.0600*%
%ADD33C,0.0001*%
%ADD32C,0.0100*%
%ADD31C,0.0250*%
G54D31*X8200Y311300D02*Y297400D01*
X11800Y293800D01*
X25600D01*
X31000Y299200D01*
X66500D01*
X14700Y313600D02*X67200D01*
X72200Y250200D02*X71100Y249100D01*
X72200Y336800D02*Y263200D01*
X76800Y326900D02*Y326700D01*
X121500Y287700D02*X77600Y331600D01*
X102700Y311100D02*X102900D01*
X112100Y320300D01*
Y334200D01*
X164400Y265800D02*Y254700D01*
X183755Y305492D02*X168192D01*
X150400Y287700D01*
X121500D01*
X76800Y326700D02*X89000Y314500D01*
X261905Y134000D02*X275000D01*
X238000Y128000D02*Y109000D01*
X229000Y100000D01*
X244000Y128000D02*Y105000D01*
X229000Y90000D01*
X262000Y199000D02*X275000D01*
X262000Y166000D02*X275000D01*
X229000Y80000D02*X228800D01*
G54D32*X219300Y95800D02*Y111000D01*
X216900Y113400D01*
X197700Y127300D02*Y165900D01*
X197800Y166000D01*
X201500Y129100D02*Y165500D01*
X201600Y165600D01*
G54D31*X262400Y42200D02*X274820D01*
X275192Y41829D01*
Y69996D02*X261304D01*
X261100Y70200D01*
X262500Y224300D02*X275000D01*
G54D32*X197750Y165950D02*Y303297D01*
X195555Y305492D01*
X201500Y165400D02*Y299637D01*
X207355Y305492D01*
G54D31*X169000Y40000D02*X94000D01*
X83000Y41000D02*Y31200D01*
X87100Y27100D01*
X99000D01*
X161400Y34200D02*Y31700D01*
X156600Y34200D02*Y33900D01*
X129000Y85000D02*X156400D01*
X161400Y80000D01*
X169000D01*
X228800D02*X221600Y72800D01*
X94000Y40000D02*X93000Y41000D01*
X73600Y41600D02*X73000Y41000D01*
X169000Y50000D02*X167800D01*
X161700Y43900D01*
X136000Y140000D02*X79800Y83800D01*
Y72800D02*X137000Y130000D01*
X108900Y92600D02*X112600D01*
X121000Y101000D01*
X129100D01*
X131550Y103450D01*
X73600Y94400D02*Y41600D01*
X69000Y83300D02*X63100Y77400D01*
Y41100D01*
X63000Y41000D01*
X43000D02*Y64500D01*
X68800Y90300D01*
X58200Y73000D02*X53300Y68100D01*
Y41300D01*
X53000Y41000D01*
X169000Y110000D02*X138100D01*
X131400Y103300D01*
X145000Y64000D02*X146000Y65000D01*
X153900D01*
X159100Y70200D01*
X168800D01*
X169000Y70000D01*
X221600Y72800D02*Y24500D01*
X128000Y64000D02*X145000D01*
X169000Y60000D02*X168900D01*
X157900Y49000D01*
G54D32*X201000Y27000D02*X205200Y31200D01*
Y86500D01*
X216500Y26800D02*Y93000D01*
X219300Y95800D01*
X194000Y27000D02*X178500D01*
X175600Y29900D01*
X169100D01*
X169000Y30000D01*
X194000Y21900D02*X177800D01*
X175800Y19900D01*
X169100D01*
X169000Y20000D01*
G54D31*X150100Y20400D02*X139100D01*
X138500Y21000D01*
X221600Y24500D02*X221900Y24200D01*
G54D32*X211600Y21900D02*X216500Y26800D01*
G54D31*X161400Y31700D02*X150100Y20400D01*
X156600Y33900D02*X148900Y26200D01*
X133700D01*
X128500Y21000D01*
G54D32*X201000Y21900D02*X211600D01*
G54D31*X169000Y160000D02*X139200D01*
X169000Y150000D02*X138800D01*
X137850Y149050D01*
X169000Y140000D02*X136000D01*
X169000Y130000D02*X137100D01*
X137050Y130050D01*
X139200Y160000D02*X73600Y94400D01*
X137700Y148900D02*X79100Y90300D01*
X87200Y178200D02*X116200Y149200D01*
X32900Y211900D02*X28300D01*
X13200Y196800D01*
X8500Y199300D02*X32200Y223000D01*
X3500Y203900D02*X27700Y228100D01*
X13200Y196800D02*Y179400D01*
X8500Y177700D02*Y199300D01*
X3500Y168700D02*Y203900D01*
X13200Y179400D02*X27000Y165600D01*
X26900Y159300D02*X8500Y177700D01*
X26900Y145300D02*X3500Y168700D01*
X26900Y159100D02*Y159300D01*
X32200Y223000D02*X41800D01*
X52900Y211900D01*
X27700Y228100D02*X46700D01*
X62900Y211900D01*
X72900D02*X79500D01*
X87200Y204200D01*
Y178200D01*
X13000Y41000D02*Y20000D01*
X42900Y201900D02*X72900D01*
X52900D02*Y187100D01*
X52700Y186900D01*
X243500Y172500D02*X250000Y166000D01*
X229000Y140000D02*X231000D01*
X238000Y133000D01*
X229200Y140000D02*X229100D01*
X228600Y139400D02*X229200Y140000D01*
X229000Y220000D02*X235000D01*
X243000Y212000D01*
X243500Y205500D02*X250000Y199000D01*
X243500Y211500D02*Y172500D01*
X250400Y219000D02*X243200Y211800D01*
X238000Y133000D02*X251000D01*
X185700Y106000D02*X219100Y139400D01*
X228600D01*
X251000Y133000D02*Y165000D01*
X250400Y70200D02*X247900D01*
X241000Y63300D01*
X251000Y165000D02*X249000Y167000D01*
X250400Y225600D02*Y219000D01*
X183755Y317292D02*X207355D01*
X208000D02*Y316800D01*
X215900Y308900D01*
Y233200D01*
X229100Y220000D01*
X159400Y90000D02*X155700Y93700D01*
X120200Y94400D02*X155000D01*
X155450Y93950D01*
X117190Y85200D02*Y65000D01*
Y85000D02*Y91390D01*
X120200Y94400D01*
G54D32*X186600Y72300D02*Y30500D01*
G54D31*X169000Y90000D02*X159400D01*
G54D32*X168800D02*X168900D01*
X186600Y72300D01*
G54D31*X169700Y90000D02*X180000D01*
X185900Y95900D01*
X185700Y105600D02*Y106000D01*
X117190Y65000D02*X116190Y64000D01*
Y43810D01*
X116300Y43700D01*
X116100Y35500D02*X100100Y19500D01*
X23500D01*
X23000Y20000D01*
G54D32*X194000Y24500D02*X186800D01*
X212900Y18500D02*X186700D01*
X186600Y18600D01*
G54D31*X217500Y5400D02*X100500D01*
X86400Y19500D01*
G54D32*X228900Y20100D02*X214500D01*
G54D31*X229000Y20000D02*Y16900D01*
X217500Y5400D01*
G54D32*X214500Y20100D02*X212900Y18500D01*
G54D31*X241000Y31300D02*X240900Y31200D01*
Y24600D01*
X236600Y20300D01*
X229000D01*
X241000Y63300D02*Y31300D01*
X250000Y42100D02*X247500D01*
X241000Y35600D01*
G54D32*X169000Y100000D02*X197600D01*
X213600Y84000D01*
Y27400D01*
X210700Y24500D01*
X201000D01*
G54D31*X33000Y41000D02*Y150600D01*
X33100Y150700D01*
X168900Y100000D02*X199000D01*
X168300D02*X148500D01*
X145400Y103100D01*
X199000Y100000D02*X229000Y130000D01*
X32900Y201900D02*Y151000D01*
X33000Y150900D01*
X32900Y171200D02*X38600Y176900D01*
X68500D01*
X80300Y188700D01*
X132700Y248300D02*X132400Y248600D01*
G54D33*G36*
X90000Y44000D02*Y38000D01*
X96000D01*
Y44000D01*
X90000D01*
G37*
G54D34*X83000Y41000D03*
X73000D03*
X63000D03*
X53000D03*
X43000D03*
X33000D03*
X23000D03*
X13000D03*
G54D33*G36*
X10200Y22500D02*Y16500D01*
X16200D01*
Y22500D01*
X10200D01*
G37*
G54D34*X23200Y19500D03*
G54D33*G36*
X125500Y24000D02*Y18000D01*
X131500D01*
Y24000D01*
X125500D01*
G37*
G54D34*X138500Y21000D03*
G54D35*X207355Y317292D03*
X195555D03*
G54D36*Y334292D03*
G54D35*X183755Y317292D03*
X207355Y305492D03*
X183755D03*
X195555D03*
G54D33*G36*
X12684Y282284D02*Y277284D01*
X17684D01*
Y282284D01*
X12684D01*
G37*
G36*
X271800Y227900D02*Y221900D01*
X277800D01*
Y227900D01*
X271800D01*
G37*
G54D34*X284800Y224900D03*
G54D33*G36*
X226000Y233000D02*Y227000D01*
X232000D01*
Y233000D01*
X226000D01*
G37*
G54D34*X229000Y220000D03*
G54D33*G36*
X272000Y202000D02*Y196000D01*
X278000D01*
Y202000D01*
X272000D01*
G37*
G36*
Y137000D02*Y131000D01*
X278000D01*
Y137000D01*
X272000D01*
G37*
G36*
X272192Y72996D02*Y66996D01*
X278192D01*
Y72996D01*
X272192D01*
G37*
G36*
Y44829D02*Y38829D01*
X278192D01*
Y44829D01*
X272192D01*
G37*
G54D34*X285000Y199000D03*
Y134000D03*
X285192Y69996D03*
Y41829D03*
G54D33*G36*
X272000Y169000D02*Y163000D01*
X278000D01*
Y169000D01*
X272000D01*
G37*
G54D34*X285000Y166000D03*
X229000Y180000D03*
Y170000D03*
Y160000D03*
Y150000D03*
Y140000D03*
Y130000D03*
Y120000D03*
Y110000D03*
Y100000D03*
Y90000D03*
Y80000D03*
Y70000D03*
Y60000D03*
Y50000D03*
Y40000D03*
Y30000D03*
Y20000D03*
Y210000D03*
Y200000D03*
Y190000D03*
G54D33*G36*
X166000Y233000D02*Y227000D01*
X172000D01*
Y233000D01*
X166000D01*
G37*
G54D34*X169000Y220000D03*
Y210000D03*
Y200000D03*
G54D33*G36*
X69600Y215200D02*Y208600D01*
X76200D01*
Y215200D01*
X69600D01*
G37*
G54D37*X72900Y201900D03*
X62900D03*
X52900D03*
X42900D03*
X32900D03*
X62900Y211900D03*
X52900D03*
X42900D03*
X32900D03*
G54D35*X15184Y249784D03*
G54D34*X169000Y190000D03*
Y180000D03*
Y170000D03*
Y160000D03*
Y150000D03*
Y140000D03*
Y130000D03*
Y120000D03*
Y110000D03*
Y100000D03*
Y90000D03*
Y80000D03*
Y70000D03*
G54D33*G36*
X143000Y88000D02*Y82000D01*
X149000D01*
Y88000D01*
X143000D01*
G37*
G54D34*X146000Y65000D03*
X169000Y60000D03*
Y50000D03*
Y40000D03*
Y30000D03*
Y20000D03*
G54D38*X262000Y200181D02*Y197819D01*
X261905Y167181D02*Y164819D01*
X262105Y225981D02*Y223619D01*
X250190Y200181D02*Y197819D01*
X250095Y167181D02*Y164819D01*
X250295Y225981D02*Y223619D01*
X117190Y86181D02*Y83819D01*
X129000Y86181D02*Y83819D01*
X128000Y65181D02*Y62819D01*
X116190Y65181D02*Y62819D01*
X261905Y135181D02*Y132819D01*
X250095Y135181D02*Y132819D01*
G54D39*X193000Y21900D02*X195000D01*
X193000Y24500D02*X195000D01*
X193000Y27000D02*X195000D01*
X200000D02*X202000D01*
X200000Y24500D02*X202000D01*
X200000Y21900D02*X202000D01*
G54D38*X249832Y71345D02*Y68983D01*
X250293Y43514D02*Y41152D01*
X262103Y43514D02*Y41152D01*
X261642Y71345D02*Y68983D01*
G54D40*X270400Y268100D03*
X269600Y94700D03*
G54D41*X244000Y128000D03*
X238000D03*
X215600Y238600D03*
G54D40*X54700Y95400D03*
X96000Y136000D03*
G54D41*X69000Y90500D03*
X79100Y90300D03*
X87400Y98500D03*
X102900Y107200D03*
X79100Y83300D03*
X69000D03*
X79100Y72500D03*
X58200Y73000D03*
G54D40*X13000Y136000D03*
G54D41*X27000Y165600D03*
X26900Y159100D03*
Y145300D03*
X116200Y149200D03*
X80800Y189000D03*
X52700Y186900D03*
X68800Y177200D03*
X116100Y43500D03*
Y35500D03*
X108600Y92600D03*
G54D42*X186600Y18600D03*
G54D41*X185900Y105700D03*
Y95900D03*
X221600Y23900D03*
G54D42*X205200Y86700D03*
X217000Y113400D03*
X197700Y127300D03*
X201500Y129100D03*
G54D41*X99000Y27100D03*
X156900Y48400D03*
X136500Y129200D03*
X145200Y103100D03*
X141100Y94600D03*
G54D42*X186700Y24500D03*
X186600Y30500D03*
G54D41*X161400Y43500D03*
X156600Y34200D03*
X161400D03*
G54D40*X54200Y267500D03*
G54D41*X71800Y263200D03*
X66500Y299200D03*
G54D34*X39000Y335800D03*
Y323000D03*
Y329200D03*
G54D41*X8200Y311300D03*
X14700Y313600D03*
G54D34*X51900Y335800D03*
Y322900D03*
Y329200D03*
X45300Y335800D03*
Y322900D03*
X45279Y329206D03*
G54D41*X67400Y313800D03*
X164400Y265800D03*
Y254700D03*
X77600Y331400D03*
X72200Y336800D03*
X102700Y311100D03*
X111900Y334500D03*
X76600Y326800D03*
X89200Y313800D03*
G54D43*G54D44*G54D43*G54D44*G54D43*G54D44*G54D45*G54D44*G54D45*G54D44*G54D45*G54D44*G54D43*G54D44*G54D46*G54D47*G54D31*G54D48*G54D31*G54D44*G54D47*G54D49*G54D44*G54D47*G54D46*G54D47*M02*
