G04 start of page 9 for group -4015 idx -4015 *
G04 Title: (unknown), toppaste *
G04 Creator: pcb 20110918 *
G04 CreationDate: Mon 05 May 2014 07:23:22 AM GMT UTC *
G04 For: john *
G04 Format: Gerber/RS-274X *
G04 PCB-Dimensions: 295500 350000 *
G04 PCB-Coordinate-Origin: lower left *
%MOIN*%
%FSLAX25Y25*%
%LNTOPPASTE*%
%ADD80R,0.0980X0.0980*%
%ADD79R,0.0240X0.0240*%
%ADD78R,0.0512X0.0512*%
G54D78*X183900Y273971D02*Y271609D01*
X172090Y273971D02*Y271609D01*
X129119Y339105D02*X131481D01*
X129119Y327295D02*X131481D01*
G54D79*X24029Y336706D02*X30729D01*
X24029Y331706D02*X30729D01*
X24029Y326706D02*X30729D01*
X24029Y321706D02*X30729D01*
X59829D02*X66529D01*
X59829Y326706D02*X66529D01*
X59829Y331706D02*X66529D01*
X59829Y336706D02*X66529D01*
G54D78*X152300Y249081D02*Y246719D01*
X164110Y249081D02*Y246719D01*
X53000Y346381D02*Y344019D01*
X41190Y346381D02*Y344019D01*
X183700Y289481D02*Y287119D01*
X171890Y289481D02*Y287119D01*
X150084Y305512D02*X152446D01*
X150084Y317322D02*X152446D01*
X250095Y200181D02*Y197819D01*
X261905Y200181D02*Y197819D01*
X250380Y167181D02*Y164819D01*
X262190Y167181D02*Y164819D01*
X250095Y135181D02*Y132819D01*
X261905Y135181D02*Y132819D01*
X13000Y63181D02*Y60819D01*
X24810Y63181D02*Y60819D01*
X250295Y225881D02*Y223519D01*
X262105Y225881D02*Y223519D01*
X249876Y71349D02*Y68987D01*
X261686Y71349D02*Y68987D01*
X249989Y43366D02*Y41004D01*
X261799Y43366D02*Y41004D01*
G54D80*X70900Y249700D02*Y249300D01*
X132000Y249700D02*Y249300D01*
M02*
