G04 start of page 5 for group -4063 idx -4063 *
G04 Title: (unknown), componentmask *
G04 Creator: pcb 20110918 *
G04 CreationDate: Mon 05 May 2014 07:23:22 AM GMT UTC *
G04 For: john *
G04 Format: Gerber/RS-274X *
G04 PCB-Dimensions: 295500 350000 *
G04 PCB-Coordinate-Origin: lower left *
%MOIN*%
%FSLAX25Y25*%
%LNTOPMASK*%
%ADD65R,0.1080X0.1080*%
%ADD64R,0.0440X0.0440*%
%ADD63R,0.0572X0.0572*%
%ADD62C,0.0860*%
%ADD61C,0.0690*%
%ADD60C,0.0560*%
%ADD59C,0.0660*%
%ADD58C,0.0001*%
G54D58*G36*
X89700Y44300D02*Y37700D01*
X96300D01*
Y44300D01*
X89700D01*
G37*
G54D59*X83000Y41000D03*
X73000D03*
X63000D03*
X53000D03*
X43000D03*
X33000D03*
X23000D03*
X13000D03*
G54D58*G36*
X9900Y22800D02*Y16200D01*
X16500D01*
Y22800D01*
X9900D01*
G37*
G54D59*X23200Y19500D03*
G54D58*G36*
X125200Y24300D02*Y17700D01*
X131800D01*
Y24300D01*
X125200D01*
G37*
G54D59*X138500Y21000D03*
G54D60*X207355Y317292D03*
X195555D03*
G54D61*Y334292D03*
G54D60*X183755Y317292D03*
X207355Y305492D03*
X183755D03*
X195555D03*
G54D58*G36*
X12384Y282584D02*Y276984D01*
X17984D01*
Y282584D01*
X12384D01*
G37*
G36*
X271500Y228200D02*Y221600D01*
X278100D01*
Y228200D01*
X271500D01*
G37*
G54D59*X284800Y224900D03*
G54D58*G36*
X225700Y233300D02*Y226700D01*
X232300D01*
Y233300D01*
X225700D01*
G37*
G54D59*X229000Y220000D03*
G54D58*G36*
X271700Y202300D02*Y195700D01*
X278300D01*
Y202300D01*
X271700D01*
G37*
G36*
Y137300D02*Y130700D01*
X278300D01*
Y137300D01*
X271700D01*
G37*
G36*
X271892Y73296D02*Y66696D01*
X278492D01*
Y73296D01*
X271892D01*
G37*
G36*
Y45129D02*Y38529D01*
X278492D01*
Y45129D01*
X271892D01*
G37*
G54D59*X285000Y199000D03*
Y134000D03*
X285192Y69996D03*
Y41829D03*
G54D58*G36*
X271700Y169300D02*Y162700D01*
X278300D01*
Y169300D01*
X271700D01*
G37*
G54D59*X285000Y166000D03*
X229000Y180000D03*
Y170000D03*
Y160000D03*
Y150000D03*
Y140000D03*
Y130000D03*
Y120000D03*
Y110000D03*
Y100000D03*
Y90000D03*
Y80000D03*
Y70000D03*
Y60000D03*
Y50000D03*
Y40000D03*
Y30000D03*
Y20000D03*
Y210000D03*
Y200000D03*
Y190000D03*
G54D58*G36*
X165700Y233300D02*Y226700D01*
X172300D01*
Y233300D01*
X165700D01*
G37*
G54D59*X169000Y220000D03*
Y210000D03*
Y200000D03*
G54D58*G36*
X68600Y216200D02*Y207600D01*
X77200D01*
Y216200D01*
X68600D01*
G37*
G54D62*X72900Y201900D03*
X62900D03*
X52900D03*
X42900D03*
X32900D03*
X62900Y211900D03*
X52900D03*
X42900D03*
X32900D03*
G54D60*X15184Y249784D03*
G54D59*X169000Y190000D03*
Y180000D03*
Y170000D03*
Y160000D03*
Y150000D03*
Y140000D03*
Y130000D03*
Y120000D03*
Y110000D03*
Y100000D03*
Y90000D03*
Y80000D03*
Y70000D03*
G54D58*G36*
X142700Y88300D02*Y81700D01*
X149300D01*
Y88300D01*
X142700D01*
G37*
G54D59*X146000Y65000D03*
X169000Y60000D03*
Y50000D03*
Y40000D03*
Y30000D03*
Y20000D03*
G54D63*X183900Y273971D02*Y271609D01*
X172090Y273971D02*Y271609D01*
X183700Y289481D02*Y287119D01*
X171890Y289481D02*Y287119D01*
X152300Y249081D02*Y246719D01*
X164110Y249081D02*Y246719D01*
X261905Y200181D02*Y197819D01*
X262190Y167181D02*Y164819D01*
X262105Y225881D02*Y223519D01*
X250380Y167181D02*Y164819D01*
X250095Y200181D02*Y197819D01*
X250295Y225881D02*Y223519D01*
X13000Y63181D02*Y60819D01*
X24810Y63181D02*Y60819D01*
G54D64*X24029Y336706D02*X30729D01*
X24029Y331706D02*X30729D01*
X24029Y326706D02*X30729D01*
X24029Y321706D02*X30729D01*
X59829D02*X66529D01*
X59829Y326706D02*X66529D01*
X59829Y331706D02*X66529D01*
X59829Y336706D02*X66529D01*
G54D63*X53000Y346381D02*Y344019D01*
X41190Y346381D02*Y344019D01*
X129119Y339105D02*X131481D01*
X129119Y327295D02*X131481D01*
X150084Y305512D02*X152446D01*
X150084Y317322D02*X152446D01*
G54D65*X70900Y249700D02*Y249300D01*
X132000Y249700D02*Y249300D01*
G54D63*X261905Y135181D02*Y132819D01*
X250095Y135181D02*Y132819D01*
X249876Y71349D02*Y68987D01*
X249989Y43366D02*Y41004D01*
X261686Y71349D02*Y68987D01*
X261799Y43366D02*Y41004D01*
M02*
