G04 start of page 7 for group -4079 idx -4079 *
G04 Title: (unknown), topsilk *
G04 Creator: pcb 20110918 *
G04 CreationDate: Mon 05 May 2014 07:23:22 AM GMT UTC *
G04 For: john *
G04 Format: Gerber/RS-274X *
G04 PCB-Dimensions: 295500 350000 *
G04 PCB-Coordinate-Origin: lower left *
%MOIN*%
%FSLAX25Y25*%
%LNTOPSILK*%
%ADD75C,0.0200*%
%ADD74C,0.0080*%
%ADD73C,0.0100*%
G54D73*X288500Y302100D02*Y300100D01*
Y302100D02*X289000Y302600D01*
X290000D01*
X290500Y302100D02*X290000Y302600D01*
X290500Y302100D02*Y300600D01*
X288500D02*X292500D01*
X290500Y301400D02*X292500Y302600D01*
X288500Y303800D02*X292500D01*
X288500D02*X290500Y305300D01*
X288500Y306800D01*
X292500D01*
Y310000D02*Y308700D01*
X291800Y308000D02*X292500Y308700D01*
X289200Y308000D02*X291800D01*
X289200D02*X288500Y308700D01*
Y310000D02*Y308700D01*
Y315000D02*X289000Y315500D01*
X288500Y315000D02*Y313500D01*
X289000Y313000D02*X288500Y313500D01*
X289000Y313000D02*X290000D01*
X290500Y313500D01*
Y315000D02*Y313500D01*
Y315000D02*X291000Y315500D01*
X292000D01*
X292500Y315000D02*X292000Y315500D01*
X292500Y315000D02*Y313500D01*
X292000Y313000D02*X292500Y313500D01*
X289500Y316700D02*X289600D01*
X291000D02*X292500D01*
X290500Y319200D02*X291000Y319700D01*
X290500Y319200D02*Y318200D01*
X291000Y317700D02*X290500Y318200D01*
X291000Y317700D02*X292000D01*
X292500Y318200D01*
Y319200D02*Y318200D01*
Y319200D02*X292000Y319700D01*
X293500Y317700D02*X294000Y318200D01*
Y319200D02*Y318200D01*
Y319200D02*X293500Y319700D01*
X290500D02*X293500D01*
X288500Y320900D02*X292500D01*
X288500D02*X290500Y322400D01*
X288500Y323900D01*
X292500D01*
X290500Y325100D02*X292000D01*
X292500Y325600D01*
Y326600D02*Y325600D01*
Y326600D02*X292000Y327100D01*
X290500D02*X292000D01*
X290500Y328300D02*X292500Y330300D01*
Y328300D02*X290500Y330300D01*
X281400Y302100D02*Y300100D01*
Y302100D02*X281900Y302600D01*
X282900D01*
X283400Y302100D02*X282900Y302600D01*
X283400Y302100D02*Y300600D01*
X281400D02*X285400D01*
X283400Y301400D02*X285400Y302600D01*
Y305800D02*Y304300D01*
X284900Y303800D02*X285400Y304300D01*
X283900Y303800D02*X284900D01*
X283900D02*X283400Y304300D01*
Y305300D02*Y304300D01*
Y305300D02*X283900Y305800D01*
X284400D02*Y303800D01*
X283900Y305800D02*X284400D01*
X283400Y307000D02*X285400Y308000D01*
X283400Y309000D02*X285400Y308000D01*
Y310700D02*Y310200D01*
X282200Y313700D02*X281400Y314500D01*
X285400D01*
Y315200D02*Y313700D01*
Y316900D02*Y316400D01*
X281900Y318100D02*X281400Y318600D01*
Y320100D02*Y318600D01*
Y320100D02*X281900Y320600D01*
X282900D01*
X285400Y318100D02*X282900Y320600D01*
X285400D02*Y318100D01*
Y322300D02*Y321800D01*
X284900Y323500D02*X285400Y324000D01*
X281900Y323500D02*X284900D01*
X281900D02*X281400Y324000D01*
Y325000D02*Y324000D01*
Y325000D02*X281900Y325500D01*
X284900D01*
X285400Y325000D02*X284900Y325500D01*
X285400Y325000D02*Y324000D01*
X284400Y323500D02*X282400Y325500D01*
X281400Y330500D02*Y328500D01*
X283400D01*
X282900Y329000D01*
Y330000D02*Y329000D01*
Y330000D02*X283400Y330500D01*
X284900D01*
X285400Y330000D02*X284900Y330500D01*
X285400Y330000D02*Y329000D01*
X284900Y328500D02*X285400Y329000D01*
X284900Y331700D02*X281900Y334700D01*
Y335900D02*X281400Y336400D01*
Y337400D02*Y336400D01*
Y337400D02*X281900Y337900D01*
X285400Y337400D02*X284900Y337900D01*
X285400Y337400D02*Y336400D01*
X284900Y335900D02*X285400Y336400D01*
X283200Y337400D02*Y336400D01*
X281900Y337900D02*X282700D01*
X283700D02*X284900D01*
X283700D02*X283200Y337400D01*
X282700Y337900D02*X283200Y337400D01*
X284900Y339100D02*X281900Y342100D01*
X282200Y343300D02*X281400Y344100D01*
X285400D01*
Y344800D02*Y343300D01*
X283900Y346000D02*X281400Y348000D01*
X283900Y348500D02*Y346000D01*
X281400Y348000D02*X285400D01*
X274200Y300100D02*X278200D01*
Y302100D02*Y300100D01*
X274200Y303300D02*X276200Y304300D01*
X274200Y305300D01*
X276200Y304300D02*X278200D01*
X274200Y308500D02*Y306500D01*
Y307500D02*X278200D01*
X275700Y310200D02*Y309700D01*
X276700Y310200D02*Y309700D01*
X274200Y315700D02*Y313200D01*
X278200D02*X274200Y315700D01*
X278200D02*Y313200D01*
X274200Y318400D02*Y317600D01*
Y318400D02*X277700D01*
X278200Y317900D02*X277700Y318400D01*
X278200Y317900D02*Y317400D01*
X277700Y316900D02*X278200Y317400D01*
X277200Y316900D02*X277700D01*
X278200Y321600D02*Y319600D01*
Y321600D02*X277700Y322100D01*
X276500D02*X277700D01*
X276000Y321600D02*X276500Y322100D01*
X276000Y321600D02*Y320100D01*
X274200D02*X278200D01*
X274200Y321600D02*Y319600D01*
Y321600D02*X274700Y322100D01*
X275500D01*
X276000Y321600D02*X275500Y322100D01*
X274700Y323300D02*X277700D01*
X274700D02*X274200Y323800D01*
Y324800D02*Y323800D01*
Y324800D02*X274700Y325300D01*
X277200D01*
X278200Y324300D02*X277200Y325300D01*
X278200Y324300D02*Y323800D01*
X277700Y323300D02*X278200Y323800D01*
X276700Y324300D02*X278200Y325300D01*
X277700Y328300D02*X278200Y328800D01*
X274700Y328300D02*X275700D01*
X274700D02*X274200Y328800D01*
X276700Y328300D02*X275200Y329800D01*
X278200Y329300D02*Y328800D01*
Y329300D02*X277200Y330300D01*
X275700Y328300D02*X278200Y330800D01*
X274200Y329300D02*Y328800D01*
Y329300D02*X274700Y329800D01*
X275200D01*
X276700Y328300D02*X277700D01*
X274200Y335300D02*Y334500D01*
Y335300D02*X277700D01*
X278200Y334800D02*X277700Y335300D01*
X278200Y334800D02*Y334300D01*
X277700Y333800D02*X278200Y334300D01*
X277200Y333800D02*X277700D01*
X274200Y338500D02*Y336500D01*
Y337500D02*X278200D01*
X274200Y341700D02*X274700Y342200D01*
X274200Y341700D02*Y340200D01*
X274700Y339700D02*X274200Y340200D01*
X274700Y339700D02*X275700D01*
X276200Y340200D01*
Y341700D02*Y340200D01*
Y341700D02*X276700Y342200D01*
X277700D01*
X278200Y341700D02*X277700Y342200D01*
X278200Y341700D02*Y340200D01*
X277700Y339700D02*X278200Y340200D01*
X265300Y301000D02*X265800Y301500D01*
X265300Y301000D02*Y299500D01*
X265800Y299000D02*X265300Y299500D01*
X265800Y299000D02*X266800D01*
X267300Y299500D01*
Y301000D02*Y299500D01*
Y301000D02*X267800Y301500D01*
X268800D01*
X269300Y301000D02*X268800Y301500D01*
X269300Y301000D02*Y299500D01*
X268800Y299000D02*X269300Y299500D01*
Y304700D02*Y303400D01*
X268600Y302700D02*X269300Y303400D01*
X266000Y302700D02*X268600D01*
X266000D02*X265300Y303400D01*
Y304700D02*Y303400D01*
Y305900D02*X269300D01*
X265300Y308400D02*X269300D01*
X267300D02*Y305900D01*
X266800Y310100D02*Y309600D01*
X267800Y310100D02*Y309600D01*
X265300Y314600D02*Y313800D01*
Y314600D02*X268800D01*
X269300Y314100D02*X268800Y314600D01*
X269300Y314100D02*Y313600D01*
X268800Y313100D02*X269300Y313600D01*
X268300Y313100D02*X268800D01*
X265300Y317800D02*Y315800D01*
Y316800D02*X269300D01*
X265300Y321000D02*X265800Y321500D01*
X265300Y321000D02*Y319500D01*
X265800Y319000D02*X265300Y319500D01*
X265800Y319000D02*X266800D01*
X267300Y319500D01*
Y321000D02*Y319500D01*
Y321000D02*X267800Y321500D01*
X268800D01*
X269300Y321000D02*X268800Y321500D01*
X269300Y321000D02*Y319500D01*
X268800Y319000D02*X269300Y319500D01*
X250000Y178000D02*Y176000D01*
X250500Y174000D01*
X251500Y176000D01*
X252500Y174000D01*
X253000Y176000D01*
Y178000D02*Y176000D01*
X254200Y178000D02*Y174000D01*
X256200D01*
X257400Y177000D02*Y174000D01*
Y177000D02*X258100Y178000D01*
X259200D01*
X259900Y177000D01*
Y174000D01*
X257400Y176000D02*X259900D01*
X261100Y178000D02*Y174000D01*
Y178000D02*X263600Y174000D01*
Y178000D02*Y174000D01*
X266600Y176200D02*X268100D01*
X266600Y174000D02*X268600D01*
X266600Y178000D02*Y174000D01*
Y178000D02*X268600D01*
X270300Y175500D02*Y174000D01*
Y175500D02*X270800Y176000D01*
X271300D01*
X271800Y175500D01*
Y174000D01*
X269800Y176000D02*X270300Y175500D01*
X274500Y176000D02*X275000Y175500D01*
X273500Y176000D02*X274500D01*
X273000Y175500D02*X273500Y176000D01*
X273000Y175500D02*Y174500D01*
X273500Y174000D01*
X275000Y176000D02*Y174500D01*
X275500Y174000D01*
X273500D02*X274500D01*
X275000Y174500D01*
X276700Y178000D02*Y174000D01*
Y174500D02*X277200Y174000D01*
X278200D01*
X278700Y174500D01*
Y175500D02*Y174500D01*
X278200Y176000D02*X278700Y175500D01*
X277200Y176000D02*X278200D01*
X276700Y175500D02*X277200Y176000D01*
X279900Y178000D02*Y174500D01*
X280400Y174000D01*
X281900D02*X283400D01*
X281400Y174500D02*X281900Y174000D01*
X281400Y175500D02*Y174500D01*
Y175500D02*X281900Y176000D01*
X282900D01*
X283400Y175500D01*
X281400Y175000D02*X283400D01*
Y175500D02*Y175000D01*
X286600Y178000D02*Y174000D01*
X286100D02*X286600Y174500D01*
X285100Y174000D02*X286100D01*
X284600Y174500D02*X285100Y174000D01*
X284600Y175500D02*Y174500D01*
Y175500D02*X285100Y176000D01*
X286100D01*
X286600Y175500D01*
X249500Y211400D02*Y207400D01*
X250800Y211400D02*X251500Y210700D01*
Y208100D01*
X250800Y207400D02*X251500Y208100D01*
X249000Y207400D02*X250800D01*
X249000Y211400D02*X250800D01*
X252700D02*Y207400D01*
X255200Y211400D02*Y207400D01*
X252700Y209400D02*X255200D01*
X257100Y207400D02*X258400D01*
X256400Y208100D02*X257100Y207400D01*
X256400Y210700D02*Y208100D01*
Y210700D02*X257100Y211400D01*
X258400D01*
X260100D02*Y207400D01*
X259600Y211400D02*X261600D01*
X262100Y210900D01*
Y209900D01*
X261600Y209400D02*X262100Y209900D01*
X260100Y209400D02*X261600D01*
X265800Y207400D02*X267100D01*
X265100Y208100D02*X265800Y207400D01*
X265100Y210700D02*Y208100D01*
Y210700D02*X265800Y211400D01*
X267100D01*
X268300Y208900D02*Y207900D01*
Y208900D02*X268800Y209400D01*
X269800D01*
X270300Y208900D01*
Y207900D01*
X269800Y207400D02*X270300Y207900D01*
X268800Y207400D02*X269800D01*
X268300Y207900D02*X268800Y207400D01*
X272000Y208900D02*Y207400D01*
Y208900D02*X272500Y209400D01*
X273000D01*
X273500Y208900D01*
Y207400D01*
Y208900D02*X274000Y209400D01*
X274500D01*
X275000Y208900D01*
Y207400D01*
X271500Y209400D02*X272000Y208900D01*
X276700D02*Y205900D01*
X276200Y209400D02*X276700Y208900D01*
X277200Y209400D01*
X278200D01*
X278700Y208900D01*
Y207900D01*
X278200Y207400D02*X278700Y207900D01*
X277200Y207400D02*X278200D01*
X276700Y207900D02*X277200Y207400D01*
X279900Y211400D02*Y207900D01*
X280400Y207400D01*
X281900D02*X283400D01*
X281400Y207900D02*X281900Y207400D01*
X281400Y208900D02*Y207900D01*
Y208900D02*X281900Y209400D01*
X282900D01*
X283400Y208900D01*
X281400Y208400D02*X283400D01*
Y208900D02*Y208400D01*
X285100Y211400D02*Y207900D01*
X285600Y207400D01*
X284600Y209900D02*X285600D01*
X287100Y207400D02*X288600D01*
X286600Y207900D02*X287100Y207400D01*
X286600Y208900D02*Y207900D01*
Y208900D02*X287100Y209400D01*
X288100D01*
X288600Y208900D01*
X286600Y208400D02*X288600D01*
Y208900D02*Y208400D01*
X259600Y237500D02*Y233500D01*
X259100Y237500D02*X261100D01*
X261600Y237000D01*
Y236000D01*
X261100Y235500D02*X261600Y236000D01*
X259600Y235500D02*X261100D01*
X262800Y235000D02*Y234000D01*
Y235000D02*X263300Y235500D01*
X264300D01*
X264800Y235000D01*
Y234000D01*
X264300Y233500D02*X264800Y234000D01*
X263300Y233500D02*X264300D01*
X262800Y234000D02*X263300Y233500D01*
X266000Y235500D02*Y234000D01*
X266500Y233500D01*
X267000D01*
X267500Y234000D01*
Y235500D02*Y234000D01*
X268000Y233500D01*
X268500D01*
X269000Y234000D01*
Y235500D02*Y234000D01*
X270700Y233500D02*X272200D01*
X270200Y234000D02*X270700Y233500D01*
X270200Y235000D02*Y234000D01*
Y235000D02*X270700Y235500D01*
X271700D01*
X272200Y235000D01*
X270200Y234500D02*X272200D01*
Y235000D02*Y234500D01*
X273900Y235000D02*Y233500D01*
Y235000D02*X274400Y235500D01*
X275400D01*
X273400D02*X273900Y235000D01*
X7200Y1300D02*X8500D01*
X6500Y2000D02*X7200Y1300D01*
X6500Y4600D02*Y2000D01*
Y4600D02*X7200Y5300D01*
X8500D01*
X10400Y1300D02*X11700D01*
X9700Y2000D02*X10400Y1300D01*
X9700Y4600D02*Y2000D01*
Y4600D02*X10400Y5300D01*
X11700D01*
X12900Y4800D02*X13400Y5300D01*
X14400D01*
X14900Y4800D01*
X14400Y1300D02*X14900Y1800D01*
X13400Y1300D02*X14400D01*
X12900Y1800D02*X13400Y1300D01*
Y3500D02*X14400D01*
X14900Y4800D02*Y4000D01*
Y3000D02*Y1800D01*
Y3000D02*X14400Y3500D01*
X14900Y4000D02*X14400Y3500D01*
X16100Y1800D02*X16600Y1300D01*
X16100Y4800D02*Y1800D01*
Y4800D02*X16600Y5300D01*
X17600D01*
X18100Y4800D01*
Y1800D01*
X17600Y1300D02*X18100Y1800D01*
X16600Y1300D02*X17600D01*
X16100Y2300D02*X18100Y4300D01*
X19300Y1800D02*X19800Y1300D01*
X19300Y4800D02*Y1800D01*
Y4800D02*X19800Y5300D01*
X20800D01*
X21300Y4800D01*
Y1800D01*
X20800Y1300D02*X21300Y1800D01*
X19800Y1300D02*X20800D01*
X19300Y2300D02*X21300Y4300D01*
X22500Y1800D02*X23000Y1300D01*
X22500Y4800D02*Y1800D01*
Y4800D02*X23000Y5300D01*
X24000D01*
X24500Y4800D01*
Y1800D01*
X24000Y1300D02*X24500Y1800D01*
X23000Y1300D02*X24000D01*
X22500Y2300D02*X24500Y4300D01*
X29500Y5300D02*X30000Y4800D01*
X28000Y5300D02*X29500D01*
X27500Y4800D02*X28000Y5300D01*
X27500Y4800D02*Y1800D01*
X28000Y1300D01*
X29500D01*
X30000Y1800D01*
Y2800D02*Y1800D01*
X29500Y3300D02*X30000Y2800D01*
X28500Y3300D02*X29500D01*
X31200Y5300D02*Y1300D01*
Y5300D02*X33700Y1300D01*
Y5300D02*Y1300D01*
X35400Y5300D02*Y1300D01*
X36700Y5300D02*X37400Y4600D01*
Y2000D01*
X36700Y1300D02*X37400Y2000D01*
X34900Y1300D02*X36700D01*
X34900Y5300D02*X36700D01*
X41100Y1300D02*X42400D01*
X40400Y2000D02*X41100Y1300D01*
X40400Y4600D02*Y2000D01*
Y4600D02*X41100Y5300D01*
X42400D01*
X43600Y2800D02*Y1800D01*
Y2800D02*X44100Y3300D01*
X45100D01*
X45600Y2800D01*
Y1800D01*
X45100Y1300D02*X45600Y1800D01*
X44100Y1300D02*X45100D01*
X43600Y1800D02*X44100Y1300D01*
X47300Y2800D02*Y1300D01*
Y2800D02*X47800Y3300D01*
X48300D01*
X48800Y2800D01*
Y1300D01*
X46800Y3300D02*X47300Y2800D01*
X50500D02*Y1300D01*
Y2800D02*X51000Y3300D01*
X51500D01*
X52000Y2800D01*
Y1300D01*
X50000Y3300D02*X50500Y2800D01*
X53700Y1300D02*X55200D01*
X53200Y1800D02*X53700Y1300D01*
X53200Y2800D02*Y1800D01*
Y2800D02*X53700Y3300D01*
X54700D01*
X55200Y2800D01*
X53200Y2300D02*X55200D01*
Y2800D02*Y2300D01*
X56900Y3300D02*X58400D01*
X56400Y2800D02*X56900Y3300D01*
X56400Y2800D02*Y1800D01*
X56900Y1300D01*
X58400D01*
X60100Y5300D02*Y1800D01*
X60600Y1300D01*
X59600Y3800D02*X60600D01*
X61600Y4300D02*Y4200D01*
Y2800D02*Y1300D01*
X62600Y2800D02*Y1800D01*
Y2800D02*X63100Y3300D01*
X64100D01*
X64600Y2800D01*
Y1800D01*
X64100Y1300D02*X64600Y1800D01*
X63100Y1300D02*X64100D01*
X62600Y1800D02*X63100Y1300D01*
X66300Y2800D02*Y1300D01*
Y2800D02*X66800Y3300D01*
X67300D01*
X67800Y2800D01*
Y1300D01*
X65800Y3300D02*X66300Y2800D01*
X250300Y51800D02*X250800Y51300D01*
X248800Y51800D02*X250300D01*
X248300Y51300D02*X248800Y51800D01*
X248300Y51300D02*Y50300D01*
X248800Y49800D01*
X250300D01*
X250800Y49300D01*
Y48300D01*
X250300Y47800D02*X250800Y48300D01*
X248800Y47800D02*X250300D01*
X248300Y48300D02*X248800Y47800D01*
X252500Y51800D02*Y48300D01*
X253000Y47800D01*
X252000Y50300D02*X253000D01*
X255500Y49800D02*X256000Y49300D01*
X254500Y49800D02*X255500D01*
X254000Y49300D02*X254500Y49800D01*
X254000Y49300D02*Y48300D01*
X254500Y47800D01*
X256000Y49800D02*Y48300D01*
X256500Y47800D01*
X254500D02*X255500D01*
X256000Y48300D01*
X258200Y51800D02*Y48300D01*
X258700Y47800D01*
X257700Y50300D02*X258700D01*
X259700Y49800D02*Y48300D01*
X260200Y47800D01*
X261200D01*
X261700Y48300D01*
Y49800D02*Y48300D01*
X263400Y47800D02*X264900D01*
X265400Y48300D01*
X264900Y48800D02*X265400Y48300D01*
X263400Y48800D02*X264900D01*
X262900Y49300D02*X263400Y48800D01*
X262900Y49300D02*X263400Y49800D01*
X264900D01*
X265400Y49300D01*
X262900Y48300D02*X263400Y47800D01*
X268400Y51000D02*X269200Y51800D01*
Y47800D01*
X268400D02*X269900D01*
X249500Y79000D02*X250000Y78500D01*
X248000Y79000D02*X249500D01*
X247500Y78500D02*X248000Y79000D01*
X247500Y78500D02*Y77500D01*
X248000Y77000D01*
X249500D01*
X250000Y76500D01*
Y75500D01*
X249500Y75000D02*X250000Y75500D01*
X248000Y75000D02*X249500D01*
X247500Y75500D02*X248000Y75000D01*
X251700Y79000D02*Y75500D01*
X252200Y75000D01*
X251200Y77500D02*X252200D01*
X254700Y77000D02*X255200Y76500D01*
X253700Y77000D02*X254700D01*
X253200Y76500D02*X253700Y77000D01*
X253200Y76500D02*Y75500D01*
X253700Y75000D01*
X255200Y77000D02*Y75500D01*
X255700Y75000D01*
X253700D02*X254700D01*
X255200Y75500D01*
X257400Y79000D02*Y75500D01*
X257900Y75000D01*
X256900Y77500D02*X257900D01*
X258900Y77000D02*Y75500D01*
X259400Y75000D01*
X260400D01*
X260900Y75500D01*
Y77000D02*Y75500D01*
X262600Y75000D02*X264100D01*
X264600Y75500D01*
X264100Y76000D02*X264600Y75500D01*
X262600Y76000D02*X264100D01*
X262100Y76500D02*X262600Y76000D01*
X262100Y76500D02*X262600Y77000D01*
X264100D01*
X264600Y76500D01*
X262100Y75500D02*X262600Y75000D01*
X267600Y78500D02*X268100Y79000D01*
X269600D01*
X270100Y78500D01*
Y77500D01*
X267600Y75000D02*X270100Y77500D01*
X267600Y75000D02*X270100D01*
X249900Y145200D02*X250400Y144700D01*
X248400Y145200D02*X249900D01*
X247900Y144700D02*X248400Y145200D01*
X247900Y144700D02*Y143700D01*
X248400Y143200D01*
X249900D01*
X250400Y142700D01*
Y141700D01*
X249900Y141200D02*X250400Y141700D01*
X248400Y141200D02*X249900D01*
X247900Y141700D02*X248400Y141200D01*
X252100Y145200D02*Y141700D01*
X252600Y141200D01*
X251600Y143700D02*X252600D01*
X255100Y143200D02*X255600Y142700D01*
X254100Y143200D02*X255100D01*
X253600Y142700D02*X254100Y143200D01*
X253600Y142700D02*Y141700D01*
X254100Y141200D01*
X255600Y143200D02*Y141700D01*
X256100Y141200D01*
X254100D02*X255100D01*
X255600Y141700D01*
X257800Y145200D02*Y141700D01*
X258300Y141200D01*
X257300Y143700D02*X258300D01*
X259300Y143200D02*Y141700D01*
X259800Y141200D01*
X260800D01*
X261300Y141700D01*
Y143200D02*Y141700D01*
X263000Y141200D02*X264500D01*
X265000Y141700D01*
X264500Y142200D02*X265000Y141700D01*
X263000Y142200D02*X264500D01*
X262500Y142700D02*X263000Y142200D01*
X262500Y142700D02*X263000Y143200D01*
X264500D01*
X265000Y142700D01*
X262500Y141700D02*X263000Y141200D01*
X268000Y141700D02*X268500Y141200D01*
X268000Y144700D02*Y141700D01*
Y144700D02*X268500Y145200D01*
X269500D01*
X270000Y144700D01*
Y141700D01*
X269500Y141200D02*X270000Y141700D01*
X268500Y141200D02*X269500D01*
X268000Y142200D02*X270000Y144200D01*
G54D74*X175633Y269050D02*X180357D01*
X175633Y276530D02*X180357D01*
G54D73*X170655Y349892D02*X220555D01*
X170655D02*Y301692D01*
X220555Y349892D02*Y301692D01*
X170655D02*X220455D01*
G54D74*X155843Y251640D02*X160567D01*
X155843Y244160D02*X160567D01*
X175433Y284560D02*X180157D01*
X175433Y292040D02*X180157D01*
X134040Y335562D02*Y330838D01*
X126560Y335562D02*Y330838D01*
G54D73*X33929Y331406D02*Y336456D01*
X37529Y340056D01*
X56629D01*
Y331406D01*
X33929Y327006D02*Y318356D01*
X56629D01*
Y327006D01*
G54D74*X44733Y341460D02*X49457D01*
X44733Y348940D02*X49457D01*
X147525Y313779D02*Y309055D01*
X155005Y313779D02*Y309055D01*
G54D73*X15184Y279784D02*Y269784D01*
Y259784D02*Y249784D01*
Y269784D02*X20184Y259784D01*
X10184D02*X20184D01*
X10184D02*X15184Y269784D01*
X10184D02*X20184D01*
G54D75*X13000Y46000D02*X93000D01*
X13000Y36000D02*X93000D01*
G54D73*X88000Y46000D02*Y36000D01*
G54D75*X93000D02*G75*G03X93000Y46000I0J5000D01*G01*
X13000D02*G75*G03X13000Y36000I0J-5000D01*G01*
X151000Y85000D02*Y65000D01*
X141000Y85000D02*Y65000D01*
G75*G03X151000Y65000I5000J0D01*G01*
Y85000D02*G75*G03X141000Y85000I-5000J0D01*G01*
G54D74*X16543Y65740D02*X21267D01*
X16543Y58260D02*X21267D01*
G54D73*X8200Y24500D02*Y14500D01*
X28200D01*
Y24500D01*
X8200D01*
Y14500D02*X18200D01*
Y24500D01*
X224000Y235000D02*Y15000D01*
X234000D01*
Y235000D01*
X224000D01*
Y225000D02*X234000D01*
Y235000D01*
X164000D02*Y15000D01*
X174000D01*
Y235000D01*
X164000D01*
Y225000D02*X174000D01*
Y235000D01*
X77400Y216900D02*Y196900D01*
X28400D02*X77400D01*
X28400Y216900D02*Y196900D01*
Y216900D02*X77400D01*
X123500Y26000D02*Y16000D01*
X143500D01*
Y26000D01*
X123500D01*
Y16000D02*X133500D01*
Y26000D01*
G54D74*X253638Y137740D02*X258362D01*
X253638Y130260D02*X258362D01*
G54D73*X270000Y139000D02*Y129000D01*
X290000D01*
Y139000D01*
X270000D01*
Y129000D02*X280000D01*
Y139000D01*
G54D74*X253419Y73908D02*X258143D01*
X253419Y66428D02*X258143D01*
X253532Y45925D02*X258256D01*
X253532Y38445D02*X258256D01*
G54D73*X270192Y46829D02*Y36829D01*
X290192D01*
Y46829D01*
X270192D01*
Y36829D02*X280192D01*
Y46829D01*
X270192Y74996D02*Y64996D01*
X290192D01*
Y74996D01*
X270192D01*
Y64996D02*X280192D01*
Y74996D01*
X270000Y204000D02*Y194000D01*
X290000D01*
Y204000D01*
X270000D01*
Y194000D02*X280000D01*
Y204000D01*
X270000Y171000D02*Y161000D01*
X290000D01*
Y171000D01*
X270000D01*
Y161000D02*X280000D01*
Y171000D01*
G54D74*X253923Y169740D02*X258647D01*
X253923Y162260D02*X258647D01*
X253638Y202740D02*X258362D01*
X253638Y195260D02*X258362D01*
G54D73*X269800Y229900D02*Y219900D01*
X289800D01*
Y229900D02*Y219900D01*
X269800Y229900D02*X289800D01*
X269800Y219900D02*X279800D01*
Y229900D02*Y219900D01*
G54D74*X253838Y228440D02*X258562D01*
X253838Y220960D02*X258562D01*
G54D73*X67800Y33100D02*X68600D01*
Y29600D01*
X68100Y29100D02*X68600Y29600D01*
X67600Y29100D02*X68100D01*
X67100Y29600D02*X67600Y29100D01*
X67100Y30100D02*Y29600D01*
X69800Y32300D02*X70600Y33100D01*
Y29100D01*
X69800D02*X71300D01*
X72500Y29600D02*X73000Y29100D01*
X72500Y32600D02*Y29600D01*
Y32600D02*X73000Y33100D01*
X74000D01*
X74500Y32600D01*
Y29600D01*
X74000Y29100D02*X74500Y29600D01*
X73000Y29100D02*X74000D01*
X72500Y30100D02*X74500Y32100D01*
X75700Y32300D02*X76500Y33100D01*
Y29100D01*
X75700D02*X77200D01*
X12850Y72150D02*X14850D01*
X15350Y71650D01*
Y70650D01*
X14850Y70150D02*X15350Y70650D01*
X13350Y70150D02*X14850D01*
X13350Y72150D02*Y68150D01*
X14150Y70150D02*X15350Y68150D01*
X16550Y71350D02*X17350Y72150D01*
Y68150D01*
X16550D02*X18050D01*
X19250Y68650D02*X19750Y68150D01*
X19250Y71650D02*Y68650D01*
Y71650D02*X19750Y72150D01*
X20750D01*
X21250Y71650D01*
Y68650D01*
X20750Y68150D02*X21250Y68650D01*
X19750Y68150D02*X20750D01*
X19250Y69150D02*X21250Y71150D01*
X22450Y71350D02*X23250Y72150D01*
Y68150D01*
X22450D02*X23950D01*
X9200Y7900D02*X10500D01*
X8500Y8600D02*X9200Y7900D01*
X8500Y11200D02*Y8600D01*
Y11200D02*X9200Y11900D01*
X10500D01*
X11700Y11400D02*Y8400D01*
Y11400D02*X12200Y11900D01*
X13200D01*
X13700Y11400D01*
Y8400D01*
X13200Y7900D02*X13700Y8400D01*
X12200Y7900D02*X13200D01*
X11700Y8400D02*X12200Y7900D01*
X14900Y11900D02*Y7900D01*
Y11900D02*X17400Y7900D01*
Y11900D02*Y7900D01*
X18600Y11900D02*Y7900D01*
Y11900D02*X21100Y7900D01*
Y11900D02*Y7900D01*
X22300Y11100D02*X23100Y11900D01*
Y7900D01*
X22300D02*X23800D01*
X25000Y8400D02*X25500Y7900D01*
X25000Y11400D02*Y8400D01*
Y11400D02*X25500Y11900D01*
X26500D01*
X27000Y11400D01*
Y8400D01*
X26500Y7900D02*X27000Y8400D01*
X25500Y7900D02*X26500D01*
X25000Y8900D02*X27000Y10900D01*
X29700Y11900D02*X30200Y11400D01*
X28700Y11900D02*X29700D01*
X28200Y11400D02*X28700Y11900D01*
X28200Y11400D02*Y8400D01*
X28700Y7900D01*
X29700Y10100D02*X30200Y9600D01*
X28200Y10100D02*X29700D01*
X28700Y7900D02*X29700D01*
X30200Y8400D01*
Y9600D02*Y8400D01*
X271700Y187000D02*X273000D01*
X271000Y187700D02*X271700Y187000D01*
X271000Y190300D02*Y187700D01*
Y190300D02*X271700Y191000D01*
X273000D01*
X274200Y190500D02*Y187500D01*
Y190500D02*X274700Y191000D01*
X275700D01*
X276200Y190500D01*
Y187500D01*
X275700Y187000D02*X276200Y187500D01*
X274700Y187000D02*X275700D01*
X274200Y187500D02*X274700Y187000D01*
X277400Y191000D02*Y187000D01*
Y191000D02*X279900Y187000D01*
Y191000D02*Y187000D01*
X281100Y191000D02*Y187000D01*
Y191000D02*X283600Y187000D01*
Y191000D02*Y187000D01*
X284800Y190200D02*X285600Y191000D01*
Y187000D01*
X284800D02*X286300D01*
X287500Y187500D02*X288000Y187000D01*
X287500Y190500D02*Y187500D01*
Y190500D02*X288000Y191000D01*
X289000D01*
X289500Y190500D01*
Y187500D01*
X289000Y187000D02*X289500Y187500D01*
X288000Y187000D02*X289000D01*
X287500Y188000D02*X289500Y190000D01*
X290700Y187500D02*X291200Y187000D01*
X290700Y188300D02*Y187500D01*
Y188300D02*X291400Y189000D01*
X292000D01*
X292700Y188300D01*
Y187500D01*
X292200Y187000D02*X292700Y187500D01*
X291200Y187000D02*X292200D01*
X290700Y189700D02*X291400Y189000D01*
X290700Y190500D02*Y189700D01*
Y190500D02*X291200Y191000D01*
X292200D01*
X292700Y190500D01*
Y189700D01*
X292000Y189000D02*X292700Y189700D01*
X247660Y192150D02*Y188150D01*
X249660D01*
X250860Y190350D02*X252360D01*
X250860Y188150D02*X252860D01*
X250860Y192150D02*Y188150D01*
Y192150D02*X252860D01*
X254560D02*Y188150D01*
X255860Y192150D02*X256560Y191450D01*
Y188850D01*
X255860Y188150D02*X256560Y188850D01*
X254060Y188150D02*X255860D01*
X254060Y192150D02*X255860D01*
X257760Y191350D02*X258560Y192150D01*
Y188150D01*
X257760D02*X259260D01*
X260460Y188650D02*X260960Y188150D01*
X260460Y191650D02*Y188650D01*
Y191650D02*X260960Y192150D01*
X261960D01*
X262460Y191650D01*
Y188650D01*
X261960Y188150D02*X262460Y188650D01*
X260960Y188150D02*X261960D01*
X260460Y189150D02*X262460Y191150D01*
X263660Y191350D02*X264460Y192150D01*
Y188150D01*
X263660D02*X265160D01*
X271700Y154000D02*X273000D01*
X271000Y154700D02*X271700Y154000D01*
X271000Y157300D02*Y154700D01*
Y157300D02*X271700Y158000D01*
X273000D01*
X274200Y157500D02*Y154500D01*
Y157500D02*X274700Y158000D01*
X275700D01*
X276200Y157500D01*
Y154500D01*
X275700Y154000D02*X276200Y154500D01*
X274700Y154000D02*X275700D01*
X274200Y154500D02*X274700Y154000D01*
X277400Y158000D02*Y154000D01*
Y158000D02*X279900Y154000D01*
Y158000D02*Y154000D01*
X281100Y158000D02*Y154000D01*
Y158000D02*X283600Y154000D01*
Y158000D02*Y154000D01*
X284800Y157200D02*X285600Y158000D01*
Y154000D01*
X284800D02*X286300D01*
X287500Y154500D02*X288000Y154000D01*
X287500Y157500D02*Y154500D01*
Y157500D02*X288000Y158000D01*
X289000D01*
X289500Y157500D01*
Y154500D01*
X289000Y154000D02*X289500Y154500D01*
X288000Y154000D02*X289000D01*
X287500Y155000D02*X289500Y157000D01*
X291200Y154000D02*X293200Y158000D01*
X290700D02*X293200D01*
X248135Y159150D02*Y155150D01*
X250135D01*
X251335Y157350D02*X252835D01*
X251335Y155150D02*X253335D01*
X251335Y159150D02*Y155150D01*
Y159150D02*X253335D01*
X255035D02*Y155150D01*
X256335Y159150D02*X257035Y158450D01*
Y155850D01*
X256335Y155150D02*X257035Y155850D01*
X254535Y155150D02*X256335D01*
X254535Y159150D02*X256335D01*
X258235Y158350D02*X259035Y159150D01*
Y155150D01*
X258235D02*X259735D01*
X260935Y155650D02*X261435Y155150D01*
X260935Y158650D02*Y155650D01*
Y158650D02*X261435Y159150D01*
X262435D01*
X262935Y158650D01*
Y155650D01*
X262435Y155150D02*X262935Y155650D01*
X261435Y155150D02*X262435D01*
X260935Y156150D02*X262935Y158150D01*
X264135Y158650D02*X264635Y159150D01*
X266135D01*
X266635Y158650D01*
Y157650D01*
X264135Y155150D02*X266635Y157650D01*
X264135Y155150D02*X266635D01*
X248280Y127150D02*Y123150D01*
X250280D01*
X251480Y125350D02*X252980D01*
X251480Y123150D02*X253480D01*
X251480Y127150D02*Y123150D01*
Y127150D02*X253480D01*
X255180D02*Y123150D01*
X256480Y127150D02*X257180Y126450D01*
Y123850D01*
X256480Y123150D02*X257180Y123850D01*
X254680Y123150D02*X256480D01*
X254680Y127150D02*X256480D01*
X258380Y126350D02*X259180Y127150D01*
Y123150D01*
X258380D02*X259880D01*
X261080Y123650D02*X261580Y123150D01*
X261080Y126650D02*Y123650D01*
Y126650D02*X261580Y127150D01*
X262580D01*
X263080Y126650D01*
Y123650D01*
X262580Y123150D02*X263080Y123650D01*
X261580Y123150D02*X262580D01*
X261080Y124150D02*X263080Y126150D01*
X264280Y124650D02*X266280Y127150D01*
X264280Y124650D02*X266780D01*
X266280Y127150D02*Y123150D01*
X271700Y121000D02*X273000D01*
X271000Y121700D02*X271700Y121000D01*
X271000Y124300D02*Y121700D01*
Y124300D02*X271700Y125000D01*
X273000D01*
X274200Y124500D02*Y121500D01*
Y124500D02*X274700Y125000D01*
X275700D01*
X276200Y124500D01*
Y121500D01*
X275700Y121000D02*X276200Y121500D01*
X274700Y121000D02*X275700D01*
X274200Y121500D02*X274700Y121000D01*
X277400Y125000D02*Y121000D01*
Y125000D02*X279900Y121000D01*
Y125000D02*Y121000D01*
X281100Y125000D02*Y121000D01*
Y125000D02*X283600Y121000D01*
Y125000D02*Y121000D01*
X284800Y124200D02*X285600Y125000D01*
Y121000D01*
X284800D02*X286300D01*
X287500Y124200D02*X288300Y125000D01*
Y121000D01*
X287500D02*X289000D01*
X290200Y121500D02*X290700Y121000D01*
X290200Y124500D02*Y121500D01*
Y124500D02*X290700Y125000D01*
X291700D01*
X292200Y124500D01*
Y121500D01*
X291700Y121000D02*X292200Y121500D01*
X290700Y121000D02*X291700D01*
X290200Y122000D02*X292200Y124000D01*
X141900Y76800D02*Y73300D01*
X142400Y72800D01*
X143400D01*
X143900Y73300D01*
Y76800D02*Y73300D01*
X145100Y76000D02*X145900Y76800D01*
Y72800D01*
X145100D02*X146600D01*
X147800Y73300D02*X148300Y72800D01*
X147800Y76300D02*Y73300D01*
Y76300D02*X148300Y76800D01*
X149300D01*
X149800Y76300D01*
Y73300D01*
X149300Y72800D02*X149800Y73300D01*
X148300Y72800D02*X149300D01*
X147800Y73800D02*X149800Y75800D01*
X151000Y76000D02*X151800Y76800D01*
Y72800D01*
X151000D02*X152500D01*
X124000Y9900D02*X125300D01*
X123300Y10600D02*X124000Y9900D01*
X123300Y13200D02*Y10600D01*
Y13200D02*X124000Y13900D01*
X125300D01*
X126500Y13400D02*Y10400D01*
Y13400D02*X127000Y13900D01*
X128000D01*
X128500Y13400D01*
Y10400D01*
X128000Y9900D02*X128500Y10400D01*
X127000Y9900D02*X128000D01*
X126500Y10400D02*X127000Y9900D01*
X129700Y13900D02*Y9900D01*
Y13900D02*X132200Y9900D01*
Y13900D02*Y9900D01*
X133400Y13900D02*Y9900D01*
Y13900D02*X135900Y9900D01*
Y13900D02*Y9900D01*
X137100Y13100D02*X137900Y13900D01*
Y9900D01*
X137100D02*X138600D01*
X139800Y10400D02*X140300Y9900D01*
X139800Y13400D02*Y10400D01*
Y13400D02*X140300Y13900D01*
X141300D01*
X141800Y13400D01*
Y10400D01*
X141300Y9900D02*X141800Y10400D01*
X140300Y9900D02*X141300D01*
X139800Y10900D02*X141800Y12900D01*
X143000Y13900D02*X145000D01*
X143000D02*Y11900D01*
X143500Y12400D01*
X144500D01*
X145000Y11900D01*
Y10400D01*
X144500Y9900D02*X145000Y10400D01*
X143500Y9900D02*X144500D01*
X143000Y10400D02*X143500Y9900D01*
X248256Y63567D02*Y59567D01*
X250256D01*
X251456Y61767D02*X252956D01*
X251456Y59567D02*X253456D01*
X251456Y63567D02*Y59567D01*
Y63567D02*X253456D01*
X255156D02*Y59567D01*
X256456Y63567D02*X257156Y62867D01*
Y60267D01*
X256456Y59567D02*X257156Y60267D01*
X254656Y59567D02*X256456D01*
X254656Y63567D02*X256456D01*
X258356Y62767D02*X259156Y63567D01*
Y59567D01*
X258356D02*X259856D01*
X261056Y60067D02*X261556Y59567D01*
X261056Y63067D02*Y60067D01*
Y63067D02*X261556Y63567D01*
X262556D01*
X263056Y63067D01*
Y60067D01*
X262556Y59567D02*X263056Y60067D01*
X261556Y59567D02*X262556D01*
X261056Y60567D02*X263056Y62567D01*
X265756Y63567D02*X266256Y63067D01*
X264756Y63567D02*X265756D01*
X264256Y63067D02*X264756Y63567D01*
X264256Y63067D02*Y60067D01*
X264756Y59567D01*
X265756Y61767D02*X266256Y61267D01*
X264256Y61767D02*X265756D01*
X264756Y59567D02*X265756D01*
X266256Y60067D01*
Y61267D02*Y60067D01*
X247627Y35699D02*Y31699D01*
X249627D01*
X250827Y33899D02*X252327D01*
X250827Y31699D02*X252827D01*
X250827Y35699D02*Y31699D01*
Y35699D02*X252827D01*
X254527D02*Y31699D01*
X255827Y35699D02*X256527Y34999D01*
Y32399D01*
X255827Y31699D02*X256527Y32399D01*
X254027Y31699D02*X255827D01*
X254027Y35699D02*X255827D01*
X257727Y34899D02*X258527Y35699D01*
Y31699D01*
X257727D02*X259227D01*
X260427Y32199D02*X260927Y31699D01*
X260427Y35199D02*Y32199D01*
Y35199D02*X260927Y35699D01*
X261927D01*
X262427Y35199D01*
Y32199D01*
X261927Y31699D02*X262427Y32199D01*
X260927Y31699D02*X261927D01*
X260427Y32699D02*X262427Y34699D01*
X263627Y35699D02*X265627D01*
X263627D02*Y33699D01*
X264127Y34199D01*
X265127D01*
X265627Y33699D01*
Y32199D01*
X265127Y31699D02*X265627Y32199D01*
X264127Y31699D02*X265127D01*
X263627Y32199D02*X264127Y31699D01*
X271892Y58496D02*X273192D01*
X271192Y59196D02*X271892Y58496D01*
X271192Y61796D02*Y59196D01*
Y61796D02*X271892Y62496D01*
X273192D01*
X274392Y61996D02*Y58996D01*
Y61996D02*X274892Y62496D01*
X275892D01*
X276392Y61996D01*
Y58996D01*
X275892Y58496D02*X276392Y58996D01*
X274892Y58496D02*X275892D01*
X274392Y58996D02*X274892Y58496D01*
X277592Y62496D02*Y58496D01*
Y62496D02*X280092Y58496D01*
Y62496D02*Y58496D01*
X281292Y62496D02*Y58496D01*
Y62496D02*X283792Y58496D01*
Y62496D02*Y58496D01*
X284992Y61696D02*X285792Y62496D01*
Y58496D01*
X284992D02*X286492D01*
X287692Y61696D02*X288492Y62496D01*
Y58496D01*
X287692D02*X289192D01*
X290392Y61996D02*X290892Y62496D01*
X292392D01*
X292892Y61996D01*
Y60996D01*
X290392Y58496D02*X292892Y60996D01*
X290392Y58496D02*X292892D01*
X272063Y29475D02*X273363D01*
X271363Y30175D02*X272063Y29475D01*
X271363Y32775D02*Y30175D01*
Y32775D02*X272063Y33475D01*
X273363D01*
X274563Y32975D02*Y29975D01*
Y32975D02*X275063Y33475D01*
X276063D01*
X276563Y32975D01*
Y29975D01*
X276063Y29475D02*X276563Y29975D01*
X275063Y29475D02*X276063D01*
X274563Y29975D02*X275063Y29475D01*
X277763Y33475D02*Y29475D01*
Y33475D02*X280263Y29475D01*
Y33475D02*Y29475D01*
X281463Y33475D02*Y29475D01*
Y33475D02*X283963Y29475D01*
Y33475D02*Y29475D01*
X285163Y32675D02*X285963Y33475D01*
Y29475D01*
X285163D02*X286663D01*
X287863Y32675D02*X288663Y33475D01*
Y29475D01*
X287863D02*X289363D01*
X290563Y32675D02*X291363Y33475D01*
Y29475D01*
X290563D02*X292063D01*
X271800Y214300D02*X273100D01*
X271100Y215000D02*X271800Y214300D01*
X271100Y217600D02*Y215000D01*
Y217600D02*X271800Y218300D01*
X273100D01*
X274300Y217800D02*Y214800D01*
Y217800D02*X274800Y218300D01*
X275800D01*
X276300Y217800D01*
Y214800D01*
X275800Y214300D02*X276300Y214800D01*
X274800Y214300D02*X275800D01*
X274300Y214800D02*X274800Y214300D01*
X277500Y218300D02*Y214300D01*
Y218300D02*X280000Y214300D01*
Y218300D02*Y214300D01*
X281200Y218300D02*Y214300D01*
Y218300D02*X283700Y214300D01*
Y218300D02*Y214300D01*
X284900Y217500D02*X285700Y218300D01*
Y214300D01*
X284900D02*X286400D01*
X287600Y214800D02*X288100Y214300D01*
X287600Y217800D02*Y214800D01*
Y217800D02*X288100Y218300D01*
X289100D01*
X289600Y217800D01*
Y214800D01*
X289100Y214300D02*X289600Y214800D01*
X288100Y214300D02*X289100D01*
X287600Y215300D02*X289600Y217300D01*
X291300Y214300D02*X292800Y216300D01*
Y217800D02*Y216300D01*
X292300Y218300D02*X292800Y217800D01*
X291300Y218300D02*X292300D01*
X290800Y217800D02*X291300Y218300D01*
X290800Y217800D02*Y216800D01*
X291300Y216300D01*
X292800D01*
X235000Y234300D02*Y233000D01*
X235700Y235000D02*X235000Y234300D01*
X235700Y235000D02*X238300D01*
X239000Y234300D01*
Y233000D01*
X235500Y231800D02*X238500D01*
X239000Y231300D01*
Y230300D01*
X238500Y229800D01*
X235500D02*X238500D01*
X235000Y230300D02*X235500Y229800D01*
X235000Y231300D02*Y230300D01*
X235500Y231800D02*X235000Y231300D01*
Y228600D02*X239000D01*
X235000Y226100D01*
X239000D01*
X235000Y224900D02*X239000D01*
X235000Y222400D01*
X239000D01*
X238200Y221200D02*X239000Y220400D01*
X235000D02*X239000D01*
X235000Y221200D02*Y219700D01*
X235500Y218500D02*X235000Y218000D01*
X235500Y218500D02*X238500D01*
X239000Y218000D01*
Y217000D01*
X238500Y216500D01*
X235500D02*X238500D01*
X235000Y217000D02*X235500Y216500D01*
X235000Y218000D02*Y217000D01*
X236000Y218500D02*X238000Y216500D01*
X238500Y215300D02*X239000Y214800D01*
Y213300D01*
X238500Y212800D01*
X237500D02*X238500D01*
X235000Y215300D02*X237500Y212800D01*
X235000Y215300D02*Y212800D01*
X175000Y234300D02*Y233000D01*
X175700Y235000D02*X175000Y234300D01*
X175700Y235000D02*X178300D01*
X179000Y234300D01*
Y233000D01*
X175500Y231800D02*X178500D01*
X179000Y231300D01*
Y230300D01*
X178500Y229800D01*
X175500D02*X178500D01*
X175000Y230300D02*X175500Y229800D01*
X175000Y231300D02*Y230300D01*
X175500Y231800D02*X175000Y231300D01*
Y228600D02*X179000D01*
X175000Y226100D01*
X179000D01*
X175000Y224900D02*X179000D01*
X175000Y222400D01*
X179000D01*
X178200Y221200D02*X179000Y220400D01*
X175000D02*X179000D01*
X175000Y221200D02*Y219700D01*
X175500Y218500D02*X175000Y218000D01*
X175500Y218500D02*X178500D01*
X179000Y218000D01*
Y217000D01*
X178500Y216500D01*
X175500D02*X178500D01*
X175000Y217000D02*X175500Y216500D01*
X175000Y218000D02*Y217000D01*
X176000Y218500D02*X178000Y216500D01*
X178200Y215300D02*X179000Y214500D01*
X175000D02*X179000D01*
X175000Y215300D02*Y213800D01*
X154555Y237250D02*X155855D01*
X153855Y237950D02*X154555Y237250D01*
X153855Y240550D02*Y237950D01*
Y240550D02*X154555Y241250D01*
X155855D01*
X157055Y240450D02*X157855Y241250D01*
Y237250D01*
X157055D02*X158555D01*
X159755Y237750D02*X160255Y237250D01*
X159755Y240750D02*Y237750D01*
Y240750D02*X160255Y241250D01*
X161255D01*
X161755Y240750D01*
Y237750D01*
X161255Y237250D02*X161755Y237750D01*
X160255Y237250D02*X161255D01*
X159755Y238250D02*X161755Y240250D01*
X164455Y241250D02*X164955Y240750D01*
X163455Y241250D02*X164455D01*
X162955Y240750D02*X163455Y241250D01*
X162955Y240750D02*Y237750D01*
X163455Y237250D01*
X164455Y239450D02*X164955Y238950D01*
X162955Y239450D02*X164455D01*
X163455Y237250D02*X164455D01*
X164955Y237750D01*
Y238950D02*Y237750D01*
X247660Y218750D02*Y214750D01*
X249660D01*
X250860Y216950D02*X252360D01*
X250860Y214750D02*X252860D01*
X250860Y218750D02*Y214750D01*
Y218750D02*X252860D01*
X254560D02*Y214750D01*
X255860Y218750D02*X256560Y218050D01*
Y215450D01*
X255860Y214750D02*X256560Y215450D01*
X254060Y214750D02*X255860D01*
X254060Y218750D02*X255860D01*
X257760Y217950D02*X258560Y218750D01*
Y214750D01*
X257760D02*X259260D01*
X260460Y215250D02*X260960Y214750D01*
X260460Y218250D02*Y215250D01*
Y218250D02*X260960Y218750D01*
X261960D01*
X262460Y218250D01*
Y215250D01*
X261960Y214750D02*X262460Y215250D01*
X260960Y214750D02*X261960D01*
X260460Y215750D02*X262460Y217750D01*
X263660Y218250D02*X264160Y218750D01*
X265160D01*
X265660Y218250D01*
X265160Y214750D02*X265660Y215250D01*
X264160Y214750D02*X265160D01*
X263660Y215250D02*X264160Y214750D01*
Y216950D02*X265160D01*
X265660Y218250D02*Y217450D01*
Y216450D02*Y215250D01*
Y216450D02*X265160Y216950D01*
X265660Y217450D02*X265160Y216950D01*
X172755Y262860D02*X174055D01*
X172055Y263560D02*X172755Y262860D01*
X172055Y266160D02*Y263560D01*
Y266160D02*X172755Y266860D01*
X174055D01*
X175255Y266060D02*X176055Y266860D01*
Y262860D01*
X175255D02*X176755D01*
X177955Y263360D02*X178455Y262860D01*
X177955Y266360D02*Y263360D01*
Y266360D02*X178455Y266860D01*
X179455D01*
X179955Y266360D01*
Y263360D01*
X179455Y262860D02*X179955Y263360D01*
X178455Y262860D02*X179455D01*
X177955Y263860D02*X179955Y265860D01*
X181155Y266360D02*X181655Y266860D01*
X182655D01*
X183155Y266360D01*
X182655Y262860D02*X183155Y263360D01*
X181655Y262860D02*X182655D01*
X181155Y263360D02*X181655Y262860D01*
Y265060D02*X182655D01*
X183155Y266360D02*Y265560D01*
Y264560D02*Y263360D01*
Y264560D02*X182655Y265060D01*
X183155Y265560D02*X182655Y265060D01*
X124450Y318050D02*X125750D01*
X123750Y318750D02*X124450Y318050D01*
X123750Y321350D02*Y318750D01*
Y321350D02*X124450Y322050D01*
X125750D01*
X126950Y321250D02*X127750Y322050D01*
Y318050D01*
X126950D02*X128450D01*
X129650Y318550D02*X130150Y318050D01*
X129650Y321550D02*Y318550D01*
Y321550D02*X130150Y322050D01*
X131150D01*
X131650Y321550D01*
Y318550D01*
X131150Y318050D02*X131650Y318550D01*
X130150Y318050D02*X131150D01*
X129650Y319050D02*X131650Y321050D01*
X132850Y319550D02*X134850Y322050D01*
X132850Y319550D02*X135350D01*
X134850Y322050D02*Y318050D01*
X186145Y340008D02*X187445D01*
X185445Y340708D02*X186145Y340008D01*
X185445Y343308D02*Y340708D01*
Y343308D02*X186145Y344008D01*
X187445D01*
X188645Y343508D02*Y340508D01*
Y343508D02*X189145Y344008D01*
X190145D01*
X190645Y343508D01*
Y340508D01*
X190145Y340008D02*X190645Y340508D01*
X189145Y340008D02*X190145D01*
X188645Y340508D02*X189145Y340008D01*
X191845Y344008D02*Y340008D01*
Y344008D02*X194345Y340008D01*
Y344008D02*Y340008D01*
X195545Y344008D02*Y340008D01*
Y344008D02*X198045Y340008D01*
Y344008D02*Y340008D01*
X199245Y343208D02*X200045Y344008D01*
Y340008D01*
X199245D02*X200745D01*
X201945Y340508D02*X202445Y340008D01*
X201945Y343508D02*Y340508D01*
Y343508D02*X202445Y344008D01*
X203445D01*
X203945Y343508D01*
Y340508D01*
X203445Y340008D02*X203945Y340508D01*
X202445Y340008D02*X203445D01*
X201945Y341008D02*X203945Y343008D01*
X205145Y343508D02*X205645Y344008D01*
X206645D01*
X207145Y343508D01*
X206645Y340008D02*X207145Y340508D01*
X205645Y340008D02*X206645D01*
X205145Y340508D02*X205645Y340008D01*
Y342208D02*X206645D01*
X207145Y343508D02*Y342708D01*
Y341708D02*Y340508D01*
Y341708D02*X206645Y342208D01*
X207145Y342708D02*X206645Y342208D01*
X171155Y281850D02*X173155D01*
X173655Y281350D01*
Y280350D01*
X173155Y279850D02*X173655Y280350D01*
X171655Y279850D02*X173155D01*
X171655Y281850D02*Y277850D01*
X172455Y279850D02*X173655Y277850D01*
X174855Y281050D02*X175655Y281850D01*
Y277850D01*
X174855D02*X176355D01*
X177555Y278350D02*X178055Y277850D01*
X177555Y281350D02*Y278350D01*
Y281350D02*X178055Y281850D01*
X179055D01*
X179555Y281350D01*
Y278350D01*
X179055Y277850D02*X179555Y278350D01*
X178055Y277850D02*X179055D01*
X177555Y278850D02*X179555Y280850D01*
X182255Y281850D02*X182755Y281350D01*
X181255Y281850D02*X182255D01*
X180755Y281350D02*X181255Y281850D01*
X180755Y281350D02*Y278350D01*
X181255Y277850D01*
X182255Y280050D02*X182755Y279550D01*
X180755Y280050D02*X182255D01*
X181255Y277850D02*X182255D01*
X182755Y278350D01*
Y279550D02*Y278350D01*
X150967Y327185D02*X152967D01*
X153467Y326685D01*
Y325685D01*
X152967Y325185D02*X153467Y325685D01*
X151467Y325185D02*X152967D01*
X151467Y327185D02*Y323185D01*
X152267Y325185D02*X153467Y323185D01*
X154667Y326385D02*X155467Y327185D01*
Y323185D01*
X154667D02*X156167D01*
X157367Y323685D02*X157867Y323185D01*
X157367Y326685D02*Y323685D01*
Y326685D02*X157867Y327185D01*
X158867D01*
X159367Y326685D01*
Y323685D01*
X158867Y323185D02*X159367Y323685D01*
X157867Y323185D02*X158867D01*
X157367Y324185D02*X159367Y326185D01*
X161067Y323185D02*X163067Y327185D01*
X160567D02*X163067D01*
X51900Y194100D02*X52700D01*
Y190600D01*
X52200Y190100D02*X52700Y190600D01*
X51700Y190100D02*X52200D01*
X51200Y190600D02*X51700Y190100D01*
X51200Y191100D02*Y190600D01*
X53900Y193300D02*X54700Y194100D01*
Y190100D01*
X53900D02*X55400D01*
X56600Y190600D02*X57100Y190100D01*
X56600Y193600D02*Y190600D01*
Y193600D02*X57100Y194100D01*
X58100D01*
X58600Y193600D01*
Y190600D01*
X58100Y190100D02*X58600Y190600D01*
X57100Y190100D02*X58100D01*
X56600Y191100D02*X58600Y193100D01*
X59800Y193600D02*X60300Y194100D01*
X61300D01*
X61800Y193600D01*
X61300Y190100D02*X61800Y190600D01*
X60300Y190100D02*X61300D01*
X59800Y190600D02*X60300Y190100D01*
Y192300D02*X61300D01*
X61800Y193600D02*Y192800D01*
Y191800D02*Y190600D01*
Y191800D02*X61300Y192300D01*
X61800Y192800D02*X61300Y192300D01*
X39679Y314856D02*Y311356D01*
X40179Y310856D01*
X41179D01*
X41679Y311356D01*
Y314856D02*Y311356D01*
X42879Y314056D02*X43679Y314856D01*
Y310856D01*
X42879D02*X44379D01*
X45579Y311356D02*X46079Y310856D01*
X45579Y314356D02*Y311356D01*
Y314356D02*X46079Y314856D01*
X47079D01*
X47579Y314356D01*
Y311356D01*
X47079Y310856D02*X47579Y311356D01*
X46079Y310856D02*X47079D01*
X45579Y311856D02*X47579Y313856D01*
X48779Y312356D02*X50779Y314856D01*
X48779Y312356D02*X51279D01*
X50779Y314856D02*Y310856D01*
X13055Y343850D02*X14355D01*
X12355Y344550D02*X13055Y343850D01*
X12355Y347150D02*Y344550D01*
Y347150D02*X13055Y347850D01*
X14355D01*
X15555Y347050D02*X16355Y347850D01*
Y343850D01*
X15555D02*X17055D01*
X18255Y344350D02*X18755Y343850D01*
X18255Y347350D02*Y344350D01*
Y347350D02*X18755Y347850D01*
X19755D01*
X20255Y347350D01*
Y344350D01*
X19755Y343850D02*X20255Y344350D01*
X18755Y343850D02*X19755D01*
X18255Y344850D02*X20255Y346850D01*
X21455Y347850D02*X23455D01*
X21455D02*Y345850D01*
X21955Y346350D01*
X22955D01*
X23455Y345850D01*
Y344350D01*
X22955Y343850D02*X23455Y344350D01*
X21955Y343850D02*X22955D01*
X21455Y344350D02*X21955Y343850D01*
X22316Y266384D02*X24816D01*
X22316Y262384D02*X24816Y266384D01*
X22316Y262384D02*X24816D01*
X26016Y265584D02*X26816Y266384D01*
Y262384D01*
X26016D02*X27516D01*
X28716Y262884D02*X29216Y262384D01*
X28716Y265884D02*Y262884D01*
Y265884D02*X29216Y266384D01*
X30216D01*
X30716Y265884D01*
Y262884D01*
X30216Y262384D02*X30716Y262884D01*
X29216Y262384D02*X30216D01*
X28716Y263384D02*X30716Y265384D01*
X31916Y265584D02*X32716Y266384D01*
Y262384D01*
X31916D02*X33416D01*
X100500Y248800D02*Y244800D01*
X102500D01*
X103700Y248000D02*X104500Y248800D01*
Y244800D01*
X103700D02*X105200D01*
X106400Y245300D02*X106900Y244800D01*
X106400Y248300D02*Y245300D01*
Y248300D02*X106900Y248800D01*
X107900D01*
X108400Y248300D01*
Y245300D01*
X107900Y244800D02*X108400Y245300D01*
X106900Y244800D02*X107900D01*
X106400Y245800D02*X108400Y247800D01*
X109600Y248000D02*X110400Y248800D01*
Y244800D01*
X109600D02*X111100D01*
M02*
