M48
INCH
T57C0.015
T56C0.200
T55C0.046
T54C0.020
T53C0.059
T52C0.025
T51C0.038
T50C0.028
%
T57
X018660Y001860
X020520Y008670
X021700Y011340
X019770Y012730
X020150Y012910
X018670Y002450
X018660Y003050
T54
X001518Y027978
X001518Y024978
X024400Y012800
X023800Y012800
X021560Y023860
X006900Y009050
X007910Y009030
X008740Y009850
X010290Y010720
X007910Y008330
X006900Y008330
X007910Y007250
X005820Y007300
X002700Y016560
X002690Y015910
X002690Y014530
X011620Y014920
X008080Y018900
X005270Y018690
X006880Y017720
X011610Y004350
X011610Y003550
X010860Y009260
X018590Y010570
X018590Y009590
X022160Y002390
X009900Y002710
X015690Y004840
X013650Y012920
X014520Y010310
X014110Y009460
X016140Y004350
X015660Y003420
X016140Y003420
X007180Y026320
X006650Y029920
X003900Y033580
X003900Y032300
X003900Y032920
X000820Y031130
X001470Y031360
X005190Y033580
X005190Y032290
X005190Y032920
X004530Y033580
X004530Y032290
X004528Y032921
X006740Y031380
X016440Y026580
X016440Y025470
X007760Y033140
X007220Y033680
X010270Y031110
X011190Y033450
X007660Y032680
X008920Y031380
T52
X020736Y031729
X019556Y031729
X018376Y031729
X020736Y030549
X018376Y030549
X019556Y030549
T50
X009300Y004100
X008300Y004100
X007300Y004100
X006300Y004100
X005300Y004100
X004300Y004100
X003300Y004100
X002300Y004100
X001300Y004100
X014600Y008500
X014600Y006500
T51
X001320Y001950
X002320Y001950
X012850Y002100
X013850Y002100
X027480Y022490
X028480Y022490
X022900Y023000
X022900Y022000
X027500Y019900
X027500Y013400
X027519Y007000
X027519Y004183
X028500Y019900
X028500Y013400
X028519Y007000
X028519Y004183
X027500Y016600
X028500Y016600
X022900Y018000
X022900Y017000
X022900Y016000
X022900Y015000
X022900Y014000
X022900Y013000
X022900Y012000
X022900Y011000
X022900Y010000
X022900Y009000
X022900Y008000
X022900Y007000
X022900Y006000
X022900Y005000
X022900Y004000
X022900Y003000
X022900Y002000
X022900Y021000
X022900Y020000
X022900Y019000
X016900Y023000
X016900Y022000
X016900Y021000
X016900Y020000
X016900Y019000
X016900Y018000
X016900Y017000
X016900Y016000
X016900Y015000
X016900Y014000
X016900Y013000
X016900Y012000
X016900Y011000
X016900Y010000
X016900Y009000
X016900Y008000
X016900Y007000
X016900Y006000
X016900Y005000
X016900Y004000
X016900Y003000
X016900Y002000
T55
X007290Y021190
X007290Y020190
X006290Y020190
X005290Y020190
X004290Y020190
X003290Y020190
X006290Y021190
X005290Y021190
X004290Y021190
X003290Y021190
T53
X019556Y033429
T56
X027040Y026810
X026960Y009470
X005470Y009540
X009600Y013600
X001300Y013600
X005420Y026750
M30
