G04 start of page 2 for group 0 idx 0 *
G04 Title: (unknown), VCC *
G04 Creator: pcb 20110918 *
G04 CreationDate: Tue 14 Apr 2015 10:20:40 PM GMT UTC *
G04 For: andrew *
G04 Format: Gerber/RS-274X *
G04 PCB-Dimensions: 374016 236220 *
G04 PCB-Coordinate-Origin: lower left *
%MOIN*%
%FSLAX25Y25*%
%LNTOP*%
%ADD26C,0.0460*%
%ADD25C,0.0280*%
%ADD24C,0.0380*%
%ADD23C,0.1260*%
%ADD22C,0.0350*%
%ADD21C,0.1260*%
%ADD20C,0.1300*%
%ADD19C,0.1300*%
%ADD18R,0.0394X0.0394*%
%ADD17R,0.0512X0.0512*%
%ADD16C,0.0650*%
%ADD15C,0.0001*%
%ADD14C,0.0600*%
%ADD13C,0.0100*%
%ADD12C,0.0250*%
%ADD11C,0.0400*%
G54D11*X216024Y226732D02*X229803Y212952D01*
Y162874D01*
X219770Y151490D02*X227278D01*
X229488Y153700D01*
Y161653D01*
X229803Y161968D01*
Y166574D01*
X27205Y226732D02*X216024D01*
G54D12*X114902Y187711D02*Y194508D01*
X119843Y199448D01*
X151142D01*
X126240Y181948D02*X155965D01*
X116260Y205551D02*X147559D01*
X157087Y215078D01*
X181142D01*
X191063Y205157D01*
X191673Y204547D02*Y200059D01*
X181063Y192126D02*X184154D01*
X191673Y199645D01*
X188386Y219055D02*X123425D01*
G54D13*X99528Y195157D02*Y184133D01*
X101772Y181889D01*
G54D12*X104902Y194193D02*X116260Y205551D01*
X123425Y219055D02*X99803Y195433D01*
X161496Y209921D02*X173268D01*
X181063Y202126D01*
X151142Y199448D02*X154606Y202913D01*
Y203031D01*
X161496Y209921D01*
X155965Y181948D02*X160906Y186889D01*
G54D13*X164134Y182126D02*X156220Y174212D01*
G54D12*X156378Y174370D02*X155118Y173110D01*
X181063Y162126D02*X189252D01*
X195630Y168503D01*
Y211811D01*
X188386Y219055D01*
G54D13*X160906Y186889D02*X176299D01*
X181063Y182126D01*
X171063D02*X164134D01*
G54D12*X171063D02*X163858D01*
Y181535D01*
X155433Y173110D01*
X171063Y172126D02*X166772D01*
X161496Y166850D01*
X104902Y187711D02*Y194193D01*
X121929Y177637D02*X24370D01*
X155118Y173110D02*X40300D01*
X24902Y157711D01*
X44311Y166850D02*X34902Y157440D01*
X161496Y166850D02*X44311D01*
G54D11*X94028Y156838D02*Y155248D01*
X92087Y153307D01*
Y139528D01*
X92280Y139335D01*
X92087Y138464D02*X91142D01*
G54D12*X101614Y181889D02*X119080D01*
X124902Y187711D01*
X126417Y182126D02*X121929Y177637D01*
G54D11*X94764Y157573D02*X94902Y157711D01*
X104902D02*Y153995D01*
X112244Y146653D01*
Y139371D01*
X112280Y139335D01*
X92953Y138662D02*X74015D01*
X72520Y140157D01*
X66891D01*
X66811Y140077D01*
X28278Y143553D02*Y139926D01*
X112280Y139335D02*X127043D01*
X127323D02*X132397D01*
X133465Y138267D01*
X13858Y213385D02*X27205Y226732D01*
X7598Y171102D02*Y207126D01*
X14409Y213937D01*
X34902Y156889D02*Y150177D01*
X28622Y143897D01*
X12559D01*
X7598Y148858D01*
X28278Y139926D02*X35217Y132987D01*
X7598Y148858D02*Y175236D01*
G54D12*X24370Y177637D02*X14843Y168110D01*
Y157771D01*
X14902Y157711D01*
G54D11*X188817Y65176D02*Y47329D01*
X66811Y128267D02*Y126181D01*
X69724Y123267D01*
X134921D01*
X128003Y93531D02*X140643D01*
X140354Y117834D02*Y93531D01*
X134567Y123622D02*X140354Y117834D01*
X139920Y117638D02*X140354Y117204D01*
X134921Y123267D02*X135906Y122283D01*
X145275Y138267D02*Y122558D01*
X140354Y117637D01*
X83977Y34291D02*Y21337D01*
X95315Y10000D01*
X109967D01*
X110180Y10213D01*
X187794Y77166D02*X188583Y76377D01*
X189154Y75807D02*Y147927D01*
X202717Y161490D01*
X203369Y162143D02*X219118D01*
X219770Y161490D01*
X109167Y34527D02*X120827D01*
X111097Y10518D02*X111401Y10213D01*
G54D12*X120827Y10860D02*X120180Y10213D01*
G54D11*X120827Y33346D02*Y10860D01*
X109882Y34527D02*X96024D01*
X95787Y34291D01*
X30917Y63531D02*X27965D01*
X7953Y83543D01*
Y122675D01*
X7168Y123460D01*
X30791Y103657D02*X30917Y103531D01*
X31338Y103109D02*X27402D01*
X22126Y108385D01*
Y125984D01*
X7168Y133460D02*X15792D01*
X22126Y127126D01*
X134441Y58937D02*X133349Y57845D01*
X134519Y58586D02*X133563Y57631D01*
X133759Y57435D02*X133875D01*
X133193Y58001D02*X133271D01*
X133756Y58252D02*Y57858D01*
X128003Y63191D02*X132647Y58547D01*
X128003Y63531D02*Y63191D01*
X127464Y62992D02*X128004Y63531D01*
X74902Y157711D02*Y157618D01*
X127297Y63897D02*X129121Y62073D01*
X74902Y157381D02*Y153799D01*
X133165Y57661D02*Y33875D01*
X53858Y72716D02*X62677Y63897D01*
X127297D01*
X74902Y153799D02*X70984Y149881D01*
X54252D01*
X50472Y146102D01*
Y76102D01*
X53976Y72598D01*
X132830Y33539D02*X132637Y33346D01*
X193150Y32834D02*X132125D01*
X133165Y33875D02*X133090Y33799D01*
X132125Y32834D02*X131870Y32579D01*
X201575Y118070D02*Y41259D01*
X193150Y32834D01*
X144651Y56795D02*X149902D01*
X158964Y47733D01*
X219770Y121490D02*X204995D01*
X201575Y118070D01*
X132299Y56795D02*X144433D01*
X172441Y84803D01*
Y136771D01*
X171969Y134724D02*Y161220D01*
X171063Y162126D01*
X176851Y137086D02*X174331D01*
X171713Y134468D01*
X172441Y136771D02*X172756Y137086D01*
G54D14*X219770Y161490D03*
Y151490D03*
Y141490D03*
Y131490D03*
Y121490D03*
Y111490D03*
Y101490D03*
Y91490D03*
Y81490D03*
Y71490D03*
Y61490D03*
Y51490D03*
X358270Y131490D03*
Y121490D03*
Y111490D03*
Y101490D03*
Y161490D03*
Y151490D03*
Y141490D03*
Y91490D03*
Y81490D03*
Y71490D03*
Y61490D03*
Y51490D03*
G54D15*G36*
X4168Y136460D02*Y130460D01*
X10168D01*
Y136460D01*
X4168D01*
G37*
G54D14*X7168Y123460D03*
X54902Y157711D03*
X64902D03*
G54D15*G36*
X11902Y160711D02*Y154711D01*
X17902D01*
Y160711D01*
X11902D01*
G37*
G54D14*X24902Y157711D03*
X34902D03*
X44902D03*
G54D16*X35217Y132987D03*
G54D14*X74902Y157711D03*
X84902D03*
X104902Y187711D03*
X94902D03*
X84902D03*
X74902D03*
X64902D03*
X54902D03*
X44902D03*
X34902D03*
X24902D03*
X14902D03*
X94902Y157711D03*
X104902D03*
X114902D03*
X124902D03*
X134902D03*
X144902D03*
Y187711D03*
X134902D03*
X124902D03*
X114902D03*
G54D15*G36*
X107180Y13213D02*Y7213D01*
X113180D01*
Y13213D01*
X107180D01*
G37*
G54D14*X120180Y10213D03*
G54D16*X163605Y20160D03*
X158964Y47733D03*
G54D15*G36*
X89280Y142335D02*Y136335D01*
X95280D01*
Y142335D01*
X89280D01*
G37*
G54D14*X112280Y139335D03*
G54D15*G36*
X178063Y165126D02*Y159126D01*
X184063D01*
Y165126D01*
X178063D01*
G37*
G54D14*X171063Y162126D03*
X181063Y172126D03*
X171063D03*
X181063Y182126D03*
X171063D03*
X181063Y192126D03*
X171063D03*
X181063Y202126D03*
X171063D03*
G54D17*X176851Y138267D02*Y135905D01*
X188661Y138267D02*Y135905D01*
X187402Y76377D02*X189764D01*
X132637Y34527D02*Y32165D01*
G54D18*X126429Y103531D02*X129578D01*
G54D17*X187402Y64567D02*X189764D01*
X133465Y139448D02*Y137086D01*
X145275Y139448D02*Y137086D01*
G54D18*X126429Y63531D02*X129578D01*
X29342Y103531D02*X32492D01*
X29342Y93531D02*X32492D01*
X29342Y63531D02*X32492D01*
X126429Y73531D02*X129578D01*
X126429Y93531D02*X129578D01*
G54D17*X95787Y35472D02*Y33110D01*
X83977Y35472D02*Y33110D01*
X65630Y140077D02*X67992D01*
X65630Y128267D02*X67992D01*
X120827Y34527D02*Y32165D01*
G54D19*X342986Y184195D03*
X343446Y31605D03*
X33268Y204370D03*
G54D14*X140759Y93608D03*
X188739Y47134D03*
G54D20*X33774Y33069D03*
G54D21*G54D22*G54D23*G54D24*G54D25*G54D26*G54D25*G54D24*G54D26*G54D25*G54D24*M02*
