G04 start of page 7 for group -4079 idx -4079 *
G04 Title: (unknown), topsilk *
G04 Creator: pcb 20110918 *
G04 CreationDate: Tue 14 Apr 2015 10:20:40 PM GMT UTC *
G04 For: andrew *
G04 Format: Gerber/RS-274X *
G04 PCB-Dimensions: 374016 236220 *
G04 PCB-Coordinate-Origin: lower left *
%MOIN*%
%FSLAX25Y25*%
%LNTOPSILK*%
%ADD55C,0.0400*%
%ADD54C,0.0200*%
%ADD53C,0.0080*%
%ADD52C,0.0100*%
G54D52*X328438Y9134D02*Y5134D01*
X327938Y9134D02*X329938D01*
X330438Y8634D01*
Y7634D01*
X329938Y7134D02*X330438Y7634D01*
X328438Y7134D02*X329938D01*
X332338Y5134D02*X333638D01*
X331638Y5834D02*X332338Y5134D01*
X331638Y8434D02*Y5834D01*
Y8434D02*X332338Y9134D01*
X333638D01*
X334838Y5134D02*X336838D01*
X337338Y5634D01*
Y6834D02*Y5634D01*
X336838Y7334D02*X337338Y6834D01*
X335338Y7334D02*X336838D01*
X335338Y9134D02*Y5134D01*
X334838Y9134D02*X336838D01*
X337338Y8634D01*
Y7834D01*
X336838Y7334D02*X337338Y7834D01*
X338538Y7634D02*X339038D01*
X338538Y6634D02*X339038D01*
X342038Y8134D02*Y5134D01*
Y8134D02*X342738Y9134D01*
X343838D01*
X344538Y8134D01*
Y5134D01*
X342038Y7134D02*X344538D01*
X346238Y9134D02*Y5134D01*
X345738Y9134D02*X347738D01*
X348238Y8634D01*
Y7634D01*
X347738Y7134D02*X348238Y7634D01*
X346238Y7134D02*X347738D01*
X295844Y7886D02*X296344Y7386D01*
X294344Y7886D02*X295844D01*
X293844Y7386D02*X294344Y7886D01*
X293844Y7386D02*Y6386D01*
X294344Y5886D01*
X295844D01*
X296344Y5386D01*
Y4386D01*
X295844Y3886D02*X296344Y4386D01*
X294344Y3886D02*X295844D01*
X293844Y4386D02*X294344Y3886D01*
X298244D02*X299544D01*
X297544Y4586D02*X298244Y3886D01*
X297544Y7186D02*Y4586D01*
Y7186D02*X298244Y7886D01*
X299544D01*
X300744D02*Y3886D01*
X303244Y7886D02*Y3886D01*
X300744Y5886D02*X303244D01*
X304444Y6386D02*X304944D01*
X304444Y5386D02*X304944D01*
X307944Y6886D02*Y3886D01*
Y6886D02*X308644Y7886D01*
X309744D01*
X310444Y6886D01*
Y3886D01*
X307944Y5886D02*X310444D01*
X312144Y7886D02*Y3886D01*
X311644Y7886D02*X313644D01*
X314144Y7386D01*
Y6386D01*
X313644Y5886D02*X314144Y6386D01*
X312144Y5886D02*X313644D01*
X180258Y8000D02*X181758D01*
X180258Y5800D02*X182258D01*
X180258Y9800D02*Y5800D01*
Y9800D02*X182258D01*
X183958Y7300D02*Y5800D01*
Y7300D02*X184458Y7800D01*
X184958D01*
X185458Y7300D01*
Y5800D01*
Y7300D02*X185958Y7800D01*
X186458D01*
X186958Y7300D01*
Y5800D01*
X183458Y7800D02*X183958Y7300D01*
X188658Y5800D02*X190158D01*
X188158Y6300D02*X188658Y5800D01*
X188158Y7300D02*Y6300D01*
Y7300D02*X188658Y7800D01*
X189658D01*
X190158Y7300D01*
X188158Y6800D02*X190158D01*
Y7300D02*Y6800D01*
X191858Y7300D02*Y5800D01*
Y7300D02*X192358Y7800D01*
X193358D01*
X191358D02*X191858Y7300D01*
X196058Y7800D02*X196558Y7300D01*
X195058Y7800D02*X196058D01*
X194558Y7300D02*X195058Y7800D01*
X194558Y7300D02*Y6300D01*
X195058Y5800D01*
X196058D01*
X196558Y6300D01*
X194558Y4800D02*X195058Y4300D01*
X196058D01*
X196558Y4800D01*
Y7800D02*Y4800D01*
X198258Y5800D02*X199758D01*
X197758Y6300D02*X198258Y5800D01*
X197758Y7300D02*Y6300D01*
Y7300D02*X198258Y7800D01*
X199258D01*
X199758Y7300D01*
X197758Y6800D02*X199758D01*
Y7300D02*Y6800D01*
X201458Y7300D02*Y5800D01*
Y7300D02*X201958Y7800D01*
X202458D01*
X202958Y7300D01*
Y5800D01*
X200958Y7800D02*X201458Y7300D01*
X204658Y7800D02*X206158D01*
X204158Y7300D02*X204658Y7800D01*
X204158Y7300D02*Y6300D01*
X204658Y5800D01*
X206158D01*
X207358Y7800D02*Y6300D01*
X207858Y5800D01*
X209358Y7800D02*Y4800D01*
X208858Y4300D02*X209358Y4800D01*
X207858Y4300D02*X208858D01*
X207358Y4800D02*X207858Y4300D01*
Y5800D02*X208858D01*
X209358Y6300D01*
X214358Y9800D02*X214858Y9300D01*
X212858Y9800D02*X214358D01*
X212358Y9300D02*X212858Y9800D01*
X212358Y9300D02*Y8300D01*
X212858Y7800D01*
X214358D01*
X214858Y7300D01*
Y6300D01*
X214358Y5800D02*X214858Y6300D01*
X212858Y5800D02*X214358D01*
X212358Y6300D02*X212858Y5800D01*
X216558Y9800D02*Y6300D01*
X217058Y5800D01*
X216058Y8300D02*X217058D01*
X218058Y7300D02*Y6300D01*
Y7300D02*X218558Y7800D01*
X219558D01*
X220058Y7300D01*
Y6300D01*
X219558Y5800D02*X220058Y6300D01*
X218558Y5800D02*X219558D01*
X218058Y6300D02*X218558Y5800D01*
X221758Y7300D02*Y4300D01*
X221258Y7800D02*X221758Y7300D01*
X222258Y7800D01*
X223258D01*
X223758Y7300D01*
Y6300D01*
X223258Y5800D02*X223758Y6300D01*
X222258Y5800D02*X223258D01*
X221758Y6300D02*X222258Y5800D01*
X226758Y9800D02*X228758D01*
X227758D02*Y5800D01*
X230458Y7300D02*Y5800D01*
Y7300D02*X230958Y7800D01*
X231958D01*
X229958D02*X230458Y7300D01*
X234658Y7800D02*X235158Y7300D01*
X233658Y7800D02*X234658D01*
X233158Y7300D02*X233658Y7800D01*
X233158Y7300D02*Y6300D01*
X233658Y5800D01*
X235158Y7800D02*Y6300D01*
X235658Y5800D01*
X233658D02*X234658D01*
X235158Y6300D01*
X237358Y7300D02*Y5800D01*
Y7300D02*X237858Y7800D01*
X238358D01*
X238858Y7300D01*
Y5800D01*
X236858Y7800D02*X237358Y7300D01*
X240558Y5800D02*X242058D01*
X242558Y6300D01*
X242058Y6800D02*X242558Y6300D01*
X240558Y6800D02*X242058D01*
X240058Y7300D02*X240558Y6800D01*
X240058Y7300D02*X240558Y7800D01*
X242058D01*
X242558Y7300D01*
X240058Y6300D02*X240558Y5800D01*
X244258Y7300D02*Y5800D01*
Y7300D02*X244758Y7800D01*
X245258D01*
X245758Y7300D01*
Y5800D01*
Y7300D02*X246258Y7800D01*
X246758D01*
X247258Y7300D01*
Y5800D01*
X243758Y7800D02*X244258Y7300D01*
X248458Y8800D02*Y8700D01*
Y7300D02*Y5800D01*
X249958Y9800D02*Y6300D01*
X250458Y5800D01*
X249458Y8300D02*X250458D01*
X251958Y9800D02*Y6300D01*
X252458Y5800D01*
X251458Y8300D02*X252458D01*
X253958Y5800D02*X255458D01*
X253458Y6300D02*X253958Y5800D01*
X253458Y7300D02*Y6300D01*
Y7300D02*X253958Y7800D01*
X254958D01*
X255458Y7300D01*
X253458Y6800D02*X255458D01*
Y7300D02*Y6800D01*
X257158Y7300D02*Y5800D01*
Y7300D02*X257658Y7800D01*
X258658D01*
X256658D02*X257158Y7300D01*
X261658Y9300D02*X262158Y9800D01*
X263158D01*
X263658Y9300D01*
X263158Y5800D02*X263658Y6300D01*
X262158Y5800D02*X263158D01*
X261658Y6300D02*X262158Y5800D01*
Y8000D02*X263158D01*
X263658Y9300D02*Y8500D01*
Y7500D02*Y6300D01*
Y7500D02*X263158Y8000D01*
X263658Y8500D02*X263158Y8000D01*
X264858Y5800D02*X265358D01*
X266558Y6300D02*X267058Y5800D01*
X266558Y9300D02*Y6300D01*
Y9300D02*X267058Y9800D01*
X268058D01*
X268558Y9300D01*
Y6300D01*
X268058Y5800D02*X268558Y6300D01*
X267058Y5800D02*X268058D01*
X266558Y6800D02*X268558Y8800D01*
X269758Y5800D02*X270258D01*
X271458Y6300D02*X271958Y5800D01*
X271458Y9300D02*Y6300D01*
Y9300D02*X271958Y9800D01*
X272958D01*
X273458Y9300D01*
Y6300D01*
X272958Y5800D02*X273458Y6300D01*
X271958Y5800D02*X272958D01*
X271458Y6800D02*X273458Y8800D01*
G54D53*X180394Y140826D02*X185118D01*
X180394Y133346D02*X185118D01*
G54D52*X9902Y152711D02*X149902D01*
Y192711D02*Y152711D01*
X9902Y192711D02*X149902D01*
X9902Y167711D02*Y152711D01*
Y192711D02*Y177711D01*
Y167711D02*G75*G03X9902Y177711I0J5000D01*G01*
G54D53*X137008Y142007D02*X141732D01*
X137008Y134527D02*X141732D01*
G54D54*X92280Y144335D02*X112280D01*
X92280Y134335D02*X112280D01*
G75*G03X112280Y144335I0J5000D01*G01*
X92280D02*G75*G03X92280Y134335I0J-5000D01*G01*
G54D52*X369770Y168990D02*Y43990D01*
X344770D02*X369770D01*
X346770Y168990D02*Y43990D01*
X344770Y168990D02*X369770D01*
X344770D02*Y43990D01*
X231270Y168990D02*Y43990D01*
X206270D02*X231270D01*
X208270Y168990D02*Y43990D01*
X206270Y168990D02*X231270D01*
X206270D02*Y43990D01*
X2168Y138460D02*X12168D01*
X2168D02*Y118460D01*
X12168D01*
Y138460D02*Y118460D01*
X2168Y138460D02*Y128460D01*
X12168D01*
G54D55*X34460Y50854D02*X124460D01*
Y116208D01*
X34460D01*
Y50854D01*
G54D52*X105180Y15213D02*Y5213D01*
X125180D01*
Y15213D02*Y5213D01*
X105180Y15213D02*X125180D01*
X105180Y5213D02*X115180D01*
Y15213D02*Y5213D01*
G54D53*X87520Y30551D02*X92244D01*
X87520Y38031D02*X92244D01*
X124370Y29606D02*X129094D01*
X124370Y37086D02*X129094D01*
G54D52*X30217Y132987D02*G75*G03X30217Y132987I5000J0D01*G01*
G54D53*X192323Y72834D02*Y68110D01*
X184843Y72834D02*Y68110D01*
G54D52*X158605Y20160D02*G75*G03X158605Y20160I5000J0D01*G01*
X153964Y47733D02*G75*G03X153964Y47733I5000J0D01*G01*
X186063Y207126D02*Y157126D01*
X166063Y207126D02*X186063D01*
X166063D02*Y157126D01*
X186063D01*
X176063Y167126D02*X186063D01*
X176063D02*Y157126D01*
G54D53*X70551Y136534D02*Y131810D01*
X63071Y136534D02*Y131810D01*
G54D52*X3849Y111488D02*X5149D01*
X3149Y112188D02*X3849Y111488D01*
X3149Y114788D02*Y112188D01*
Y114788D02*X3849Y115488D01*
X5149D01*
X6349Y114988D02*Y111988D01*
Y114988D02*X6849Y115488D01*
X7849D01*
X8349Y114988D01*
Y111988D01*
X7849Y111488D02*X8349Y111988D01*
X6849Y111488D02*X7849D01*
X6349Y111988D02*X6849Y111488D01*
X9549Y115488D02*Y111488D01*
Y115488D02*X12049Y111488D01*
Y115488D02*Y111488D01*
X13249Y115488D02*Y111488D01*
Y115488D02*X15749Y111488D01*
Y115488D02*Y111488D01*
X16949Y114688D02*X17749Y115488D01*
Y111488D01*
X16949D02*X18449D01*
X19649Y111988D02*X20149Y111488D01*
X19649Y114988D02*Y111988D01*
Y114988D02*X20149Y115488D01*
X21149D01*
X21649Y114988D01*
Y111988D01*
X21149Y111488D02*X21649Y111988D01*
X20149Y111488D02*X21149D01*
X19649Y112488D02*X21649Y114488D01*
X22849Y114688D02*X23649Y115488D01*
Y111488D01*
X22849D02*X24349D01*
X9902Y151711D02*Y148211D01*
X10402Y147711D01*
X11402D01*
X11902Y148211D01*
Y151711D02*Y148211D01*
X13102Y150911D02*X13902Y151711D01*
Y147711D01*
X13102D02*X14602D01*
X15802Y148211D02*X16302Y147711D01*
X15802Y151211D02*Y148211D01*
Y151211D02*X16302Y151711D01*
X17302D01*
X17802Y151211D01*
Y148211D01*
X17302Y147711D02*X17802Y148211D01*
X16302Y147711D02*X17302D01*
X15802Y148711D02*X17802Y150711D01*
X19002Y150911D02*X19802Y151711D01*
Y147711D01*
X19002D02*X20502D01*
X60630Y130934D02*Y129634D01*
X59930Y128934D02*X60630Y129634D01*
X57330Y128934D02*X59930D01*
X57330D02*X56630Y129634D01*
Y130934D02*Y129634D01*
X57430Y132134D02*X56630Y132934D01*
X60630D01*
Y133634D02*Y132134D01*
X60130Y134834D02*X60630Y135334D01*
X57130Y134834D02*X60130D01*
X57130D02*X56630Y135334D01*
Y136334D02*Y135334D01*
Y136334D02*X57130Y136834D01*
X60130D01*
X60630Y136334D02*X60130Y136834D01*
X60630Y136334D02*Y135334D01*
X59630Y134834D02*X57630Y136834D01*
X57130Y138034D02*X56630Y138534D01*
Y139534D02*Y138534D01*
Y139534D02*X57130Y140034D01*
X60630Y139534D02*X60130Y140034D01*
X60630Y139534D02*Y138534D01*
X60130Y138034D02*X60630Y138534D01*
X58430Y139534D02*Y138534D01*
X57130Y140034D02*X57930D01*
X58930D02*X60130D01*
X58930D02*X58430Y139534D01*
X57930Y140034D02*X58430Y139534D01*
X41217Y136987D02*X43217D01*
X42217D02*Y132987D01*
X44917Y136987D02*Y132987D01*
X44417Y136987D02*X46417D01*
X46917Y136487D01*
Y135487D01*
X46417Y134987D02*X46917Y135487D01*
X44917Y134987D02*X46417D01*
X48117Y136187D02*X48917Y136987D01*
Y132987D01*
X48117D02*X49617D01*
X50817Y133487D02*X51317Y132987D01*
X50817Y136487D02*Y133487D01*
Y136487D02*X51317Y136987D01*
X52317D01*
X52817Y136487D01*
Y133487D01*
X52317Y132987D02*X52817Y133487D01*
X51317Y132987D02*X52317D01*
X50817Y133987D02*X52817Y135987D01*
X54017Y136187D02*X54817Y136987D01*
Y132987D01*
X54017D02*X55517D01*
X283140Y110420D02*Y108420D01*
X283640Y106420D01*
X284640Y108420D01*
X285640Y106420D01*
X286140Y108420D01*
Y110420D02*Y108420D01*
X287340Y109620D02*X288140Y110420D01*
Y106420D01*
X287340D02*X288840D01*
X290040Y106920D02*X290540Y106420D01*
X290040Y109920D02*Y106920D01*
Y109920D02*X290540Y110420D01*
X291540D01*
X292040Y109920D01*
Y106920D01*
X291540Y106420D02*X292040Y106920D01*
X290540Y106420D02*X291540D01*
X290040Y107420D02*X292040Y109420D01*
X293240Y109620D02*X294040Y110420D01*
Y106420D01*
X293240D02*X294740D01*
X174341Y131163D02*X176341D01*
X176841Y130663D01*
Y129663D01*
X176341Y129163D02*X176841Y129663D01*
X174841Y129163D02*X176341D01*
X174841Y131163D02*Y127163D01*
X175641Y129163D02*X176841Y127163D01*
X178041Y130363D02*X178841Y131163D01*
Y127163D01*
X178041D02*X179541D01*
X180741Y127663D02*X181241Y127163D01*
X180741Y130663D02*Y127663D01*
Y130663D02*X181241Y131163D01*
X182241D01*
X182741Y130663D01*
Y127663D01*
X182241Y127163D02*X182741Y127663D01*
X181241Y127163D02*X182241D01*
X180741Y128163D02*X182741Y130163D01*
X183941Y130663D02*X184441Y131163D01*
X185941D01*
X186441Y130663D01*
Y129663D01*
X183941Y127163D02*X186441Y129663D01*
X183941Y127163D02*X186441D01*
X185148Y80131D02*X186448D01*
X184448Y80831D02*X185148Y80131D01*
X184448Y83431D02*Y80831D01*
Y83431D02*X185148Y84131D01*
X186448D01*
X187648Y83331D02*X188448Y84131D01*
Y80131D01*
X187648D02*X189148D01*
X190348Y80631D02*X190848Y80131D01*
X190348Y83631D02*Y80631D01*
Y83631D02*X190848Y84131D01*
X191848D01*
X192348Y83631D01*
Y80631D01*
X191848Y80131D02*X192348Y80631D01*
X190848Y80131D02*X191848D01*
X190348Y81131D02*X192348Y83131D01*
X193548Y83631D02*X194048Y84131D01*
X195548D01*
X196048Y83631D01*
Y82631D01*
X193548Y80131D02*X196048Y82631D01*
X193548Y80131D02*X196048D01*
X169605Y24160D02*X171605D01*
X170605D02*Y20160D01*
X173305Y24160D02*Y20160D01*
X172805Y24160D02*X174805D01*
X175305Y23660D01*
Y22660D01*
X174805Y22160D02*X175305Y22660D01*
X173305Y22160D02*X174805D01*
X176505Y23360D02*X177305Y24160D01*
Y20160D01*
X176505D02*X178005D01*
X179205Y20660D02*X179705Y20160D01*
X179205Y23660D02*Y20660D01*
Y23660D02*X179705Y24160D01*
X180705D01*
X181205Y23660D01*
Y20660D01*
X180705Y20160D02*X181205Y20660D01*
X179705Y20160D02*X180705D01*
X179205Y21160D02*X181205Y23160D01*
X182405Y23660D02*X182905Y24160D01*
X183905D01*
X184405Y23660D01*
X183905Y20160D02*X184405Y20660D01*
X182905Y20160D02*X183905D01*
X182405Y20660D02*X182905Y20160D01*
Y22360D02*X183905D01*
X184405Y23660D02*Y22860D01*
Y21860D02*Y20660D01*
Y21860D02*X183905Y22360D01*
X184405Y22860D02*X183905Y22360D01*
X164964Y51733D02*X166964D01*
X165964D02*Y47733D01*
X168664Y51733D02*Y47733D01*
X168164Y51733D02*X170164D01*
X170664Y51233D01*
Y50233D01*
X170164Y49733D02*X170664Y50233D01*
X168664Y49733D02*X170164D01*
X171864Y50933D02*X172664Y51733D01*
Y47733D01*
X171864D02*X173364D01*
X174564Y48233D02*X175064Y47733D01*
X174564Y51233D02*Y48233D01*
Y51233D02*X175064Y51733D01*
X176064D01*
X176564Y51233D01*
Y48233D01*
X176064Y47733D02*X176564Y48233D01*
X175064Y47733D02*X176064D01*
X174564Y48733D02*X176564Y50733D01*
X177764Y51233D02*X178264Y51733D01*
X179764D01*
X180264Y51233D01*
Y50233D01*
X177764Y47733D02*X180264Y50233D01*
X177764Y47733D02*X180264D01*
X162865Y149032D02*X164165D01*
X162165Y149732D02*X162865Y149032D01*
X162165Y152332D02*Y149732D01*
Y152332D02*X162865Y153032D01*
X164165D01*
X165365Y152532D02*Y149532D01*
Y152532D02*X165865Y153032D01*
X166865D01*
X167365Y152532D01*
Y149532D01*
X166865Y149032D02*X167365Y149532D01*
X165865Y149032D02*X166865D01*
X165365Y149532D02*X165865Y149032D01*
X168565Y153032D02*Y149032D01*
Y153032D02*X171065Y149032D01*
Y153032D02*Y149032D01*
X172265Y153032D02*Y149032D01*
Y153032D02*X174765Y149032D01*
Y153032D02*Y149032D01*
X175965Y152232D02*X176765Y153032D01*
Y149032D01*
X175965D02*X177465D01*
X178665Y149532D02*X179165Y149032D01*
X178665Y152532D02*Y149532D01*
Y152532D02*X179165Y153032D01*
X180165D01*
X180665Y152532D01*
Y149532D01*
X180165Y149032D02*X180665Y149532D01*
X179165Y149032D02*X180165D01*
X178665Y150032D02*X180665Y152032D01*
X181865Y152532D02*X182365Y153032D01*
X183365D01*
X183865Y152532D01*
X183365Y149032D02*X183865Y149532D01*
X182365Y149032D02*X183365D01*
X181865Y149532D02*X182365Y149032D01*
Y151232D02*X183365D01*
X183865Y152532D02*Y151732D01*
Y150732D02*Y149532D01*
Y150732D02*X183365Y151232D01*
X183865Y151732D02*X183365Y151232D01*
X82247Y82547D02*X83547D01*
X81547Y83247D02*X82247Y82547D01*
X81547Y85847D02*Y83247D01*
Y85847D02*X82247Y86547D01*
X83547D01*
X84747Y85747D02*X85547Y86547D01*
Y82547D01*
X84747D02*X86247D01*
X87447Y83047D02*X87947Y82547D01*
X87447Y86047D02*Y83047D01*
Y86047D02*X87947Y86547D01*
X88947D01*
X89447Y86047D01*
Y83047D01*
X88947Y82547D02*X89447Y83047D01*
X87947Y82547D02*X88947D01*
X87447Y83547D02*X89447Y85547D01*
X90647Y85747D02*X91447Y86547D01*
Y82547D01*
X90647D02*X92147D01*
X128861Y9106D02*X130161D01*
X128161Y9806D02*X128861Y9106D01*
X128161Y12406D02*Y9806D01*
Y12406D02*X128861Y13106D01*
X130161D01*
X131361Y12606D02*Y9606D01*
Y12606D02*X131861Y13106D01*
X132861D01*
X133361Y12606D01*
Y9606D01*
X132861Y9106D02*X133361Y9606D01*
X131861Y9106D02*X132861D01*
X131361Y9606D02*X131861Y9106D01*
X134561Y13106D02*Y9106D01*
Y13106D02*X137061Y9106D01*
Y13106D02*Y9106D01*
X138261Y13106D02*Y9106D01*
Y13106D02*X140761Y9106D01*
Y13106D02*Y9106D01*
X141961Y12306D02*X142761Y13106D01*
Y9106D01*
X141961D02*X143461D01*
X144661Y9606D02*X145161Y9106D01*
X144661Y12606D02*Y9606D01*
Y12606D02*X145161Y13106D01*
X146161D01*
X146661Y12606D01*
Y9606D01*
X146161Y9106D02*X146661Y9606D01*
X145161Y9106D02*X146161D01*
X144661Y10106D02*X146661Y12106D01*
X147861Y12606D02*X148361Y13106D01*
X149861D01*
X150361Y12606D01*
Y11606D01*
X147861Y9106D02*X150361Y11606D01*
X147861Y9106D02*X150361D01*
X88095Y27086D02*Y23086D01*
X89395Y27086D02*X90095Y26386D01*
Y23786D01*
X89395Y23086D02*X90095Y23786D01*
X87595Y23086D02*X89395D01*
X87595Y27086D02*X89395D01*
X91295Y26286D02*X92095Y27086D01*
Y23086D01*
X91295D02*X92795D01*
X93995Y23586D02*X94495Y23086D01*
X93995Y26586D02*Y23586D01*
Y26586D02*X94495Y27086D01*
X95495D01*
X95995Y26586D01*
Y23586D01*
X95495Y23086D02*X95995Y23586D01*
X94495Y23086D02*X95495D01*
X93995Y24086D02*X95995Y26086D01*
X97195Y26286D02*X97995Y27086D01*
Y23086D01*
X97195D02*X98695D01*
X111247Y43622D02*X113247D01*
X113747Y43122D01*
Y42122D01*
X113247Y41622D02*X113747Y42122D01*
X111747Y41622D02*X113247D01*
X111747Y43622D02*Y39622D01*
X112547Y41622D02*X113747Y39622D01*
X114947Y42822D02*X115747Y43622D01*
Y39622D01*
X114947D02*X116447D01*
X117647Y40122D02*X118147Y39622D01*
X117647Y43122D02*Y40122D01*
Y43122D02*X118147Y43622D01*
X119147D01*
X119647Y43122D01*
Y40122D01*
X119147Y39622D02*X119647Y40122D01*
X118147Y39622D02*X119147D01*
X117647Y40622D02*X119647Y42622D01*
X120847Y42822D02*X121647Y43622D01*
Y39622D01*
X120847D02*X122347D01*
X135109Y144094D02*X136409D01*
X134409Y144794D02*X135109Y144094D01*
X134409Y147394D02*Y144794D01*
Y147394D02*X135109Y148094D01*
X136409D01*
X137609Y147294D02*X138409Y148094D01*
Y144094D01*
X137609D02*X139109D01*
X140309Y144594D02*X140809Y144094D01*
X140309Y147594D02*Y144594D01*
Y147594D02*X140809Y148094D01*
X141809D01*
X142309Y147594D01*
Y144594D01*
X141809Y144094D02*X142309Y144594D01*
X140809Y144094D02*X141809D01*
X140309Y145094D02*X142309Y147094D01*
X143509Y145594D02*X145509Y148094D01*
X143509Y145594D02*X146009D01*
X145509Y148094D02*Y144094D01*
X97044Y131304D02*Y127804D01*
X97544Y127304D01*
X98544D01*
X99044Y127804D01*
Y131304D02*Y127804D01*
X100244Y130504D02*X101044Y131304D01*
Y127304D01*
X100244D02*X101744D01*
X102944Y127804D02*X103444Y127304D01*
X102944Y130804D02*Y127804D01*
Y130804D02*X103444Y131304D01*
X104444D01*
X104944Y130804D01*
Y127804D01*
X104444Y127304D02*X104944Y127804D01*
X103444Y127304D02*X104444D01*
X102944Y128304D02*X104944Y130304D01*
X106144Y130804D02*X106644Y131304D01*
X108144D01*
X108644Y130804D01*
Y129804D01*
X106144Y127304D02*X108644Y129804D01*
X106144Y127304D02*X108644D01*
M02*
