G04 start of page 9 for group -3984 idx -3984 *
G04 Title: (unknown), fab *
G04 Creator: pcb 20110918 *
G04 CreationDate: Tue 14 Apr 2015 10:20:40 PM GMT UTC *
G04 For: andrew *
G04 Format: Gerber/RS-274X *
G04 PCB-Dimensions: 374016 236220 *
G04 PCB-Coordinate-Origin: lower left *
%MOIN*%
%FSLAX25Y25*%
%LNFAB*%
%ADD61C,0.0100*%
%ADD60C,0.0075*%
%ADD59C,0.0060*%
%ADD58R,0.0080X0.0080*%
G54D58*X32174Y34669D02*X35374D01*
X32174D02*Y31469D01*
X35374D01*
Y34669D02*Y31469D01*
X341386Y185795D02*X344586D01*
X341386D02*Y182595D01*
X344586D01*
Y185795D02*Y182595D01*
X341846Y33205D02*X345046D01*
X341846D02*Y30005D01*
X345046D01*
Y33205D02*Y30005D01*
X31668Y205970D02*X34868D01*
X31668D02*Y202770D01*
X34868D01*
Y205970D02*Y202770D01*
X13400Y249070D02*X16600D01*
X13400D02*Y245870D01*
X16600D01*
Y249070D02*Y245870D01*
G54D59*X135000Y249720D02*X136500Y246720D01*
X138000Y249720D01*
X136500Y246720D02*Y243720D01*
X139800Y247020D02*X142050D01*
X139800Y243720D02*X142800D01*
X139800Y249720D02*Y243720D01*
Y249720D02*X142800D01*
X147600D02*X148350Y248970D01*
X145350Y249720D02*X147600D01*
X144600Y248970D02*X145350Y249720D01*
X144600Y248970D02*Y247470D01*
X145350Y246720D01*
X147600D01*
X148350Y245970D01*
Y244470D01*
X147600Y243720D02*X148350Y244470D01*
X145350Y243720D02*X147600D01*
X144600Y244470D02*X145350Y243720D01*
X98000Y245970D02*X101000Y249720D01*
X98000Y245970D02*X101750D01*
X101000Y249720D02*Y243720D01*
X45000Y244470D02*X45750Y243720D01*
X45000Y248970D02*Y244470D01*
Y248970D02*X45750Y249720D01*
X47250D01*
X48000Y248970D01*
Y244470D01*
X47250Y243720D02*X48000Y244470D01*
X45750Y243720D02*X47250D01*
X45000Y245220D02*X48000Y248220D01*
X49800Y243720D02*X50550D01*
X52350Y248520D02*X53550Y249720D01*
Y243720D01*
X52350D02*X54600D01*
X56400Y248970D02*X57150Y249720D01*
X59400D01*
X60150Y248970D01*
Y247470D01*
X56400Y243720D02*X60150Y247470D01*
X56400Y243720D02*X60150D01*
X64200Y249720D02*X64950Y248970D01*
X62700Y249720D02*X64200D01*
X61950Y248970D02*X62700Y249720D01*
X61950Y248970D02*Y244470D01*
X62700Y243720D01*
X64200Y247020D02*X64950Y246270D01*
X61950Y247020D02*X64200D01*
X62700Y243720D02*X64200D01*
X64950Y244470D01*
Y246270D02*Y244470D01*
X162805Y20160D02*G75*G03X164405Y20160I800J0D01*G01*
G75*G03X162805Y20160I-800J0D01*G01*
X158164Y47733D02*G75*G03X159764Y47733I800J0D01*G01*
G75*G03X158164Y47733I-800J0D01*G01*
X34417Y132987D02*G75*G03X36017Y132987I800J0D01*G01*
G75*G03X34417Y132987I-800J0D01*G01*
X14200Y262470D02*G75*G03X15800Y262470I800J0D01*G01*
G75*G03X14200Y262470I-800J0D01*G01*
X135000Y264720D02*X136500Y261720D01*
X138000Y264720D01*
X136500Y261720D02*Y258720D01*
X139800Y262020D02*X142050D01*
X139800Y258720D02*X142800D01*
X139800Y264720D02*Y258720D01*
Y264720D02*X142800D01*
X147600D02*X148350Y263970D01*
X145350Y264720D02*X147600D01*
X144600Y263970D02*X145350Y264720D01*
X144600Y263970D02*Y262470D01*
X145350Y261720D01*
X147600D01*
X148350Y260970D01*
Y259470D01*
X147600Y258720D02*X148350Y259470D01*
X145350Y258720D02*X147600D01*
X144600Y259470D02*X145350Y258720D01*
X98000Y263970D02*X98750Y264720D01*
X100250D01*
X101000Y263970D01*
X100250Y258720D02*X101000Y259470D01*
X98750Y258720D02*X100250D01*
X98000Y259470D02*X98750Y258720D01*
Y262020D02*X100250D01*
X101000Y263970D02*Y262770D01*
Y261270D02*Y259470D01*
Y261270D02*X100250Y262020D01*
X101000Y262770D02*X100250Y262020D01*
X45000Y259470D02*X45750Y258720D01*
X45000Y263970D02*Y259470D01*
Y263970D02*X45750Y264720D01*
X47250D01*
X48000Y263970D01*
Y259470D01*
X47250Y258720D02*X48000Y259470D01*
X45750Y258720D02*X47250D01*
X45000Y260220D02*X48000Y263220D01*
X49800Y258720D02*X50550D01*
X52350Y259470D02*X53100Y258720D01*
X52350Y263970D02*Y259470D01*
Y263970D02*X53100Y264720D01*
X54600D01*
X55350Y263970D01*
Y259470D01*
X54600Y258720D02*X55350Y259470D01*
X53100Y258720D02*X54600D01*
X52350Y260220D02*X55350Y263220D01*
X57150Y260970D02*X60150Y264720D01*
X57150Y260970D02*X60900D01*
X60150Y264720D02*Y258720D01*
X64950Y264720D02*X65700Y263970D01*
X63450Y264720D02*X64950D01*
X62700Y263970D02*X63450Y264720D01*
X62700Y263970D02*Y259470D01*
X63450Y258720D01*
X64950Y262020D02*X65700Y261270D01*
X62700Y262020D02*X64950D01*
X63450Y258720D02*X64950D01*
X65700Y259470D01*
Y261270D02*Y259470D01*
X357070Y162690D02*X359470Y160290D01*
X357070D02*X359470Y162690D01*
X357070Y152690D02*X359470Y150290D01*
X357070D02*X359470Y152690D01*
X357070Y142690D02*X359470Y140290D01*
X357070D02*X359470Y142690D01*
X357070Y132690D02*X359470Y130290D01*
X357070D02*X359470Y132690D01*
X357070Y122690D02*X359470Y120290D01*
X357070D02*X359470Y122690D01*
X357070Y112690D02*X359470Y110290D01*
X357070D02*X359470Y112690D01*
X357070Y102690D02*X359470Y100290D01*
X357070D02*X359470Y102690D01*
X357070Y92690D02*X359470Y90290D01*
X357070D02*X359470Y92690D01*
X357070Y82690D02*X359470Y80290D01*
X357070D02*X359470Y82690D01*
X357070Y72690D02*X359470Y70290D01*
X357070D02*X359470Y72690D01*
X357070Y62690D02*X359470Y60290D01*
X357070D02*X359470Y62690D01*
X357070Y52690D02*X359470Y50290D01*
X357070D02*X359470Y52690D01*
X218570Y162690D02*X220970Y160290D01*
X218570D02*X220970Y162690D01*
X218570Y152690D02*X220970Y150290D01*
X218570D02*X220970Y152690D01*
X218570Y142690D02*X220970Y140290D01*
X218570D02*X220970Y142690D01*
X218570Y132690D02*X220970Y130290D01*
X218570D02*X220970Y132690D01*
X218570Y122690D02*X220970Y120290D01*
X218570D02*X220970Y122690D01*
X218570Y112690D02*X220970Y110290D01*
X218570D02*X220970Y112690D01*
X218570Y102690D02*X220970Y100290D01*
X218570D02*X220970Y102690D01*
X218570Y92690D02*X220970Y90290D01*
X218570D02*X220970Y92690D01*
X218570Y82690D02*X220970Y80290D01*
X218570D02*X220970Y82690D01*
X218570Y72690D02*X220970Y70290D01*
X218570D02*X220970Y72690D01*
X218570Y62690D02*X220970Y60290D01*
X218570D02*X220970Y62690D01*
X218570Y52690D02*X220970Y50290D01*
X218570D02*X220970Y52690D01*
X5968Y134660D02*X8368Y132260D01*
X5968D02*X8368Y134660D01*
X5968Y124660D02*X8368Y122260D01*
X5968D02*X8368Y124660D01*
X108980Y11413D02*X111380Y9013D01*
X108980D02*X111380Y11413D01*
X118980D02*X121380Y9013D01*
X118980D02*X121380Y11413D01*
X179863Y163326D02*X182263Y160926D01*
X179863D02*X182263Y163326D01*
X169863D02*X172263Y160926D01*
X169863D02*X172263Y163326D01*
X179863Y173326D02*X182263Y170926D01*
X179863D02*X182263Y173326D01*
X169863D02*X172263Y170926D01*
X169863D02*X172263Y173326D01*
X179863Y183326D02*X182263Y180926D01*
X179863D02*X182263Y183326D01*
X169863D02*X172263Y180926D01*
X169863D02*X172263Y183326D01*
X179863Y193326D02*X182263Y190926D01*
X179863D02*X182263Y193326D01*
X169863D02*X172263Y190926D01*
X169863D02*X172263Y193326D01*
X179863Y203326D02*X182263Y200926D01*
X179863D02*X182263Y203326D01*
X169863D02*X172263Y200926D01*
X169863D02*X172263Y203326D01*
X13800Y278670D02*X16200Y276270D01*
X13800D02*X16200Y278670D01*
X135000Y279720D02*X136500Y276720D01*
X138000Y279720D01*
X136500Y276720D02*Y273720D01*
X139800Y277020D02*X142050D01*
X139800Y273720D02*X142800D01*
X139800Y279720D02*Y273720D01*
Y279720D02*X142800D01*
X147600D02*X148350Y278970D01*
X145350Y279720D02*X147600D01*
X144600Y278970D02*X145350Y279720D01*
X144600Y278970D02*Y277470D01*
X145350Y276720D01*
X147600D01*
X148350Y275970D01*
Y274470D01*
X147600Y273720D02*X148350Y274470D01*
X145350Y273720D02*X147600D01*
X144600Y274470D02*X145350Y273720D01*
X98000Y278970D02*X98750Y279720D01*
X100250D01*
X101000Y278970D01*
X100250Y273720D02*X101000Y274470D01*
X98750Y273720D02*X100250D01*
X98000Y274470D02*X98750Y273720D01*
Y277020D02*X100250D01*
X101000Y278970D02*Y277770D01*
Y276270D02*Y274470D01*
Y276270D02*X100250Y277020D01*
X101000Y277770D02*X100250Y277020D01*
X102800Y274470D02*X103550Y273720D01*
X102800Y275670D02*Y274470D01*
Y275670D02*X103850Y276720D01*
X104750D01*
X105800Y275670D01*
Y274470D01*
X105050Y273720D02*X105800Y274470D01*
X103550Y273720D02*X105050D01*
X102800Y277770D02*X103850Y276720D01*
X102800Y278970D02*Y277770D01*
Y278970D02*X103550Y279720D01*
X105050D01*
X105800Y278970D01*
Y277770D01*
X104750Y276720D02*X105800Y277770D01*
X45000Y274470D02*X45750Y273720D01*
X45000Y278970D02*Y274470D01*
Y278970D02*X45750Y279720D01*
X47250D01*
X48000Y278970D01*
Y274470D01*
X47250Y273720D02*X48000Y274470D01*
X45750Y273720D02*X47250D01*
X45000Y275220D02*X48000Y278220D01*
X49800Y273720D02*X50550D01*
X52350Y274470D02*X53100Y273720D01*
X52350Y278970D02*Y274470D01*
Y278970D02*X53100Y279720D01*
X54600D01*
X55350Y278970D01*
Y274470D01*
X54600Y273720D02*X55350Y274470D01*
X53100Y273720D02*X54600D01*
X52350Y275220D02*X55350Y278220D01*
X57150Y278970D02*X57900Y279720D01*
X59400D01*
X60150Y278970D01*
X59400Y273720D02*X60150Y274470D01*
X57900Y273720D02*X59400D01*
X57150Y274470D02*X57900Y273720D01*
Y277020D02*X59400D01*
X60150Y278970D02*Y277770D01*
Y276270D02*Y274470D01*
Y276270D02*X59400Y277020D01*
X60150Y277770D02*X59400Y277020D01*
X61950Y274470D02*X62700Y273720D01*
X61950Y275670D02*Y274470D01*
Y275670D02*X63000Y276720D01*
X63900D01*
X64950Y275670D01*
Y274470D01*
X64200Y273720D02*X64950Y274470D01*
X62700Y273720D02*X64200D01*
X61950Y277770D02*X63000Y276720D01*
X61950Y278970D02*Y277770D01*
Y278970D02*X62700Y279720D01*
X64200D01*
X64950Y278970D01*
Y277770D01*
X63900Y276720D02*X64950Y277770D01*
X140759Y95208D02*Y92008D01*
X139159Y93608D02*X142359D01*
X188739Y48734D02*Y45534D01*
X187139Y47134D02*X190339D01*
X15000Y294070D02*Y290870D01*
X13400Y292470D02*X16600D01*
X135000Y294720D02*X136500Y291720D01*
X138000Y294720D01*
X136500Y291720D02*Y288720D01*
X139800Y292020D02*X142050D01*
X139800Y288720D02*X142800D01*
X139800Y294720D02*Y288720D01*
Y294720D02*X142800D01*
X147600D02*X148350Y293970D01*
X145350Y294720D02*X147600D01*
X144600Y293970D02*X145350Y294720D01*
X144600Y293970D02*Y292470D01*
X145350Y291720D01*
X147600D01*
X148350Y290970D01*
Y289470D01*
X147600Y288720D02*X148350Y289470D01*
X145350Y288720D02*X147600D01*
X144600Y289470D02*X145350Y288720D01*
X98000Y293970D02*X98750Y294720D01*
X101000D01*
X101750Y293970D01*
Y292470D01*
X98000Y288720D02*X101750Y292470D01*
X98000Y288720D02*X101750D01*
X45000Y289470D02*X45750Y288720D01*
X45000Y293970D02*Y289470D01*
Y293970D02*X45750Y294720D01*
X47250D01*
X48000Y293970D01*
Y289470D01*
X47250Y288720D02*X48000Y289470D01*
X45750Y288720D02*X47250D01*
X45000Y290220D02*X48000Y293220D01*
X49800Y288720D02*X50550D01*
X52350Y289470D02*X53100Y288720D01*
X52350Y293970D02*Y289470D01*
Y293970D02*X53100Y294720D01*
X54600D01*
X55350Y293970D01*
Y289470D01*
X54600Y288720D02*X55350Y289470D01*
X53100Y288720D02*X54600D01*
X52350Y290220D02*X55350Y293220D01*
X57150Y293970D02*X57900Y294720D01*
X59400D01*
X60150Y293970D01*
X59400Y288720D02*X60150Y289470D01*
X57900Y288720D02*X59400D01*
X57150Y289470D02*X57900Y288720D01*
Y292020D02*X59400D01*
X60150Y293970D02*Y292770D01*
Y291270D02*Y289470D01*
Y291270D02*X59400Y292020D01*
X60150Y292770D02*X59400Y292020D01*
X61950Y294720D02*X64950D01*
X61950D02*Y291720D01*
X62700Y292470D01*
X64200D01*
X64950Y291720D01*
Y289470D01*
X64200Y288720D02*X64950Y289470D01*
X62700Y288720D02*X64200D01*
X61950Y289470D02*X62700Y288720D01*
X14902Y157711D02*Y156111D01*
Y157711D02*X16289Y158511D01*
X14902Y157711D02*X13515Y158511D01*
X24902Y157711D02*Y156111D01*
Y157711D02*X26289Y158511D01*
X24902Y157711D02*X23515Y158511D01*
X34902Y157711D02*Y156111D01*
Y157711D02*X36289Y158511D01*
X34902Y157711D02*X33515Y158511D01*
X44902Y157711D02*Y156111D01*
Y157711D02*X46289Y158511D01*
X44902Y157711D02*X43515Y158511D01*
X54902Y157711D02*Y156111D01*
Y157711D02*X56289Y158511D01*
X54902Y157711D02*X53515Y158511D01*
X64902Y157711D02*Y156111D01*
Y157711D02*X66289Y158511D01*
X64902Y157711D02*X63515Y158511D01*
X74902Y157711D02*Y156111D01*
Y157711D02*X76289Y158511D01*
X74902Y157711D02*X73515Y158511D01*
X84902Y157711D02*Y156111D01*
Y157711D02*X86289Y158511D01*
X84902Y157711D02*X83515Y158511D01*
X94902Y157711D02*Y156111D01*
Y157711D02*X96289Y158511D01*
X94902Y157711D02*X93515Y158511D01*
X104902Y157711D02*Y156111D01*
Y157711D02*X106289Y158511D01*
X104902Y157711D02*X103515Y158511D01*
X114902Y157711D02*Y156111D01*
Y157711D02*X116289Y158511D01*
X114902Y157711D02*X113515Y158511D01*
X124902Y157711D02*Y156111D01*
Y157711D02*X126289Y158511D01*
X124902Y157711D02*X123515Y158511D01*
X134902Y157711D02*Y156111D01*
Y157711D02*X136289Y158511D01*
X134902Y157711D02*X133515Y158511D01*
X144902Y157711D02*Y156111D01*
Y157711D02*X146289Y158511D01*
X144902Y157711D02*X143515Y158511D01*
X144902Y187711D02*Y186111D01*
Y187711D02*X146289Y188511D01*
X144902Y187711D02*X143515Y188511D01*
X134902Y187711D02*Y186111D01*
Y187711D02*X136289Y188511D01*
X134902Y187711D02*X133515Y188511D01*
X124902Y187711D02*Y186111D01*
Y187711D02*X126289Y188511D01*
X124902Y187711D02*X123515Y188511D01*
X114902Y187711D02*Y186111D01*
Y187711D02*X116289Y188511D01*
X114902Y187711D02*X113515Y188511D01*
X104902Y187711D02*Y186111D01*
Y187711D02*X106289Y188511D01*
X104902Y187711D02*X103515Y188511D01*
X94902Y187711D02*Y186111D01*
Y187711D02*X96289Y188511D01*
X94902Y187711D02*X93515Y188511D01*
X84902Y187711D02*Y186111D01*
Y187711D02*X86289Y188511D01*
X84902Y187711D02*X83515Y188511D01*
X74902Y187711D02*Y186111D01*
Y187711D02*X76289Y188511D01*
X74902Y187711D02*X73515Y188511D01*
X64902Y187711D02*Y186111D01*
Y187711D02*X66289Y188511D01*
X64902Y187711D02*X63515Y188511D01*
X54902Y187711D02*Y186111D01*
Y187711D02*X56289Y188511D01*
X54902Y187711D02*X53515Y188511D01*
X44902Y187711D02*Y186111D01*
Y187711D02*X46289Y188511D01*
X44902Y187711D02*X43515Y188511D01*
X34902Y187711D02*Y186111D01*
Y187711D02*X36289Y188511D01*
X34902Y187711D02*X33515Y188511D01*
X24902Y187711D02*Y186111D01*
Y187711D02*X26289Y188511D01*
X24902Y187711D02*X23515Y188511D01*
X14902Y187711D02*Y186111D01*
Y187711D02*X16289Y188511D01*
X14902Y187711D02*X13515Y188511D01*
X92280Y139335D02*Y137735D01*
Y139335D02*X93667Y140135D01*
X92280Y139335D02*X90893Y140135D01*
X112280Y139335D02*Y137735D01*
Y139335D02*X113667Y140135D01*
X112280Y139335D02*X110893Y140135D01*
X15000Y307470D02*Y305870D01*
Y307470D02*X16387Y308270D01*
X15000Y307470D02*X13613Y308270D01*
X135000Y309720D02*X136500Y306720D01*
X138000Y309720D01*
X136500Y306720D02*Y303720D01*
X139800Y307020D02*X142050D01*
X139800Y303720D02*X142800D01*
X139800Y309720D02*Y303720D01*
Y309720D02*X142800D01*
X147600D02*X148350Y308970D01*
X145350Y309720D02*X147600D01*
X144600Y308970D02*X145350Y309720D01*
X144600Y308970D02*Y307470D01*
X145350Y306720D01*
X147600D01*
X148350Y305970D01*
Y304470D01*
X147600Y303720D02*X148350Y304470D01*
X145350Y303720D02*X147600D01*
X144600Y304470D02*X145350Y303720D01*
X98000Y308970D02*X98750Y309720D01*
X100250D01*
X101000Y308970D01*
X100250Y303720D02*X101000Y304470D01*
X98750Y303720D02*X100250D01*
X98000Y304470D02*X98750Y303720D01*
Y307020D02*X100250D01*
X101000Y308970D02*Y307770D01*
Y306270D02*Y304470D01*
Y306270D02*X100250Y307020D01*
X101000Y307770D02*X100250Y307020D01*
X102800Y304470D02*X103550Y303720D01*
X102800Y308970D02*Y304470D01*
Y308970D02*X103550Y309720D01*
X105050D01*
X105800Y308970D01*
Y304470D01*
X105050Y303720D02*X105800Y304470D01*
X103550Y303720D02*X105050D01*
X102800Y305220D02*X105800Y308220D01*
X45000Y304470D02*X45750Y303720D01*
X45000Y308970D02*Y304470D01*
Y308970D02*X45750Y309720D01*
X47250D01*
X48000Y308970D01*
Y304470D01*
X47250Y303720D02*X48000Y304470D01*
X45750Y303720D02*X47250D01*
X45000Y305220D02*X48000Y308220D01*
X49800Y303720D02*X50550D01*
X52350Y304470D02*X53100Y303720D01*
X52350Y308970D02*Y304470D01*
Y308970D02*X53100Y309720D01*
X54600D01*
X55350Y308970D01*
Y304470D01*
X54600Y303720D02*X55350Y304470D01*
X53100Y303720D02*X54600D01*
X52350Y305220D02*X55350Y308220D01*
X57150Y308970D02*X57900Y309720D01*
X60150D01*
X60900Y308970D01*
Y307470D01*
X57150Y303720D02*X60900Y307470D01*
X57150Y303720D02*X60900D01*
X62700Y304470D02*X63450Y303720D01*
X62700Y305670D02*Y304470D01*
Y305670D02*X63750Y306720D01*
X64650D01*
X65700Y305670D01*
Y304470D01*
X64950Y303720D02*X65700Y304470D01*
X63450Y303720D02*X64950D01*
X62700Y307770D02*X63750Y306720D01*
X62700Y308970D02*Y307770D01*
Y308970D02*X63450Y309720D01*
X64950D01*
X65700Y308970D01*
Y307770D01*
X64650Y306720D02*X65700Y307770D01*
X3000Y324720D02*X3750Y323970D01*
X750Y324720D02*X3000D01*
X0Y323970D02*X750Y324720D01*
X0Y323970D02*Y322470D01*
X750Y321720D01*
X3000D01*
X3750Y320970D01*
Y319470D01*
X3000Y318720D02*X3750Y319470D01*
X750Y318720D02*X3000D01*
X0Y319470D02*X750Y318720D01*
X5550Y321720D02*Y319470D01*
X6300Y318720D01*
X8550Y321720D02*Y317220D01*
X7800Y316470D02*X8550Y317220D01*
X6300Y316470D02*X7800D01*
X5550Y317220D02*X6300Y316470D01*
Y318720D02*X7800D01*
X8550Y319470D01*
X11100Y320970D02*Y318720D01*
Y320970D02*X11850Y321720D01*
X12600D01*
X13350Y320970D01*
Y318720D01*
Y320970D02*X14100Y321720D01*
X14850D01*
X15600Y320970D01*
Y318720D01*
X10350Y321720D02*X11100Y320970D01*
X17400Y324720D02*Y318720D01*
Y319470D02*X18150Y318720D01*
X19650D01*
X20400Y319470D01*
Y320970D02*Y319470D01*
X19650Y321720D02*X20400Y320970D01*
X18150Y321720D02*X19650D01*
X17400Y320970D02*X18150Y321720D01*
X22200Y320970D02*Y319470D01*
Y320970D02*X22950Y321720D01*
X24450D01*
X25200Y320970D01*
Y319470D01*
X24450Y318720D02*X25200Y319470D01*
X22950Y318720D02*X24450D01*
X22200Y319470D02*X22950Y318720D01*
X27000Y324720D02*Y319470D01*
X27750Y318720D01*
X0Y315470D02*X29250D01*
X41750Y324720D02*Y318720D01*
X43700Y324720D02*X44750Y323670D01*
Y319770D01*
X43700Y318720D02*X44750Y319770D01*
X41000Y318720D02*X43700D01*
X41000Y324720D02*X43700D01*
G54D60*X46550Y323220D02*Y323070D01*
G54D59*Y320970D02*Y318720D01*
X50300Y321720D02*X51050Y320970D01*
X48800Y321720D02*X50300D01*
X48050Y320970D02*X48800Y321720D01*
X48050Y320970D02*Y319470D01*
X48800Y318720D01*
X51050Y321720D02*Y319470D01*
X51800Y318720D01*
X48800D02*X50300D01*
X51050Y319470D01*
X54350Y320970D02*Y318720D01*
Y320970D02*X55100Y321720D01*
X55850D01*
X56600Y320970D01*
Y318720D01*
Y320970D02*X57350Y321720D01*
X58100D01*
X58850Y320970D01*
Y318720D01*
X53600Y321720D02*X54350Y320970D01*
X60650Y318720D02*X61400D01*
X65900Y319470D02*X66650Y318720D01*
X65900Y323970D02*X66650Y324720D01*
X65900Y323970D02*Y319470D01*
X68450Y324720D02*X69950D01*
X69200D02*Y318720D01*
X68450D02*X69950D01*
X72500Y320970D02*Y318720D01*
Y320970D02*X73250Y321720D01*
X74000D01*
X74750Y320970D01*
Y318720D01*
X71750Y321720D02*X72500Y320970D01*
X77300Y321720D02*X79550D01*
X76550Y320970D02*X77300Y321720D01*
X76550Y320970D02*Y319470D01*
X77300Y318720D01*
X79550D01*
X81350Y324720D02*Y318720D01*
Y320970D02*X82100Y321720D01*
X83600D01*
X84350Y320970D01*
Y318720D01*
X86150Y324720D02*X86900Y323970D01*
Y319470D01*
X86150Y318720D02*X86900Y319470D01*
X41000Y315470D02*X88700D01*
X96050Y318720D02*X98000D01*
X95000Y319770D02*X96050Y318720D01*
X95000Y323670D02*Y319770D01*
Y323670D02*X96050Y324720D01*
X98000D01*
X99800Y320970D02*Y319470D01*
Y320970D02*X100550Y321720D01*
X102050D01*
X102800Y320970D01*
Y319470D01*
X102050Y318720D02*X102800Y319470D01*
X100550Y318720D02*X102050D01*
X99800Y319470D02*X100550Y318720D01*
X104600Y321720D02*Y319470D01*
X105350Y318720D01*
X106850D01*
X107600Y319470D01*
Y321720D02*Y319470D01*
X110150Y320970D02*Y318720D01*
Y320970D02*X110900Y321720D01*
X111650D01*
X112400Y320970D01*
Y318720D01*
X109400Y321720D02*X110150Y320970D01*
X114950Y324720D02*Y319470D01*
X115700Y318720D01*
X114200Y322470D02*X115700D01*
X95000Y315470D02*X117200D01*
X130750Y324720D02*Y318720D01*
X130000Y324720D02*X133000D01*
X133750Y323970D01*
Y322470D01*
X133000Y321720D02*X133750Y322470D01*
X130750Y321720D02*X133000D01*
X135550Y324720D02*Y319470D01*
X136300Y318720D01*
X140050Y321720D02*X140800Y320970D01*
X138550Y321720D02*X140050D01*
X137800Y320970D02*X138550Y321720D01*
X137800Y320970D02*Y319470D01*
X138550Y318720D01*
X140800Y321720D02*Y319470D01*
X141550Y318720D01*
X138550D02*X140050D01*
X140800Y319470D01*
X144100Y324720D02*Y319470D01*
X144850Y318720D01*
X143350Y322470D02*X144850D01*
X147100Y318720D02*X149350D01*
X146350Y319470D02*X147100Y318720D01*
X146350Y320970D02*Y319470D01*
Y320970D02*X147100Y321720D01*
X148600D01*
X149350Y320970D01*
X146350Y320220D02*X149350D01*
Y320970D02*Y320220D01*
X154150Y324720D02*Y318720D01*
X153400D02*X154150Y319470D01*
X151900Y318720D02*X153400D01*
X151150Y319470D02*X151900Y318720D01*
X151150Y320970D02*Y319470D01*
Y320970D02*X151900Y321720D01*
X153400D01*
X154150Y320970D01*
X157450Y321720D02*Y320970D01*
Y319470D02*Y318720D01*
X155950Y323970D02*Y323220D01*
Y323970D02*X156700Y324720D01*
X158200D01*
X158950Y323970D01*
Y323220D01*
X157450Y321720D02*X158950Y323220D01*
X130000Y315470D02*X160750D01*
X0Y339720D02*X3000D01*
X1500D02*Y333720D01*
X4800Y339720D02*Y333720D01*
Y335970D02*X5550Y336720D01*
X7050D01*
X7800Y335970D01*
Y333720D01*
X10350D02*X12600D01*
X9600Y334470D02*X10350Y333720D01*
X9600Y335970D02*Y334470D01*
Y335970D02*X10350Y336720D01*
X11850D01*
X12600Y335970D01*
X9600Y335220D02*X12600D01*
Y335970D02*Y335220D01*
X15150Y335970D02*Y333720D01*
Y335970D02*X15900Y336720D01*
X17400D01*
X14400D02*X15150Y335970D01*
X19950Y333720D02*X22200D01*
X19200Y334470D02*X19950Y333720D01*
X19200Y335970D02*Y334470D01*
Y335970D02*X19950Y336720D01*
X21450D01*
X22200Y335970D01*
X19200Y335220D02*X22200D01*
Y335970D02*Y335220D01*
X28950Y336720D02*X29700Y335970D01*
X27450Y336720D02*X28950D01*
X26700Y335970D02*X27450Y336720D01*
X26700Y335970D02*Y334470D01*
X27450Y333720D01*
X29700Y336720D02*Y334470D01*
X30450Y333720D01*
X27450D02*X28950D01*
X29700Y334470D01*
X33000Y335970D02*Y333720D01*
Y335970D02*X33750Y336720D01*
X35250D01*
X32250D02*X33000Y335970D01*
X37800Y333720D02*X40050D01*
X37050Y334470D02*X37800Y333720D01*
X37050Y335970D02*Y334470D01*
Y335970D02*X37800Y336720D01*
X39300D01*
X40050Y335970D01*
X37050Y335220D02*X40050D01*
Y335970D02*Y335220D01*
X44550Y339720D02*X47550D01*
X44550D02*Y336720D01*
X45300Y337470D01*
X46800D01*
X47550Y336720D01*
Y334470D01*
X46800Y333720D02*X47550Y334470D01*
X45300Y333720D02*X46800D01*
X44550Y334470D02*X45300Y333720D01*
X55050Y339720D02*Y333720D01*
X54300D02*X55050Y334470D01*
X52800Y333720D02*X54300D01*
X52050Y334470D02*X52800Y333720D01*
X52050Y335970D02*Y334470D01*
Y335970D02*X52800Y336720D01*
X54300D01*
X55050Y335970D01*
G54D60*X56850Y338220D02*Y338070D01*
G54D59*Y335970D02*Y333720D01*
X59100Y338970D02*Y333720D01*
Y338970D02*X59850Y339720D01*
X60600D01*
X58350Y336720D02*X59850D01*
X62850Y338970D02*Y333720D01*
Y338970D02*X63600Y339720D01*
X64350D01*
X62100Y336720D02*X63600D01*
X66600Y333720D02*X68850D01*
X65850Y334470D02*X66600Y333720D01*
X65850Y335970D02*Y334470D01*
Y335970D02*X66600Y336720D01*
X68100D01*
X68850Y335970D01*
X65850Y335220D02*X68850D01*
Y335970D02*Y335220D01*
X71400Y335970D02*Y333720D01*
Y335970D02*X72150Y336720D01*
X73650D01*
X70650D02*X71400Y335970D01*
X76200Y333720D02*X78450D01*
X75450Y334470D02*X76200Y333720D01*
X75450Y335970D02*Y334470D01*
Y335970D02*X76200Y336720D01*
X77700D01*
X78450Y335970D01*
X75450Y335220D02*X78450D01*
Y335970D02*Y335220D01*
X81000Y335970D02*Y333720D01*
Y335970D02*X81750Y336720D01*
X82500D01*
X83250Y335970D01*
Y333720D01*
X80250Y336720D02*X81000Y335970D01*
X85800Y339720D02*Y334470D01*
X86550Y333720D01*
X85050Y337470D02*X86550D01*
X93750Y339720D02*Y333720D01*
X93000D02*X93750Y334470D01*
X91500Y333720D02*X93000D01*
X90750Y334470D02*X91500Y333720D01*
X90750Y335970D02*Y334470D01*
Y335970D02*X91500Y336720D01*
X93000D01*
X93750Y335970D01*
X96300D02*Y333720D01*
Y335970D02*X97050Y336720D01*
X98550D01*
X95550D02*X96300Y335970D01*
G54D60*X100350Y338220D02*Y338070D01*
G54D59*Y335970D02*Y333720D01*
X101850Y339720D02*Y334470D01*
X102600Y333720D01*
X104100Y339720D02*Y334470D01*
X104850Y333720D01*
X109800D02*X112050D01*
X112800Y334470D01*
X112050Y335220D02*X112800Y334470D01*
X109800Y335220D02*X112050D01*
X109050Y335970D02*X109800Y335220D01*
X109050Y335970D02*X109800Y336720D01*
X112050D01*
X112800Y335970D01*
X109050Y334470D02*X109800Y333720D01*
G54D60*X114600Y338220D02*Y338070D01*
G54D59*Y335970D02*Y333720D01*
X116100Y336720D02*X119100D01*
X116100Y333720D02*X119100Y336720D01*
X116100Y333720D02*X119100D01*
X121650D02*X123900D01*
X120900Y334470D02*X121650Y333720D01*
X120900Y335970D02*Y334470D01*
Y335970D02*X121650Y336720D01*
X123150D01*
X123900Y335970D01*
X120900Y335220D02*X123900D01*
Y335970D02*Y335220D01*
X126450Y333720D02*X128700D01*
X129450Y334470D01*
X128700Y335220D02*X129450Y334470D01*
X126450Y335220D02*X128700D01*
X125700Y335970D02*X126450Y335220D01*
X125700Y335970D02*X126450Y336720D01*
X128700D01*
X129450Y335970D01*
X125700Y334470D02*X126450Y333720D01*
X133950Y336720D02*Y334470D01*
X134700Y333720D01*
X136200D01*
X136950Y334470D01*
Y336720D02*Y334470D01*
X139500Y333720D02*X141750D01*
X142500Y334470D01*
X141750Y335220D02*X142500Y334470D01*
X139500Y335220D02*X141750D01*
X138750Y335970D02*X139500Y335220D01*
X138750Y335970D02*X139500Y336720D01*
X141750D01*
X142500Y335970D01*
X138750Y334470D02*X139500Y333720D01*
X145050D02*X147300D01*
X144300Y334470D02*X145050Y333720D01*
X144300Y335970D02*Y334470D01*
Y335970D02*X145050Y336720D01*
X146550D01*
X147300Y335970D01*
X144300Y335220D02*X147300D01*
Y335970D02*Y335220D01*
X152100Y339720D02*Y333720D01*
X151350D02*X152100Y334470D01*
X149850Y333720D02*X151350D01*
X149100Y334470D02*X149850Y333720D01*
X149100Y335970D02*Y334470D01*
Y335970D02*X149850Y336720D01*
X151350D01*
X152100Y335970D01*
G54D60*X156600Y338220D02*Y338070D01*
G54D59*Y335970D02*Y333720D01*
X158850Y335970D02*Y333720D01*
Y335970D02*X159600Y336720D01*
X160350D01*
X161100Y335970D01*
Y333720D01*
X158100Y336720D02*X158850Y335970D01*
X166350Y339720D02*Y334470D01*
X167100Y333720D01*
X165600Y337470D02*X167100D01*
X168600Y339720D02*Y333720D01*
Y335970D02*X169350Y336720D01*
X170850D01*
X171600Y335970D01*
Y333720D01*
G54D60*X173400Y338220D02*Y338070D01*
G54D59*Y335970D02*Y333720D01*
X175650D02*X177900D01*
X178650Y334470D01*
X177900Y335220D02*X178650Y334470D01*
X175650Y335220D02*X177900D01*
X174900Y335970D02*X175650Y335220D01*
X174900Y335970D02*X175650Y336720D01*
X177900D01*
X178650Y335970D01*
X174900Y334470D02*X175650Y333720D01*
X183150Y339720D02*Y334470D01*
X183900Y333720D01*
X187650Y336720D02*X188400Y335970D01*
X186150Y336720D02*X187650D01*
X185400Y335970D02*X186150Y336720D01*
X185400Y335970D02*Y334470D01*
X186150Y333720D01*
X188400Y336720D02*Y334470D01*
X189150Y333720D01*
X186150D02*X187650D01*
X188400Y334470D01*
X190950Y336720D02*Y334470D01*
X191700Y333720D01*
X193950Y336720D02*Y332220D01*
X193200Y331470D02*X193950Y332220D01*
X191700Y331470D02*X193200D01*
X190950Y332220D02*X191700Y331470D01*
Y333720D02*X193200D01*
X193950Y334470D01*
X195750Y335970D02*Y334470D01*
Y335970D02*X196500Y336720D01*
X198000D01*
X198750Y335970D01*
Y334470D01*
X198000Y333720D02*X198750Y334470D01*
X196500Y333720D02*X198000D01*
X195750Y334470D02*X196500Y333720D01*
X200550Y336720D02*Y334470D01*
X201300Y333720D01*
X202800D01*
X203550Y334470D01*
Y336720D02*Y334470D01*
X206100Y339720D02*Y334470D01*
X206850Y333720D01*
X205350Y337470D02*X206850D01*
X208350Y332220D02*X209850Y333720D01*
X215100D02*X218100Y339720D01*
X214350D02*X218100D01*
X220650Y333720D02*X223650Y339720D01*
X219900D02*X223650D01*
X228150D02*Y333720D01*
Y335970D02*X228900Y336720D01*
X230400D01*
X231150Y335970D01*
Y333720D01*
X232950Y335970D02*Y334470D01*
Y335970D02*X233700Y336720D01*
X235200D01*
X235950Y335970D01*
Y334470D01*
X235200Y333720D02*X235950Y334470D01*
X233700Y333720D02*X235200D01*
X232950Y334470D02*X233700Y333720D01*
X237750Y339720D02*Y334470D01*
X238500Y333720D01*
X240750D02*X243000D01*
X240000Y334470D02*X240750Y333720D01*
X240000Y335970D02*Y334470D01*
Y335970D02*X240750Y336720D01*
X242250D01*
X243000Y335970D01*
X240000Y335220D02*X243000D01*
Y335970D02*Y335220D01*
X245550Y333720D02*X247800D01*
X248550Y334470D01*
X247800Y335220D02*X248550Y334470D01*
X245550Y335220D02*X247800D01*
X244800Y335970D02*X245550Y335220D01*
X244800Y335970D02*X245550Y336720D01*
X247800D01*
X248550Y335970D01*
X244800Y334470D02*X245550Y333720D01*
X253800Y339720D02*Y334470D01*
X254550Y333720D01*
X253050Y337470D02*X254550D01*
X256050Y335970D02*Y334470D01*
Y335970D02*X256800Y336720D01*
X258300D01*
X259050Y335970D01*
Y334470D01*
X258300Y333720D02*X259050Y334470D01*
X256800Y333720D02*X258300D01*
X256050Y334470D02*X256800Y333720D01*
X261600Y339720D02*Y334470D01*
X262350Y333720D01*
X260850Y337470D02*X262350D01*
X266100Y336720D02*X266850Y335970D01*
X264600Y336720D02*X266100D01*
X263850Y335970D02*X264600Y336720D01*
X263850Y335970D02*Y334470D01*
X264600Y333720D01*
X266850Y336720D02*Y334470D01*
X267600Y333720D01*
X264600D02*X266100D01*
X266850Y334470D01*
X269400Y339720D02*Y334470D01*
X270150Y333720D01*
G54D61*X0Y236220D02*X374016D01*
X0D02*Y0D01*
X374016Y236220D02*Y0D01*
X0D02*X374016D01*
G54D59*X200000Y249720D02*Y243720D01*
Y249720D02*X202250Y246720D01*
X204500Y249720D01*
Y243720D01*
X208550Y246720D02*X209300Y245970D01*
X207050Y246720D02*X208550D01*
X206300Y245970D02*X207050Y246720D01*
X206300Y245970D02*Y244470D01*
X207050Y243720D01*
X209300Y246720D02*Y244470D01*
X210050Y243720D01*
X207050D02*X208550D01*
X209300Y244470D01*
X211850Y246720D02*X214850Y243720D01*
X211850D02*X214850Y246720D01*
G54D60*X216650Y248220D02*Y248070D01*
G54D59*Y245970D02*Y243720D01*
X218900Y245970D02*Y243720D01*
Y245970D02*X219650Y246720D01*
X220400D01*
X221150Y245970D01*
Y243720D01*
Y245970D02*X221900Y246720D01*
X222650D01*
X223400Y245970D01*
Y243720D01*
X218150Y246720D02*X218900Y245970D01*
X225200Y246720D02*Y244470D01*
X225950Y243720D01*
X227450D01*
X228200Y244470D01*
Y246720D02*Y244470D01*
X230750Y245970D02*Y243720D01*
Y245970D02*X231500Y246720D01*
X232250D01*
X233000Y245970D01*
Y243720D01*
Y245970D02*X233750Y246720D01*
X234500D01*
X235250Y245970D01*
Y243720D01*
X230000Y246720D02*X230750Y245970D01*
X240500Y249720D02*Y243720D01*
X242450Y249720D02*X243500Y248670D01*
Y244770D01*
X242450Y243720D02*X243500Y244770D01*
X239750Y243720D02*X242450D01*
X239750Y249720D02*X242450D01*
G54D60*X245300Y248220D02*Y248070D01*
G54D59*Y245970D02*Y243720D01*
X247550Y245970D02*Y243720D01*
Y245970D02*X248300Y246720D01*
X249050D01*
X249800Y245970D01*
Y243720D01*
Y245970D02*X250550Y246720D01*
X251300D01*
X252050Y245970D01*
Y243720D01*
X246800Y246720D02*X247550Y245970D01*
X254600Y243720D02*X256850D01*
X253850Y244470D02*X254600Y243720D01*
X253850Y245970D02*Y244470D01*
Y245970D02*X254600Y246720D01*
X256100D01*
X256850Y245970D01*
X253850Y245220D02*X256850D01*
Y245970D02*Y245220D01*
X259400Y245970D02*Y243720D01*
Y245970D02*X260150Y246720D01*
X260900D01*
X261650Y245970D01*
Y243720D01*
X258650Y246720D02*X259400Y245970D01*
X264200Y243720D02*X266450D01*
X267200Y244470D01*
X266450Y245220D02*X267200Y244470D01*
X264200Y245220D02*X266450D01*
X263450Y245970D02*X264200Y245220D01*
X263450Y245970D02*X264200Y246720D01*
X266450D01*
X267200Y245970D01*
X263450Y244470D02*X264200Y243720D01*
G54D60*X269000Y248220D02*Y248070D01*
G54D59*Y245970D02*Y243720D01*
X270500Y245970D02*Y244470D01*
Y245970D02*X271250Y246720D01*
X272750D01*
X273500Y245970D01*
Y244470D01*
X272750Y243720D02*X273500Y244470D01*
X271250Y243720D02*X272750D01*
X270500Y244470D02*X271250Y243720D01*
X276050Y245970D02*Y243720D01*
Y245970D02*X276800Y246720D01*
X277550D01*
X278300Y245970D01*
Y243720D01*
X275300Y246720D02*X276050Y245970D01*
X280850Y243720D02*X283100D01*
X283850Y244470D01*
X283100Y245220D02*X283850Y244470D01*
X280850Y245220D02*X283100D01*
X280100Y245970D02*X280850Y245220D01*
X280100Y245970D02*X280850Y246720D01*
X283100D01*
X283850Y245970D01*
X280100Y244470D02*X280850Y243720D01*
X285650Y247470D02*X286400D01*
X285650Y245970D02*X286400D01*
X290900Y248970D02*X291650Y249720D01*
X293150D01*
X293900Y248970D01*
X293150Y243720D02*X293900Y244470D01*
X291650Y243720D02*X293150D01*
X290900Y244470D02*X291650Y243720D01*
Y247020D02*X293150D01*
X293900Y248970D02*Y247770D01*
Y246270D02*Y244470D01*
Y246270D02*X293150Y247020D01*
X293900Y247770D02*X293150Y247020D01*
X296450Y243720D02*X299450Y249720D01*
X295700D02*X299450D01*
X301250Y245970D02*X304250Y249720D01*
X301250Y245970D02*X305000D01*
X304250Y249720D02*Y243720D01*
X306800Y244470D02*X307550Y243720D01*
X306800Y248970D02*Y244470D01*
Y248970D02*X307550Y249720D01*
X309050D01*
X309800Y248970D01*
Y244470D01*
X309050Y243720D02*X309800Y244470D01*
X307550Y243720D02*X309050D01*
X306800Y245220D02*X309800Y248220D01*
X311600Y243720D02*X312350D01*
X314150Y248520D02*X315350Y249720D01*
Y243720D01*
X314150D02*X316400D01*
X320450Y249720D02*X321200Y248970D01*
X318950Y249720D02*X320450D01*
X318200Y248970D02*X318950Y249720D01*
X318200Y248970D02*Y244470D01*
X318950Y243720D01*
X320450Y247020D02*X321200Y246270D01*
X318200Y247020D02*X320450D01*
X318950Y243720D02*X320450D01*
X321200Y244470D01*
Y246270D02*Y244470D01*
X323000D02*X323750Y243720D01*
X323000Y248970D02*Y244470D01*
Y248970D02*X323750Y249720D01*
X325250D01*
X326000Y248970D01*
Y244470D01*
X325250Y243720D02*X326000Y244470D01*
X323750Y243720D02*X325250D01*
X323000Y245220D02*X326000Y248220D01*
X327800Y244470D02*X328550Y243720D01*
X327800Y248970D02*Y244470D01*
Y248970D02*X328550Y249720D01*
X330050D01*
X330800Y248970D01*
Y244470D01*
X330050Y243720D02*X330800Y244470D01*
X328550Y243720D02*X330050D01*
X327800Y245220D02*X330800Y248220D01*
X332600Y244470D02*X333350Y243720D01*
X332600Y248970D02*Y244470D01*
Y248970D02*X333350Y249720D01*
X334850D01*
X335600Y248970D01*
Y244470D01*
X334850Y243720D02*X335600Y244470D01*
X333350Y243720D02*X334850D01*
X332600Y245220D02*X335600Y248220D01*
X337400Y244470D02*X338150Y243720D01*
X337400Y248970D02*Y244470D01*
Y248970D02*X338150Y249720D01*
X339650D01*
X340400Y248970D01*
Y244470D01*
X339650Y243720D02*X340400Y244470D01*
X338150Y243720D02*X339650D01*
X337400Y245220D02*X340400Y248220D01*
X345650Y245970D02*Y243720D01*
Y245970D02*X346400Y246720D01*
X347150D01*
X347900Y245970D01*
Y243720D01*
Y245970D02*X348650Y246720D01*
X349400D01*
X350150Y245970D01*
Y243720D01*
X344900Y246720D02*X345650Y245970D01*
G54D60*X351950Y248220D02*Y248070D01*
G54D59*Y245970D02*Y243720D01*
X353450Y249720D02*Y244470D01*
X354200Y243720D01*
X356450D02*X358700D01*
X359450Y244470D01*
X358700Y245220D02*X359450Y244470D01*
X356450Y245220D02*X358700D01*
X355700Y245970D02*X356450Y245220D01*
X355700Y245970D02*X356450Y246720D01*
X358700D01*
X359450Y245970D01*
X355700Y244470D02*X356450Y243720D01*
X363950Y246720D02*Y244470D01*
X364700Y243720D01*
X365450D01*
X366200Y244470D01*
Y246720D02*Y244470D01*
X366950Y243720D01*
X367700D01*
X368450Y244470D01*
Y246720D02*Y244470D01*
G54D60*X370250Y248220D02*Y248070D01*
G54D59*Y245970D02*Y243720D01*
X374750Y249720D02*Y243720D01*
X374000D02*X374750Y244470D01*
X372500Y243720D02*X374000D01*
X371750Y244470D02*X372500Y243720D01*
X371750Y245970D02*Y244470D01*
Y245970D02*X372500Y246720D01*
X374000D01*
X374750Y245970D01*
X377300Y243720D02*X379550D01*
X376550Y244470D02*X377300Y243720D01*
X376550Y245970D02*Y244470D01*
Y245970D02*X377300Y246720D01*
X378800D01*
X379550Y245970D01*
X376550Y245220D02*X379550D01*
Y245970D02*Y245220D01*
X381350Y242220D02*X382850Y243720D01*
X387350Y248970D02*X388100Y249720D01*
X390350D01*
X391100Y248970D01*
Y247470D01*
X387350Y243720D02*X391100Y247470D01*
X387350Y243720D02*X391100D01*
X392900Y248970D02*X393650Y249720D01*
X395150D01*
X395900Y248970D01*
X395150Y243720D02*X395900Y244470D01*
X393650Y243720D02*X395150D01*
X392900Y244470D02*X393650Y243720D01*
Y247020D02*X395150D01*
X395900Y248970D02*Y247770D01*
Y246270D02*Y244470D01*
Y246270D02*X395150Y247020D01*
X395900Y247770D02*X395150Y247020D01*
X399950Y249720D02*X400700Y248970D01*
X398450Y249720D02*X399950D01*
X397700Y248970D02*X398450Y249720D01*
X397700Y248970D02*Y244470D01*
X398450Y243720D01*
X399950Y247020D02*X400700Y246270D01*
X397700Y247020D02*X399950D01*
X398450Y243720D02*X399950D01*
X400700Y244470D01*
Y246270D02*Y244470D01*
X402500Y248970D02*X403250Y249720D01*
X405500D01*
X406250Y248970D01*
Y247470D01*
X402500Y243720D02*X406250Y247470D01*
X402500Y243720D02*X406250D01*
X408050D02*X408800D01*
X410600Y248970D02*X411350Y249720D01*
X413600D01*
X414350Y248970D01*
Y247470D01*
X410600Y243720D02*X414350Y247470D01*
X410600Y243720D02*X414350D01*
X416150Y244470D02*X416900Y243720D01*
X416150Y248970D02*Y244470D01*
Y248970D02*X416900Y249720D01*
X418400D01*
X419150Y248970D01*
Y244470D01*
X418400Y243720D02*X419150Y244470D01*
X416900Y243720D02*X418400D01*
X416150Y245220D02*X419150Y248220D01*
X420950Y244470D02*X421700Y243720D01*
X420950Y248970D02*Y244470D01*
Y248970D02*X421700Y249720D01*
X423200D01*
X423950Y248970D01*
Y244470D01*
X423200Y243720D02*X423950Y244470D01*
X421700Y243720D02*X423200D01*
X420950Y245220D02*X423950Y248220D01*
X425750Y244470D02*X426500Y243720D01*
X425750Y248970D02*Y244470D01*
Y248970D02*X426500Y249720D01*
X428000D01*
X428750Y248970D01*
Y244470D01*
X428000Y243720D02*X428750Y244470D01*
X426500Y243720D02*X428000D01*
X425750Y245220D02*X428750Y248220D01*
X430550Y244470D02*X431300Y243720D01*
X430550Y248970D02*Y244470D01*
Y248970D02*X431300Y249720D01*
X432800D01*
X433550Y248970D01*
Y244470D01*
X432800Y243720D02*X433550Y244470D01*
X431300Y243720D02*X432800D01*
X430550Y245220D02*X433550Y248220D01*
X435350Y244470D02*X436100Y243720D01*
X435350Y248970D02*Y244470D01*
Y248970D02*X436100Y249720D01*
X437600D01*
X438350Y248970D01*
Y244470D01*
X437600Y243720D02*X438350Y244470D01*
X436100Y243720D02*X437600D01*
X435350Y245220D02*X438350Y248220D01*
X443600Y245970D02*Y243720D01*
Y245970D02*X444350Y246720D01*
X445100D01*
X445850Y245970D01*
Y243720D01*
Y245970D02*X446600Y246720D01*
X447350D01*
X448100Y245970D01*
Y243720D01*
X442850Y246720D02*X443600Y245970D01*
G54D60*X449900Y248220D02*Y248070D01*
G54D59*Y245970D02*Y243720D01*
X451400Y249720D02*Y244470D01*
X452150Y243720D01*
X454400D02*X456650D01*
X457400Y244470D01*
X456650Y245220D02*X457400Y244470D01*
X454400Y245220D02*X456650D01*
X453650Y245970D02*X454400Y245220D01*
X453650Y245970D02*X454400Y246720D01*
X456650D01*
X457400Y245970D01*
X453650Y244470D02*X454400Y243720D01*
X461900Y249720D02*Y243720D01*
Y245970D02*X462650Y246720D01*
X464150D01*
X464900Y245970D01*
Y243720D01*
G54D60*X466700Y248220D02*Y248070D01*
G54D59*Y245970D02*Y243720D01*
X470450Y246720D02*X471200Y245970D01*
X468950Y246720D02*X470450D01*
X468200Y245970D02*X468950Y246720D01*
X468200Y245970D02*Y244470D01*
X468950Y243720D01*
X470450D01*
X471200Y244470D01*
X468200Y242220D02*X468950Y241470D01*
X470450D01*
X471200Y242220D01*
Y246720D02*Y242220D01*
X473000Y249720D02*Y243720D01*
Y245970D02*X473750Y246720D01*
X475250D01*
X476000Y245970D01*
Y243720D01*
X0Y-9500D02*X3000D01*
X3750Y-8750D01*
Y-6950D02*Y-8750D01*
X3000Y-6200D02*X3750Y-6950D01*
X750Y-6200D02*X3000D01*
X750Y-3500D02*Y-9500D01*
X0Y-3500D02*X3000D01*
X3750Y-4250D01*
Y-5450D01*
X3000Y-6200D02*X3750Y-5450D01*
X5550Y-7250D02*Y-8750D01*
Y-7250D02*X6300Y-6500D01*
X7800D01*
X8550Y-7250D01*
Y-8750D01*
X7800Y-9500D02*X8550Y-8750D01*
X6300Y-9500D02*X7800D01*
X5550Y-8750D02*X6300Y-9500D01*
X12600Y-6500D02*X13350Y-7250D01*
X11100Y-6500D02*X12600D01*
X10350Y-7250D02*X11100Y-6500D01*
X10350Y-7250D02*Y-8750D01*
X11100Y-9500D01*
X13350Y-6500D02*Y-8750D01*
X14100Y-9500D01*
X11100D02*X12600D01*
X13350Y-8750D01*
X16650Y-7250D02*Y-9500D01*
Y-7250D02*X17400Y-6500D01*
X18900D01*
X15900D02*X16650Y-7250D01*
X23700Y-3500D02*Y-9500D01*
X22950D02*X23700Y-8750D01*
X21450Y-9500D02*X22950D01*
X20700Y-8750D02*X21450Y-9500D01*
X20700Y-7250D02*Y-8750D01*
Y-7250D02*X21450Y-6500D01*
X22950D01*
X23700Y-7250D01*
X28200D02*Y-8750D01*
Y-7250D02*X28950Y-6500D01*
X30450D01*
X31200Y-7250D01*
Y-8750D01*
X30450Y-9500D02*X31200Y-8750D01*
X28950Y-9500D02*X30450D01*
X28200Y-8750D02*X28950Y-9500D01*
X33000Y-6500D02*Y-8750D01*
X33750Y-9500D01*
X35250D01*
X36000Y-8750D01*
Y-6500D02*Y-8750D01*
X38550Y-3500D02*Y-8750D01*
X39300Y-9500D01*
X37800Y-5750D02*X39300D01*
X40800Y-3500D02*Y-8750D01*
X41550Y-9500D01*
G54D60*X43050Y-5000D02*Y-5150D01*
G54D59*Y-7250D02*Y-9500D01*
X45300Y-7250D02*Y-9500D01*
Y-7250D02*X46050Y-6500D01*
X46800D01*
X47550Y-7250D01*
Y-9500D01*
X44550Y-6500D02*X45300Y-7250D01*
X50100Y-9500D02*X52350D01*
X49350Y-8750D02*X50100Y-9500D01*
X49350Y-7250D02*Y-8750D01*
Y-7250D02*X50100Y-6500D01*
X51600D01*
X52350Y-7250D01*
X49350Y-8000D02*X52350D01*
Y-7250D02*Y-8000D01*
G54D60*X56850Y-5000D02*Y-5150D01*
G54D59*Y-7250D02*Y-9500D01*
X59100D02*X61350D01*
X62100Y-8750D01*
X61350Y-8000D02*X62100Y-8750D01*
X59100Y-8000D02*X61350D01*
X58350Y-7250D02*X59100Y-8000D01*
X58350Y-7250D02*X59100Y-6500D01*
X61350D01*
X62100Y-7250D01*
X58350Y-8750D02*X59100Y-9500D01*
X67350Y-3500D02*Y-8750D01*
X68100Y-9500D01*
X66600Y-5750D02*X68100D01*
X69600Y-3500D02*Y-9500D01*
Y-7250D02*X70350Y-6500D01*
X71850D01*
X72600Y-7250D01*
Y-9500D01*
X75150D02*X77400D01*
X74400Y-8750D02*X75150Y-9500D01*
X74400Y-7250D02*Y-8750D01*
Y-7250D02*X75150Y-6500D01*
X76650D01*
X77400Y-7250D01*
X74400Y-8000D02*X77400D01*
Y-7250D02*Y-8000D01*
X82650Y-6500D02*X84900D01*
X81900Y-7250D02*X82650Y-6500D01*
X81900Y-7250D02*Y-8750D01*
X82650Y-9500D01*
X84900D01*
X87450D02*X89700D01*
X86700Y-8750D02*X87450Y-9500D01*
X86700Y-7250D02*Y-8750D01*
Y-7250D02*X87450Y-6500D01*
X88950D01*
X89700Y-7250D01*
X86700Y-8000D02*X89700D01*
Y-7250D02*Y-8000D01*
X92250Y-7250D02*Y-9500D01*
Y-7250D02*X93000Y-6500D01*
X93750D01*
X94500Y-7250D01*
Y-9500D01*
X91500Y-6500D02*X92250Y-7250D01*
X97050Y-3500D02*Y-8750D01*
X97800Y-9500D01*
X96300Y-5750D02*X97800D01*
X100050Y-9500D02*X102300D01*
X99300Y-8750D02*X100050Y-9500D01*
X99300Y-7250D02*Y-8750D01*
Y-7250D02*X100050Y-6500D01*
X101550D01*
X102300Y-7250D01*
X99300Y-8000D02*X102300D01*
Y-7250D02*Y-8000D01*
X104850Y-7250D02*Y-9500D01*
Y-7250D02*X105600Y-6500D01*
X107100D01*
X104100D02*X104850Y-7250D01*
X108900Y-3500D02*Y-8750D01*
X109650Y-9500D01*
G54D60*X111150Y-5000D02*Y-5150D01*
G54D59*Y-7250D02*Y-9500D01*
X113400Y-7250D02*Y-9500D01*
Y-7250D02*X114150Y-6500D01*
X114900D01*
X115650Y-7250D01*
Y-9500D01*
X112650Y-6500D02*X113400Y-7250D01*
X118200Y-9500D02*X120450D01*
X117450Y-8750D02*X118200Y-9500D01*
X117450Y-7250D02*Y-8750D01*
Y-7250D02*X118200Y-6500D01*
X119700D01*
X120450Y-7250D01*
X117450Y-8000D02*X120450D01*
Y-7250D02*Y-8000D01*
X124950Y-7250D02*Y-8750D01*
Y-7250D02*X125700Y-6500D01*
X127200D01*
X127950Y-7250D01*
Y-8750D01*
X127200Y-9500D02*X127950Y-8750D01*
X125700Y-9500D02*X127200D01*
X124950Y-8750D02*X125700Y-9500D01*
X130500Y-4250D02*Y-9500D01*
Y-4250D02*X131250Y-3500D01*
X132000D01*
X129750Y-6500D02*X131250D01*
X136950Y-3500D02*Y-8750D01*
X137700Y-9500D01*
X136200Y-5750D02*X137700D01*
X139200Y-3500D02*Y-9500D01*
Y-7250D02*X139950Y-6500D01*
X141450D01*
X142200Y-7250D01*
Y-9500D01*
G54D60*X144000Y-5000D02*Y-5150D01*
G54D59*Y-7250D02*Y-9500D01*
X146250D02*X148500D01*
X149250Y-8750D01*
X148500Y-8000D02*X149250Y-8750D01*
X146250Y-8000D02*X148500D01*
X145500Y-7250D02*X146250Y-8000D01*
X145500Y-7250D02*X146250Y-6500D01*
X148500D01*
X149250Y-7250D01*
X145500Y-8750D02*X146250Y-9500D01*
X153750Y-8750D02*X154500Y-9500D01*
X153750Y-7550D02*Y-8750D01*
Y-7550D02*X154800Y-6500D01*
X155700D01*
X156750Y-7550D01*
Y-8750D01*
X156000Y-9500D02*X156750Y-8750D01*
X154500Y-9500D02*X156000D01*
X153750Y-5450D02*X154800Y-6500D01*
X153750Y-4250D02*Y-5450D01*
Y-4250D02*X154500Y-3500D01*
X156000D01*
X156750Y-4250D01*
Y-5450D01*
X155700Y-6500D02*X156750Y-5450D01*
X158550Y-9500D02*X159300D01*
X161100Y-8750D02*X161850Y-9500D01*
X161100Y-4250D02*Y-8750D01*
Y-4250D02*X161850Y-3500D01*
X163350D01*
X164100Y-4250D01*
Y-8750D01*
X163350Y-9500D02*X164100Y-8750D01*
X161850Y-9500D02*X163350D01*
X161100Y-8000D02*X164100Y-5000D01*
X165900Y-8750D02*X166650Y-9500D01*
X165900Y-4250D02*Y-8750D01*
Y-4250D02*X166650Y-3500D01*
X168150D01*
X168900Y-4250D01*
Y-8750D01*
X168150Y-9500D02*X168900Y-8750D01*
X166650Y-9500D02*X168150D01*
X165900Y-8000D02*X168900Y-5000D01*
X170700Y-8750D02*X171450Y-9500D01*
X170700Y-4250D02*Y-8750D01*
Y-4250D02*X171450Y-3500D01*
X172950D01*
X173700Y-4250D01*
Y-8750D01*
X172950Y-9500D02*X173700Y-8750D01*
X171450Y-9500D02*X172950D01*
X170700Y-8000D02*X173700Y-5000D01*
X175500Y-8750D02*X176250Y-9500D01*
X175500Y-4250D02*Y-8750D01*
Y-4250D02*X176250Y-3500D01*
X177750D01*
X178500Y-4250D01*
Y-8750D01*
X177750Y-9500D02*X178500Y-8750D01*
X176250Y-9500D02*X177750D01*
X175500Y-8000D02*X178500Y-5000D01*
X180300Y-8750D02*X181050Y-9500D01*
X180300Y-4250D02*Y-8750D01*
Y-4250D02*X181050Y-3500D01*
X182550D01*
X183300Y-4250D01*
Y-8750D01*
X182550Y-9500D02*X183300Y-8750D01*
X181050Y-9500D02*X182550D01*
X180300Y-8000D02*X183300Y-5000D01*
X185100Y-8750D02*X185850Y-9500D01*
X185100Y-4250D02*Y-8750D01*
Y-4250D02*X185850Y-3500D01*
X187350D01*
X188100Y-4250D01*
Y-8750D01*
X187350Y-9500D02*X188100Y-8750D01*
X185850Y-9500D02*X187350D01*
X185100Y-8000D02*X188100Y-5000D01*
X193350Y-7250D02*Y-9500D01*
Y-7250D02*X194100Y-6500D01*
X194850D01*
X195600Y-7250D01*
Y-9500D01*
Y-7250D02*X196350Y-6500D01*
X197100D01*
X197850Y-7250D01*
Y-9500D01*
X192600Y-6500D02*X193350Y-7250D01*
G54D60*X199650Y-5000D02*Y-5150D01*
G54D59*Y-7250D02*Y-9500D01*
X201150Y-3500D02*Y-8750D01*
X201900Y-9500D01*
X206850Y-7250D02*Y-9500D01*
Y-7250D02*X207600Y-6500D01*
X209100D01*
X206100D02*X206850Y-7250D01*
X211650Y-9500D02*X213900D01*
X210900Y-8750D02*X211650Y-9500D01*
X210900Y-7250D02*Y-8750D01*
Y-7250D02*X211650Y-6500D01*
X213150D01*
X213900Y-7250D01*
X210900Y-8000D02*X213900D01*
Y-7250D02*Y-8000D01*
X216450Y-6500D02*X218700D01*
X215700Y-7250D02*X216450Y-6500D01*
X215700Y-7250D02*Y-8750D01*
X216450Y-9500D01*
X218700D01*
X221250Y-3500D02*Y-8750D01*
X222000Y-9500D01*
X220500Y-5750D02*X222000D01*
X225750Y-6500D02*X226500Y-7250D01*
X224250Y-6500D02*X225750D01*
X223500Y-7250D02*X224250Y-6500D01*
X223500Y-7250D02*Y-8750D01*
X224250Y-9500D01*
X226500Y-6500D02*Y-8750D01*
X227250Y-9500D01*
X224250D02*X225750D01*
X226500Y-8750D01*
X229800Y-7250D02*Y-9500D01*
Y-7250D02*X230550Y-6500D01*
X231300D01*
X232050Y-7250D01*
Y-9500D01*
X229050Y-6500D02*X229800Y-7250D01*
X236100Y-6500D02*X236850Y-7250D01*
X234600Y-6500D02*X236100D01*
X233850Y-7250D02*X234600Y-6500D01*
X233850Y-7250D02*Y-8750D01*
X234600Y-9500D01*
X236100D01*
X236850Y-8750D01*
X233850Y-11000D02*X234600Y-11750D01*
X236100D01*
X236850Y-11000D01*
Y-6500D02*Y-11000D01*
X238650Y-3500D02*Y-8750D01*
X239400Y-9500D01*
X241650D02*X243900D01*
X240900Y-8750D02*X241650Y-9500D01*
X240900Y-7250D02*Y-8750D01*
Y-7250D02*X241650Y-6500D01*
X243150D01*
X243900Y-7250D01*
X240900Y-8000D02*X243900D01*
Y-7250D02*Y-8000D01*
X248400Y-6500D02*X251400D01*
X255900Y-8750D02*X256650Y-9500D01*
X255900Y-4250D02*Y-8750D01*
Y-4250D02*X256650Y-3500D01*
X258150D01*
X258900Y-4250D01*
Y-8750D01*
X258150Y-9500D02*X258900Y-8750D01*
X256650Y-9500D02*X258150D01*
X255900Y-8000D02*X258900Y-5000D01*
X260700Y-11000D02*X262200Y-9500D01*
X264000Y-8750D02*X264750Y-9500D01*
X264000Y-4250D02*Y-8750D01*
Y-4250D02*X264750Y-3500D01*
X266250D01*
X267000Y-4250D01*
Y-8750D01*
X266250Y-9500D02*X267000Y-8750D01*
X264750Y-9500D02*X266250D01*
X264000Y-8000D02*X267000Y-5000D01*
X272250Y-3500D02*Y-8750D01*
X273000Y-9500D01*
X271500Y-5750D02*X273000D01*
X274500Y-7250D02*Y-8750D01*
Y-7250D02*X275250Y-6500D01*
X276750D01*
X277500Y-7250D01*
Y-8750D01*
X276750Y-9500D02*X277500Y-8750D01*
X275250Y-9500D02*X276750D01*
X274500Y-8750D02*X275250Y-9500D01*
X282000Y-4250D02*X282750Y-3500D01*
X284250D01*
X285000Y-4250D01*
X284250Y-9500D02*X285000Y-8750D01*
X282750Y-9500D02*X284250D01*
X282000Y-8750D02*X282750Y-9500D01*
Y-6200D02*X284250D01*
X285000Y-4250D02*Y-5450D01*
Y-6950D02*Y-8750D01*
Y-6950D02*X284250Y-6200D01*
X285000Y-5450D02*X284250Y-6200D01*
X287550Y-9500D02*X290550Y-3500D01*
X286800D02*X290550D01*
X292350Y-7250D02*X295350Y-3500D01*
X292350Y-7250D02*X296100D01*
X295350Y-3500D02*Y-9500D01*
X297900Y-8750D02*X298650Y-9500D01*
X297900Y-4250D02*Y-8750D01*
Y-4250D02*X298650Y-3500D01*
X300150D01*
X300900Y-4250D01*
Y-8750D01*
X300150Y-9500D02*X300900Y-8750D01*
X298650Y-9500D02*X300150D01*
X297900Y-8000D02*X300900Y-5000D01*
X302700Y-9500D02*X303450D01*
X305250Y-4700D02*X306450Y-3500D01*
Y-9500D01*
X305250D02*X307500D01*
X311550Y-3500D02*X312300Y-4250D01*
X310050Y-3500D02*X311550D01*
X309300Y-4250D02*X310050Y-3500D01*
X309300Y-4250D02*Y-8750D01*
X310050Y-9500D01*
X311550Y-6200D02*X312300Y-6950D01*
X309300Y-6200D02*X311550D01*
X310050Y-9500D02*X311550D01*
X312300Y-8750D01*
Y-6950D02*Y-8750D01*
X314100D02*X314850Y-9500D01*
X314100Y-4250D02*Y-8750D01*
Y-4250D02*X314850Y-3500D01*
X316350D01*
X317100Y-4250D01*
Y-8750D01*
X316350Y-9500D02*X317100Y-8750D01*
X314850Y-9500D02*X316350D01*
X314100Y-8000D02*X317100Y-5000D01*
X318900Y-8750D02*X319650Y-9500D01*
X318900Y-4250D02*Y-8750D01*
Y-4250D02*X319650Y-3500D01*
X321150D01*
X321900Y-4250D01*
Y-8750D01*
X321150Y-9500D02*X321900Y-8750D01*
X319650Y-9500D02*X321150D01*
X318900Y-8000D02*X321900Y-5000D01*
X323700Y-8750D02*X324450Y-9500D01*
X323700Y-4250D02*Y-8750D01*
Y-4250D02*X324450Y-3500D01*
X325950D01*
X326700Y-4250D01*
Y-8750D01*
X325950Y-9500D02*X326700Y-8750D01*
X324450Y-9500D02*X325950D01*
X323700Y-8000D02*X326700Y-5000D01*
X328500Y-8750D02*X329250Y-9500D01*
X328500Y-4250D02*Y-8750D01*
Y-4250D02*X329250Y-3500D01*
X330750D01*
X331500Y-4250D01*
Y-8750D01*
X330750Y-9500D02*X331500Y-8750D01*
X329250Y-9500D02*X330750D01*
X328500Y-8000D02*X331500Y-5000D01*
X333300Y-11000D02*X334800Y-9500D01*
X336600Y-4250D02*X337350Y-3500D01*
X339600D01*
X340350Y-4250D01*
Y-5750D01*
X336600Y-9500D02*X340350Y-5750D01*
X336600Y-9500D02*X340350D01*
X342150Y-4250D02*X342900Y-3500D01*
X344400D01*
X345150Y-4250D01*
X344400Y-9500D02*X345150Y-8750D01*
X342900Y-9500D02*X344400D01*
X342150Y-8750D02*X342900Y-9500D01*
Y-6200D02*X344400D01*
X345150Y-4250D02*Y-5450D01*
Y-6950D02*Y-8750D01*
Y-6950D02*X344400Y-6200D01*
X345150Y-5450D02*X344400Y-6200D01*
X349200Y-3500D02*X349950Y-4250D01*
X347700Y-3500D02*X349200D01*
X346950Y-4250D02*X347700Y-3500D01*
X346950Y-4250D02*Y-8750D01*
X347700Y-9500D01*
X349200Y-6200D02*X349950Y-6950D01*
X346950Y-6200D02*X349200D01*
X347700Y-9500D02*X349200D01*
X349950Y-8750D01*
Y-6950D02*Y-8750D01*
X351750Y-4250D02*X352500Y-3500D01*
X354750D01*
X355500Y-4250D01*
Y-5750D01*
X351750Y-9500D02*X355500Y-5750D01*
X351750Y-9500D02*X355500D01*
X357300D02*X358050D01*
X359850Y-4250D02*X360600Y-3500D01*
X362850D01*
X363600Y-4250D01*
Y-5750D01*
X359850Y-9500D02*X363600Y-5750D01*
X359850Y-9500D02*X363600D01*
X365400Y-8750D02*X366150Y-9500D01*
X365400Y-4250D02*Y-8750D01*
Y-4250D02*X366150Y-3500D01*
X367650D01*
X368400Y-4250D01*
Y-8750D01*
X367650Y-9500D02*X368400Y-8750D01*
X366150Y-9500D02*X367650D01*
X365400Y-8000D02*X368400Y-5000D01*
X370200Y-8750D02*X370950Y-9500D01*
X370200Y-4250D02*Y-8750D01*
Y-4250D02*X370950Y-3500D01*
X372450D01*
X373200Y-4250D01*
Y-8750D01*
X372450Y-9500D02*X373200Y-8750D01*
X370950Y-9500D02*X372450D01*
X370200Y-8000D02*X373200Y-5000D01*
X375000Y-8750D02*X375750Y-9500D01*
X375000Y-4250D02*Y-8750D01*
Y-4250D02*X375750Y-3500D01*
X377250D01*
X378000Y-4250D01*
Y-8750D01*
X377250Y-9500D02*X378000Y-8750D01*
X375750Y-9500D02*X377250D01*
X375000Y-8000D02*X378000Y-5000D01*
X379800Y-8750D02*X380550Y-9500D01*
X379800Y-4250D02*Y-8750D01*
Y-4250D02*X380550Y-3500D01*
X382050D01*
X382800Y-4250D01*
Y-8750D01*
X382050Y-9500D02*X382800Y-8750D01*
X380550Y-9500D02*X382050D01*
X379800Y-8000D02*X382800Y-5000D01*
X384600Y-8750D02*X385350Y-9500D01*
X384600Y-4250D02*Y-8750D01*
Y-4250D02*X385350Y-3500D01*
X386850D01*
X387600Y-4250D01*
Y-8750D01*
X386850Y-9500D02*X387600Y-8750D01*
X385350Y-9500D02*X386850D01*
X384600Y-8000D02*X387600Y-5000D01*
X392850Y-7250D02*Y-9500D01*
Y-7250D02*X393600Y-6500D01*
X394350D01*
X395100Y-7250D01*
Y-9500D01*
Y-7250D02*X395850Y-6500D01*
X396600D01*
X397350Y-7250D01*
Y-9500D01*
X392100Y-6500D02*X392850Y-7250D01*
G54D60*X399150Y-5000D02*Y-5150D01*
G54D59*Y-7250D02*Y-9500D01*
X400650Y-3500D02*Y-8750D01*
X401400Y-9500D01*
X403650D02*X405900D01*
X406650Y-8750D01*
X405900Y-8000D02*X406650Y-8750D01*
X403650Y-8000D02*X405900D01*
X402900Y-7250D02*X403650Y-8000D01*
X402900Y-7250D02*X403650Y-6500D01*
X405900D01*
X406650Y-7250D01*
X402900Y-8750D02*X403650Y-9500D01*
X200750Y264720D02*Y258720D01*
X202700Y264720D02*X203750Y263670D01*
Y259770D01*
X202700Y258720D02*X203750Y259770D01*
X200000Y258720D02*X202700D01*
X200000Y264720D02*X202700D01*
X207800Y261720D02*X208550Y260970D01*
X206300Y261720D02*X207800D01*
X205550Y260970D02*X206300Y261720D01*
X205550Y260970D02*Y259470D01*
X206300Y258720D01*
X208550Y261720D02*Y259470D01*
X209300Y258720D01*
X206300D02*X207800D01*
X208550Y259470D01*
X211850Y264720D02*Y259470D01*
X212600Y258720D01*
X211100Y262470D02*X212600D01*
X214850Y258720D02*X217100D01*
X214100Y259470D02*X214850Y258720D01*
X214100Y260970D02*Y259470D01*
Y260970D02*X214850Y261720D01*
X216350D01*
X217100Y260970D01*
X214100Y260220D02*X217100D01*
Y260970D02*Y260220D01*
X218900Y262470D02*X219650D01*
X218900Y260970D02*X219650D01*
X224150Y264720D02*X227150D01*
X225650D02*Y258720D01*
X228950Y261720D02*Y259470D01*
X229700Y258720D01*
X231200D01*
X231950Y259470D01*
Y261720D02*Y259470D01*
X234500Y258720D02*X236750D01*
X233750Y259470D02*X234500Y258720D01*
X233750Y260970D02*Y259470D01*
Y260970D02*X234500Y261720D01*
X236000D01*
X236750Y260970D01*
X233750Y260220D02*X236750D01*
Y260970D02*Y260220D01*
X241250Y263520D02*X242450Y264720D01*
Y258720D01*
X241250D02*X243500D01*
X245300Y260970D02*X248300Y264720D01*
X245300Y260970D02*X249050D01*
X248300Y264720D02*Y258720D01*
X253550Y263220D02*Y258720D01*
Y263220D02*X254600Y264720D01*
X256250D01*
X257300Y263220D01*
Y258720D01*
X253550Y261720D02*X257300D01*
X259850Y260970D02*Y256470D01*
X259100Y261720D02*X259850Y260970D01*
X260600Y261720D01*
X262100D01*
X262850Y260970D01*
Y259470D01*
X262100Y258720D02*X262850Y259470D01*
X260600Y258720D02*X262100D01*
X259850Y259470D02*X260600Y258720D01*
X265400Y260970D02*Y258720D01*
Y260970D02*X266150Y261720D01*
X267650D01*
X264650D02*X265400Y260970D01*
X272150Y263970D02*X272900Y264720D01*
X275150D01*
X275900Y263970D01*
Y262470D01*
X272150Y258720D02*X275900Y262470D01*
X272150Y258720D02*X275900D01*
X277700Y259470D02*X278450Y258720D01*
X277700Y263970D02*Y259470D01*
Y263970D02*X278450Y264720D01*
X279950D01*
X280700Y263970D01*
Y259470D01*
X279950Y258720D02*X280700Y259470D01*
X278450Y258720D02*X279950D01*
X277700Y260220D02*X280700Y263220D01*
X282500Y263520D02*X283700Y264720D01*
Y258720D01*
X282500D02*X284750D01*
X286550Y264720D02*X289550D01*
X286550D02*Y261720D01*
X287300Y262470D01*
X288800D01*
X289550Y261720D01*
Y259470D01*
X288800Y258720D02*X289550Y259470D01*
X287300Y258720D02*X288800D01*
X286550Y259470D02*X287300Y258720D01*
X294050Y263520D02*X295250Y264720D01*
Y258720D01*
X294050D02*X296300D01*
X298100Y259470D02*X298850Y258720D01*
X298100Y263970D02*Y259470D01*
Y263970D02*X298850Y264720D01*
X300350D01*
X301100Y263970D01*
Y259470D01*
X300350Y258720D02*X301100Y259470D01*
X298850Y258720D02*X300350D01*
X298100Y260220D02*X301100Y263220D01*
X302900Y262470D02*X303650D01*
X302900Y260970D02*X303650D01*
X305450Y263970D02*X306200Y264720D01*
X308450D01*
X309200Y263970D01*
Y262470D01*
X305450Y258720D02*X309200Y262470D01*
X305450Y258720D02*X309200D01*
X311000Y259470D02*X311750Y258720D01*
X311000Y263970D02*Y259470D01*
Y263970D02*X311750Y264720D01*
X313250D01*
X314000Y263970D01*
Y259470D01*
X313250Y258720D02*X314000Y259470D01*
X311750Y258720D02*X313250D01*
X311000Y260220D02*X314000Y263220D01*
X315800Y262470D02*X316550D01*
X315800Y260970D02*X316550D01*
X318350D02*X321350Y264720D01*
X318350Y260970D02*X322100D01*
X321350Y264720D02*Y258720D01*
X323900Y259470D02*X324650Y258720D01*
X323900Y263970D02*Y259470D01*
Y263970D02*X324650Y264720D01*
X326150D01*
X326900Y263970D01*
Y259470D01*
X326150Y258720D02*X326900Y259470D01*
X324650Y258720D02*X326150D01*
X323900Y260220D02*X326900Y263220D01*
X332150Y264720D02*Y258720D01*
X331400Y264720D02*X334400D01*
X335150Y263970D01*
Y262470D01*
X334400Y261720D02*X335150Y262470D01*
X332150Y261720D02*X334400D01*
X336950Y264720D02*Y258720D01*
Y264720D02*X339200Y261720D01*
X341450Y264720D01*
Y258720D01*
X348950Y264720D02*X349700Y263970D01*
X346700Y264720D02*X348950D01*
X345950Y263970D02*X346700Y264720D01*
X345950Y263970D02*Y259470D01*
X346700Y258720D01*
X348950D01*
X349700Y259470D01*
Y260970D02*Y259470D01*
X348950Y261720D02*X349700Y260970D01*
X347450Y261720D02*X348950D01*
X351500Y264720D02*Y258720D01*
Y264720D02*X353750Y261720D01*
X356000Y264720D01*
Y258720D01*
X357800Y264720D02*X360800D01*
X359300D02*Y258720D01*
X365300Y264720D02*Y259470D01*
X366050Y258720D01*
X367550D01*
X368300Y259470D01*
Y264720D02*Y259470D01*
X370100Y264720D02*X373100D01*
X371600D02*Y258720D01*
X375950D02*X377900D01*
X374900Y259770D02*X375950Y258720D01*
X374900Y263670D02*Y259770D01*
Y263670D02*X375950Y264720D01*
X377900D01*
X200000Y278220D02*Y273720D01*
Y278220D02*X201050Y279720D01*
X202700D01*
X203750Y278220D01*
Y273720D01*
X200000Y276720D02*X203750D01*
X205550D02*Y274470D01*
X206300Y273720D01*
X207800D01*
X208550Y274470D01*
Y276720D02*Y274470D01*
X211100Y279720D02*Y274470D01*
X211850Y273720D01*
X210350Y277470D02*X211850D01*
X213350Y279720D02*Y273720D01*
Y275970D02*X214100Y276720D01*
X215600D01*
X216350Y275970D01*
Y273720D01*
X218150Y275970D02*Y274470D01*
Y275970D02*X218900Y276720D01*
X220400D01*
X221150Y275970D01*
Y274470D01*
X220400Y273720D02*X221150Y274470D01*
X218900Y273720D02*X220400D01*
X218150Y274470D02*X218900Y273720D01*
X223700Y275970D02*Y273720D01*
Y275970D02*X224450Y276720D01*
X225950D01*
X222950D02*X223700Y275970D01*
X227750Y277470D02*X228500D01*
X227750Y275970D02*X228500D01*
X233000Y278220D02*Y273720D01*
Y278220D02*X234050Y279720D01*
X235700D01*
X236750Y278220D01*
Y273720D01*
X233000Y276720D02*X236750D01*
X239300Y275970D02*Y273720D01*
Y275970D02*X240050Y276720D01*
X240800D01*
X241550Y275970D01*
Y273720D01*
X238550Y276720D02*X239300Y275970D01*
X246350Y279720D02*Y273720D01*
X245600D02*X246350Y274470D01*
X244100Y273720D02*X245600D01*
X243350Y274470D02*X244100Y273720D01*
X243350Y275970D02*Y274470D01*
Y275970D02*X244100Y276720D01*
X245600D01*
X246350Y275970D01*
X248900D02*Y273720D01*
Y275970D02*X249650Y276720D01*
X251150D01*
X248150D02*X248900Y275970D01*
X253700Y273720D02*X255950D01*
X252950Y274470D02*X253700Y273720D01*
X252950Y275970D02*Y274470D01*
Y275970D02*X253700Y276720D01*
X255200D01*
X255950Y275970D01*
X252950Y275220D02*X255950D01*
Y275970D02*Y275220D01*
X257750Y276720D02*Y274470D01*
X258500Y273720D01*
X259250D01*
X260000Y274470D01*
Y276720D02*Y274470D01*
X260750Y273720D01*
X261500D01*
X262250Y274470D01*
Y276720D02*Y274470D01*
X267500Y279720D02*Y273720D01*
X266750Y279720D02*X269750D01*
X270500Y278970D01*
Y277470D01*
X269750Y276720D02*X270500Y277470D01*
X267500Y276720D02*X269750D01*
X274550D02*X275300Y275970D01*
X273050Y276720D02*X274550D01*
X272300Y275970D02*X273050Y276720D01*
X272300Y275970D02*Y274470D01*
X273050Y273720D01*
X275300Y276720D02*Y274470D01*
X276050Y273720D01*
X273050D02*X274550D01*
X275300Y274470D01*
X277850Y279720D02*Y273720D01*
Y274470D02*X278600Y273720D01*
X280100D01*
X280850Y274470D01*
Y275970D02*Y274470D01*
X280100Y276720D02*X280850Y275970D01*
X278600Y276720D02*X280100D01*
X277850Y275970D02*X278600Y276720D01*
X282650Y279720D02*Y274470D01*
X283400Y273720D01*
X285650D02*X287900D01*
X284900Y274470D02*X285650Y273720D01*
X284900Y275970D02*Y274470D01*
Y275970D02*X285650Y276720D01*
X287150D01*
X287900Y275970D01*
X284900Y275220D02*X287900D01*
Y275970D02*Y275220D01*
X200000Y294720D02*X203000D01*
X201500D02*Y288720D01*
G54D60*X204800Y293220D02*Y293070D01*
G54D59*Y290970D02*Y288720D01*
X207050Y294720D02*Y289470D01*
X207800Y288720D01*
X206300Y292470D02*X207800D01*
X209300Y294720D02*Y289470D01*
X210050Y288720D01*
X212300D02*X214550D01*
X211550Y289470D02*X212300Y288720D01*
X211550Y290970D02*Y289470D01*
Y290970D02*X212300Y291720D01*
X213800D01*
X214550Y290970D01*
X211550Y290220D02*X214550D01*
Y290970D02*Y290220D01*
X216350Y292470D02*X217100D01*
X216350Y290970D02*X217100D01*
X221600Y289470D02*X222350Y288720D01*
X221600Y293970D02*X222350Y294720D01*
X221600Y293970D02*Y289470D01*
X224150Y291720D02*Y289470D01*
X224900Y288720D01*
X226400D01*
X227150Y289470D01*
Y291720D02*Y289470D01*
X229700Y290970D02*Y288720D01*
Y290970D02*X230450Y291720D01*
X231200D01*
X231950Y290970D01*
Y288720D01*
X228950Y291720D02*X229700Y290970D01*
X233750Y294720D02*Y288720D01*
Y290970D02*X236000Y288720D01*
X233750Y290970D02*X235250Y292470D01*
X238550Y290970D02*Y288720D01*
Y290970D02*X239300Y291720D01*
X240050D01*
X240800Y290970D01*
Y288720D01*
X237800Y291720D02*X238550Y290970D01*
X242600D02*Y289470D01*
Y290970D02*X243350Y291720D01*
X244850D01*
X245600Y290970D01*
Y289470D01*
X244850Y288720D02*X245600Y289470D01*
X243350Y288720D02*X244850D01*
X242600Y289470D02*X243350Y288720D01*
X247400Y291720D02*Y289470D01*
X248150Y288720D01*
X248900D01*
X249650Y289470D01*
Y291720D02*Y289470D01*
X250400Y288720D01*
X251150D01*
X251900Y289470D01*
Y291720D02*Y289470D01*
X254450Y290970D02*Y288720D01*
Y290970D02*X255200Y291720D01*
X255950D01*
X256700Y290970D01*
Y288720D01*
X253700Y291720D02*X254450Y290970D01*
X258500Y294720D02*X259250Y293970D01*
Y289470D01*
X258500Y288720D02*X259250Y289470D01*
X263750Y291720D02*X266750D01*
X271250Y294720D02*Y288720D01*
Y294720D02*X274250D01*
X271250Y292020D02*X273500D01*
X278300Y291720D02*X279050Y290970D01*
X276800Y291720D02*X278300D01*
X276050Y290970D02*X276800Y291720D01*
X276050Y290970D02*Y289470D01*
X276800Y288720D01*
X279050Y291720D02*Y289470D01*
X279800Y288720D01*
X276800D02*X278300D01*
X279050Y289470D01*
X281600Y294720D02*Y288720D01*
Y289470D02*X282350Y288720D01*
X283850D01*
X284600Y289470D01*
Y290970D02*Y289470D01*
X283850Y291720D02*X284600Y290970D01*
X282350Y291720D02*X283850D01*
X281600Y290970D02*X282350Y291720D01*
X287150Y290970D02*Y288720D01*
Y290970D02*X287900Y291720D01*
X289400D01*
X286400D02*X287150Y290970D01*
G54D60*X291200Y293220D02*Y293070D01*
G54D59*Y290970D02*Y288720D01*
X293450Y291720D02*X295700D01*
X292700Y290970D02*X293450Y291720D01*
X292700Y290970D02*Y289470D01*
X293450Y288720D01*
X295700D01*
X299750Y291720D02*X300500Y290970D01*
X298250Y291720D02*X299750D01*
X297500Y290970D02*X298250Y291720D01*
X297500Y290970D02*Y289470D01*
X298250Y288720D01*
X300500Y291720D02*Y289470D01*
X301250Y288720D01*
X298250D02*X299750D01*
X300500Y289470D01*
X303800Y294720D02*Y289470D01*
X304550Y288720D01*
X303050Y292470D02*X304550D01*
G54D60*X306050Y293220D02*Y293070D01*
G54D59*Y290970D02*Y288720D01*
X307550Y290970D02*Y289470D01*
Y290970D02*X308300Y291720D01*
X309800D01*
X310550Y290970D01*
Y289470D01*
X309800Y288720D02*X310550Y289470D01*
X308300Y288720D02*X309800D01*
X307550Y289470D02*X308300Y288720D01*
X313100Y290970D02*Y288720D01*
Y290970D02*X313850Y291720D01*
X314600D01*
X315350Y290970D01*
Y288720D01*
X312350Y291720D02*X313100Y290970D01*
X320600Y294720D02*Y288720D01*
X322550Y294720D02*X323600Y293670D01*
Y289770D01*
X322550Y288720D02*X323600Y289770D01*
X319850Y288720D02*X322550D01*
X319850Y294720D02*X322550D01*
X326150Y290970D02*Y288720D01*
Y290970D02*X326900Y291720D01*
X328400D01*
X325400D02*X326150Y290970D01*
X332450Y291720D02*X333200Y290970D01*
X330950Y291720D02*X332450D01*
X330200Y290970D02*X330950Y291720D01*
X330200Y290970D02*Y289470D01*
X330950Y288720D01*
X333200Y291720D02*Y289470D01*
X333950Y288720D01*
X330950D02*X332450D01*
X333200Y289470D01*
X335750Y291720D02*Y289470D01*
X336500Y288720D01*
X337250D01*
X338000Y289470D01*
Y291720D02*Y289470D01*
X338750Y288720D01*
X339500D01*
X340250Y289470D01*
Y291720D02*Y289470D01*
G54D60*X342050Y293220D02*Y293070D01*
G54D59*Y290970D02*Y288720D01*
X344300Y290970D02*Y288720D01*
Y290970D02*X345050Y291720D01*
X345800D01*
X346550Y290970D01*
Y288720D01*
X343550Y291720D02*X344300Y290970D01*
X350600Y291720D02*X351350Y290970D01*
X349100Y291720D02*X350600D01*
X348350Y290970D02*X349100Y291720D01*
X348350Y290970D02*Y289470D01*
X349100Y288720D01*
X350600D01*
X351350Y289470D01*
X348350Y287220D02*X349100Y286470D01*
X350600D01*
X351350Y287220D01*
Y291720D02*Y287220D01*
M02*
