M48
INCH
T43C0.126
T42C0.035
T41C0.126
T40C0.046
T39C0.028
T38C0.038
%
T39
X005490Y015771
X006490Y015771
X001490Y015771
X002490Y015771
X003490Y015771
X004490Y015771
X007490Y015771
X008490Y015771
X010490Y018771
X009490Y018771
X008490Y018771
X007490Y018771
X006490Y018771
X005490Y018771
X004490Y018771
X003490Y018771
X002490Y018771
X001490Y018771
X009490Y015771
X010490Y015771
X011490Y015771
X012490Y015771
X013490Y015771
X014490Y015771
X014490Y018771
X013490Y018771
X012490Y018771
X011490Y018771
X009228Y013934
X011228Y013934
T42
X014076Y009361
X018874Y004713
T38
X021977Y016149
X021977Y015149
X021977Y014149
X021977Y013149
X021977Y012149
X021977Y011149
X021977Y010149
X021977Y009149
X021977Y008149
X021977Y007149
X021977Y006149
X021977Y005149
X035827Y013149
X035827Y012149
X035827Y011149
X035827Y010149
X035827Y016149
X035827Y015149
X035827Y014149
X035827Y009149
X035827Y008149
X035827Y007149
X035827Y006149
X035827Y005149
X000717Y013346
X000717Y012346
X011018Y001021
X012018Y001021
X018106Y016213
X017106Y016213
X018106Y017213
X017106Y017213
X018106Y018213
X017106Y018213
X018106Y019213
X017106Y019213
X018106Y020213
X017106Y020213
T40
X003522Y013299
X016360Y002016
X015896Y004773
T43
X003377Y003307
T41
X034299Y018420
X034345Y003160
X003327Y020437
M30
